<?xml version="1.0" encoding="utf-8"?>
<!-- Generator: Adobe Illustrator 21.0.0, SVG Export Plug-In . SVG Version: 6.00 Build 0)  -->
<svg version="1.1" id="Layer_1" xmlns="http://www.w3.org/2000/svg" xmlns:xlink="http://www.w3.org/1999/xlink" x="0px" y="0px"
	 viewBox="0 0 56.7 56.7" style="enable-background:new 0 0 56.7 56.7;" xml:space="preserve">
<style type="text/css">
	.st0{fill:#231F20;}
</style>
<g>
	<path class="st0" d="M44.9,0H11.8C5.3,0,0,5.3,0,11.8v33.1c0,6.5,5.3,11.8,11.8,11.8l33.1,0c6.5,0,11.8-5.3,11.8-11.8V11.8
		C56.7,5.3,51.4,0,44.9,0z M39,33.6c0.4,0,0.7-0.3,0.7-0.7v-7.4c0-0.4-0.3-0.7-0.7-0.7h-6.7v-2.9c0-1.2,1-2.1,2.1-2.1H39
		c0.4,0,0.7-0.3,0.7-0.7v-8.7c0-0.4-0.3-0.7-0.7-0.7h-8.3c-5.4,0-9.8,4.4-9.8,9.8v5.4h-3.1c-0.4,0-0.7,0.3-0.7,0.7V33
		c0,0.4,0.3,0.7,0.7,0.7h3.1l0,17.2h-8.2c-3.7,0-6.7-3-6.7-6.7V12.3c0-3.7,3-6.7,6.7-6.7h31.5c3.7,0,6.7,3,6.7,6.7v31.8
		c0,3.7-3,6.7-6.7,6.7H32.4l-0.1-17.2H39z"/>
</g>
</svg>
