<?xml version="1.0" encoding="utf-8"?>
<!-- Generator: Adobe Illustrator 16.0.0, SVG Export Plug-In . SVG Version: 6.00 Build 0)  -->
<!DOCTYPE svg PUBLIC "-//W3C//DTD SVG 1.1//EN" "http://www.w3.org/Graphics/SVG/1.1/DTD/svg11.dtd">
<svg version="1.1" id="Layer_1" xmlns="http://www.w3.org/2000/svg" xmlns:xlink="http://www.w3.org/1999/xlink" x="0px" y="0px"
	 width="57.483px" height="58.006px" viewBox="0 0 57.483 58.006" enable-background="new 0 0 57.483 58.006" xml:space="preserve">
<g>
	
		<path fill="none" stroke="#231F20" stroke-width="1.417" stroke-linecap="round" stroke-linejoin="round" stroke-miterlimit="10" d="
		M12.623,55.944C6.646,55.944,1.8,51.1,1.8,45.122V12.884c0-5.978,4.846-10.822,10.823-10.822H44.86
		c5.978,0,10.823,4.845,10.823,10.822v32.238c0,5.978-4.846,10.822-10.823,10.822H12.623z"/>
	
		<path fill="none" stroke="#231F20" stroke-width="1.417" stroke-linecap="round" stroke-linejoin="round" stroke-miterlimit="10" d="
		M13.417,51.568c-3.998,0-7.24-3.241-7.24-7.24V13.396c0-3.998,3.242-7.239,7.24-7.239h30.649c3.999,0,7.24,3.241,7.24,7.239v30.933
		c0,3.999-3.241,7.24-7.24,7.24H13.417z"/>
	
		<circle fill="none" stroke="#231F20" stroke-width="1.417" stroke-linecap="round" stroke-linejoin="round" stroke-miterlimit="10" cx="28.742" cy="28.862" r="13.621"/>
	
		<circle fill="none" stroke="#231F20" stroke-width="1.417" stroke-linecap="round" stroke-linejoin="round" stroke-miterlimit="10" cx="28.742" cy="28.862" r="8.532"/>
	
		<path fill="none" stroke="#231F20" stroke-width="1.417" stroke-linecap="round" stroke-linejoin="round" stroke-miterlimit="10" d="
		M45.076,12.165c2.554,2.554,2.25,6.999,1.139,8.108c-1.11,1.111-2.606-1.533-5.16-4.088c-2.554-2.554-5.199-4.05-4.088-5.16
		C38.077,9.915,42.521,9.61,45.076,12.165z"/>
</g>
</svg>
