<?xml version="1.0" encoding="utf-8"?>
<!-- Generator: Adobe Illustrator 16.0.0, SVG Export Plug-In . SVG Version: 6.00 Build 0)  -->
<!DOCTYPE svg PUBLIC "-//W3C//DTD SVG 1.1//EN" "http://www.w3.org/Graphics/SVG/1.1/DTD/svg11.dtd">
<svg version="1.1" id="Layer_1" xmlns="http://www.w3.org/2000/svg" xmlns:xlink="http://www.w3.org/1999/xlink" x="0px" y="0px"
	 width="216.603px" height="308.731px" viewBox="0 0 216.603 308.731" enable-background="new 0 0 216.603 308.731"
	 xml:space="preserve">
<g>
	<path fill="#3B3B38" d="M211.48,188.957H5.124c-1.831,0-3.522-0.977-4.438-2.563c-0.915-1.584-0.915-3.537,0-5.123L103.866,2.562
		C104.781,0.976,106.471,0,108.302,0c1.831,0,3.521,0.976,4.438,2.562l103.177,178.709c0.916,1.586,0.916,3.539,0,5.123
		C215.001,187.98,213.31,188.957,211.48,188.957 M13.997,178.71h188.609L108.302,15.369L13.997,178.71z"/>
	<polygon fill="#3B3B38" points="49.67,203.986 50.283,207.388 49.976,211.641 47.219,211.498 45.841,210.932 39.254,209.656 
		29.604,209.656 29.144,215.043 28.838,220.145 28.378,234.035 28.532,240.271 28.685,241.973 28.685,246.225 28.838,257.847 
		28.378,264.509 27.306,265.358 27.459,265.358 28.225,268.052 29.144,270.604 29.451,298.809 31.442,307.029 29.297,308.306 
		25.621,308.73 21.179,308.164 21.179,300.51 23.017,289.88 22.558,288.888 22.098,287.754 22.864,267.484 23.783,236.16 
		22.711,228.791 23.477,220.003 22.864,216.459 22.251,212.774 22.251,209.798 13.98,209.798 11.989,210.365 10.763,210.507 
		3.564,211.783 1.573,211.074 2.645,203.562 15.205,204.129 18.575,204.27 20.413,204.554 22.251,204.554 29.451,204.412 
		37.263,204.129 	"/>
	<polygon fill="#3B3B38" points="66.058,241.547 65.445,207.672 64.986,203.703 67.743,202.994 73.87,204.129 73.41,211.357 
		72.644,215.468 72.185,235.311 71.725,242.964 72.338,249.91 72.644,254.02 72.798,256.713 72.951,257.422 72.951,299.518 
		73.257,302.494 73.87,305.329 73.563,307.738 70.194,308.589 67.283,308.447 64.832,308.306 66.211,299.234 66.211,259.548 
		66.671,254.729 67.283,246.083 	"/>
	<polygon fill="#3B3B38" points="118.75,228.082 119.209,228.507 120.74,231.625 121.353,233.186 122.119,234.46 122.731,233.186 
		123.651,231.768 128.094,225.531 133.147,217.452 134.22,214.759 134.833,214.475 134.68,214.475 138.05,208.947 141.572,203.277 
		145.861,203.42 147.547,204.695 146.475,224.113 145.708,228.225 146.32,230.35 148.006,297.534 148.313,302.777 148.771,308.447 
		140.653,308.73 139.734,307.88 140.04,304.195 141.113,293.99 141.113,275.989 141.879,273.863 141.419,272.871 140.348,265.643 
		141.419,232.618 140.96,223.83 140.807,215.609 140.5,215.893 139.121,218.16 134.066,224.964 130.237,230.775 129.013,233.326 
		128.399,234.318 126.715,236.87 126.867,236.87 124.264,241.972 123.191,241.689 119.515,240.98 118.29,236.87 116.451,234.318 
		109.865,223.83 107.721,220.145 106.036,218.16 104.198,215.893 104.044,216.034 104.658,221.279 104.658,224.964 104.81,226.098 
		104.351,237.152 103.738,238.712 104.504,239.421 104.504,258.557 103.432,265.501 104.81,283.643 106.188,305.896 
		105.883,308.306 97.305,308.589 96.845,306.463 97.764,301.077 97.917,296.825 98.07,296.116 99.295,294.982 98.224,294.699 
		98.07,290.445 98.99,230.066 98.376,222.838 97.764,216.176 98.529,213.341 97.917,211.215 97.305,208.947 97.151,204.554 
		102.053,203.703 103.432,203.42 110.019,214.191 	"/>
	<polygon fill="#3B3B38" points="202.381,211.215 197.786,210.081 195.335,210.365 185.838,209.656 184,209.656 182.161,209.514 
		178.792,210.081 179.098,211.357 179.558,212.633 179.711,215.184 179.403,219.152 179.098,233.184 178.025,234.885 
		178.179,243.106 178.792,252.887 189.514,253.028 197.173,252.178 201.462,252.035 202.688,253.169 201.922,256.288 
		201.462,259.122 197.325,258.839 182.773,258.13 179.403,257.988 178.332,277.406 179.403,281.659 178.484,284.493 
		179.251,285.202 179.558,300.368 179.711,301.928 184.611,302.919 187.063,302.919 200.543,301.928 204.678,301.219 
		208.049,301.645 207.436,307.738 206.363,308.731 197.479,308.589 187.829,307.738 180.322,307.738 179.098,308.447 
		171.593,308.305 170.979,305.612 171.593,300.227 171.898,294.133 172.205,287.753 172.817,284.493 172.665,277.548 
		172.512,270.178 173.584,268.053 172.971,267.627 171.898,253.169 172.358,247.643 172.358,236.02 172.512,224.255 
		172.358,215.184 173.124,212.35 172.358,211.924 171.898,204.555 175.728,204.128 184.152,204.128 186.757,204.555 
		195.335,204.128 205.598,203.986 205.751,206.538 205.291,211.215 	"/>
</g>
</svg>
