<?xml version="1.0" encoding="utf-8"?>
<!-- Generator: Adobe Illustrator 21.0.0, SVG Export Plug-In . SVG Version: 6.00 Build 0)  -->
<svg version="1.1" id="Layer_1" xmlns="http://www.w3.org/2000/svg" xmlns:xlink="http://www.w3.org/1999/xlink" x="0px" y="0px"
	 viewBox="0 0 304.5 339" style="enable-background:new 0 0 304.5 339;" xml:space="preserve">
<style type="text/css">
	.st0{fill:#1C1B1C;}
</style>
<path class="st0" d="M64.9,338.6c10.4-0.6,20.7-1.9,31.1-2.7c21.5-1.6,42.9-3.7,64.3-5.4c21.4-1.7,42.9-3,64.5-3
	c19.7-0.1,39.5,1.2,59.2-0.1c4.9-0.3,10.1-0.6,12.2-3.8c1.3-1.8,0.5-4.6,0.6-6.6c0.3-3.7,0.3-7.4,0.2-11.1
	c-0.2-13.6-0.4-27,0.5-40.5c0.9-13.8,1.3-27.5,0.5-41.3c-0.9-13.6-0.8-27.2-1.9-40.8c-1.1-14.1-6.1-28-5.5-42.2
	c0.3-7.2-2.2-14.3-2.2-21.4c0-7.5,0-15.1,0-22.6c-0.1-15.2-0.6-30.3,1.3-45.5c0.9-7.5,2.2-15.1,3-22.6c0.4-3.6,0.7-7.2,1.2-10.7
	c0.4-3.1,1.8-6,1.5-9.2c0-0.4-0.3-0.7-0.7-1c2.7,0.3,5.2,0.8,7.4,1.8c1.4,0.6,3.1-0.8,1.8-1.5c-7.4-3.7-19.2-3.2-28.1-3.2
	c-13.8,0.1-27.6-1.1-41.4-1.5c-28.5-0.9-57-1.1-85.5-1.9C121.8,1,94.5,0.4,67.2,0C55.8-0.1,44.9,0.6,33.7,1.8
	c-3.8,0.4-8.3,0.6-12.5,1.3C13.1,0.9,9.1,9.5,6.9,13.7C1.3,24.2,0,35.4,0,46.4C-0.1,73,2.9,99.9,6.5,126.4
	c3.7,27.4,8,54.9,12.6,82.3c4.6,27.4,4.1,54.6,3.9,82.2c0,4.3,0.1,8.5,0.4,12.7c0.2,4.2-1,8.1-2.1,12.2c-1.1,4.4-2.2,10.7,3.4,14.1
	c1.3,0.8,3.3,0.8,4.5,0c0.5-0.3,0.9-0.6,1.4-0.9c1.9-1.3,0.1-3.4-2.3-3.3c-2.1-3.8-0.3-9,0.9-12.5c2.2-6.2,0.7-12.7,0.8-19
	c0-13.6,0.4-27.3,0.3-40.9c-0.2-27.6-6-55-10.3-82.4c-4.3-27.4-8.8-54.8-11.2-82.3c-1.1-13-2.1-26.1-2.6-39.1
	c-0.5-11.7,0.5-23.5,5.9-34.8c0.8-1.6,1.6-3.2,2.6-4.7c0.7,0,1.5-0.2,2.2-0.6c4.7-3,14.5-2.8,20.7-3.6c12.2-1.6,24.4-1.5,36.8-1.3
	c24.9,0.4,49.7,0.6,74.6,1.2c25.9,0.6,51.8,0.7,77.7,1.1c13,0.2,25.9,0.9,38.8,1.1c6.1,0.1,12.2-0.1,18.3-0.1c2.4,0,5,0,7.7,0.1
	c-0.6,0.2-1,0.7-0.9,1.2c0.1,2.6-1.2,5.1-1.8,7.7c-0.6,3.1-1,6.1-1.4,9.2c-0.8,6.9-2,13.9-3.1,20.8c-2.2,13.6-2.5,27.1-2.6,40.7
	c0,13.3-1.4,26.9,0,40.2c0.7,6.3,2,12.1,1.7,18.5c-0.4,6.7,2,13.3,3.2,19.9c2.4,13.4,2.5,26.6,3.1,40.1c0.7,13.8,2.1,27.5,1.7,41.3
	c-0.4,13.7-2,27.5-2.1,41.2c0,6.4,0.4,12.7,0.5,19.1c0.1,3.2,0,6.3-0.2,9.5c-0.1,1.5-0.3,2.9-0.2,4.4c0.1,1.3-4.1,1.1-5.3,1.2
	c-19.6,1.1-39.5,0-59.2-0.1c-21.6-0.1-43.1,1.3-64.5,3c-21.5,1.7-42.9,3.8-64.3,5.5c-9.6,0.8-19.2,1.8-28.8,2.6
	c-10.9,0.9-21.9,0.5-32.8,0.5c-5.1,0-5.1,5,0,5C44.7,339,54.8,339.3,64.9,338.6z"/>
</svg>
