<?xml version="1.0" encoding="utf-8"?>
<!-- Generator: Adobe Illustrator 21.0.0, SVG Export Plug-In . SVG Version: 6.00 Build 0)  -->
<svg version="1.1" id="Layer_1" xmlns="http://www.w3.org/2000/svg" xmlns:xlink="http://www.w3.org/1999/xlink" x="0px" y="0px"
	 viewBox="0 0 389.9 542.3" style="enable-background:new 0 0 389.9 542.3;" xml:space="preserve">
<style type="text/css">
	.st0{fill:#C399C3;}
	.st1{fill:#1C1B1C;}
	.st2{fill-rule:evenodd;clip-rule:evenodd;fill:#FFFFFF;}
	.st3{fill-rule:evenodd;clip-rule:evenodd;fill:none;}
	.st4{fill-rule:evenodd;clip-rule:evenodd;fill:#FEFEFE;}
	.st5{fill:#06090E;}
	.st6{fill-rule:evenodd;clip-rule:evenodd;fill:#EBEBEB;}
	.st7{fill-rule:evenodd;clip-rule:evenodd;fill:#989898;}
	.st8{fill-rule:evenodd;clip-rule:evenodd;fill:#C3C4C4;}
</style>
<g>
	<path class="st0" d="M347.7,535.5H33.1c-15.6,0-28.3-12.8-28.3-28.3V35.3C4.8,19.7,17.5,7,33.1,7h314.6C363.2,7,376,19.7,376,35.3
		v471.8C376,522.7,363.2,535.5,347.7,535.5z"/>
	<path class="st1" d="M83.2,541.6c13.4-1,26.6-3.1,39.9-4.4c27.5-2.6,54.9-6,82.4-8.7c27.4-2.7,55-4.8,82.6-4.8
		c25.2-0.1,50.6,1.9,75.8-0.1c6.2-0.5,12.9-1,15.7-6c1.6-2.9,0.6-7.4,0.8-10.5c0.4-5.9,0.3-11.9,0.2-17.8
		c-0.3-21.7-0.5-43.2,0.6-64.9c1.2-22,1.7-43.9,0.6-66c-1.1-21.7-1.1-43.6-2.5-65.3c-1.4-22.6-7.8-44.8-7-67.5
		c0.4-11.5-2.8-22.8-2.8-34.3c0-12.1,0-24.1,0-36.2c-0.1-24.3-0.7-48.5,1.7-72.8c1.2-12.1,2.8-24.1,3.8-36.2
		c0.5-5.7,0.9-11.5,1.5-17.2c0.6-5,2.4-9.7,1.9-14.7c-0.1-0.7-0.4-1.2-0.8-1.6c3.4,0.5,6.7,1.3,9.4,2.9c1.8,1,4-1.3,2.3-2.4
		c-9.5-5.9-24.6-5.1-35.9-5.1c-17.7,0.1-35.4-1.8-53.1-2.5c-36.5-1.5-73-1.7-109.5-3C155.9,1.6,121,0.7,86.1,0
		C71.5-0.2,57.5,0.9,43.1,2.8c-4.9,0.7-10.7,1-16,2.1C16.8,1.5,11.6,15.2,8.8,21.9C1.6,38.7,0,56.6,0,74.2
		c-0.1,42.6,3.7,85.6,8.3,128.1C13,246.1,18.5,290,24.4,333.8c5.9,43.8,5.2,87.4,5,131.4c0,6.8,0.2,13.6,0.5,20.4
		c0.3,6.8-1.3,12.9-2.7,19.5c-1.5,7.1-2.8,17.1,4.4,22.5c1.6,1.2,4.2,1.3,5.8,0c0.6-0.5,1.2-1,1.8-1.5c2.5-2,0.1-5.5-2.9-5.3
		c-2.6-6-0.4-14.5,1.2-20c2.8-9.9,1-20.3,1-30.4c0-21.8,0.5-43.6,0.3-65.4c-0.3-44.1-7.7-88-13.2-131.8
		c-5.5-43.8-11.3-87.6-14.3-131.6C10,120.8,8.8,99.9,8,79.1c-0.7-18.8,0.6-37.7,7.5-55.7c1-2.6,2.1-5.1,3.4-7.5c0.9,0,1.9-0.3,2.8-1
		c6-4.9,18.5-4.5,26.5-5.7c15.6-2.5,31.3-2.5,47.1-2.1c31.8,0.7,63.7,1,95.5,1.9c33.2,1,66.3,1.1,99.5,1.8
		c16.6,0.4,33.1,1.4,49.7,1.7c7.8,0.2,15.6-0.2,23.4-0.1c3.1,0,6.5,0,9.8,0.2c-0.7,0.4-1.2,1.1-1.2,2c0.1,4.2-1.6,8.1-2.2,12.3
		c-0.8,4.9-1.3,9.8-1.8,14.7c-1.1,11.1-2.6,22.2-4,33.2c-2.8,21.7-3.2,43.3-3.3,65.1c-0.1,21.3-1.7,43.1,0,64.3
		c0.8,10,2.6,19.4,2.2,29.5c-0.4,10.7,2.6,21.3,4.1,31.8c3.1,21.4,3.2,42.6,4,64.1c0.9,22,2.7,44,2.2,66c-0.6,22-2.5,43.9-2.6,65.9
		c0,10.2,0.5,20.3,0.6,30.5c0.1,5.1,0,10.2-0.3,15.2c-0.1,2.3-0.4,4.6-0.3,7c0.1,2-5.3,1.8-6.8,1.9c-25.2,1.8-50.6,0-75.8-0.2
		c-27.6-0.1-55.2,2.1-82.6,4.8c-27.5,2.7-54.9,6-82.4,8.7c-12.3,1.2-24.5,2.9-36.8,4.1c-14,1.4-28,0.8-42.1,0.8c-6.5,0-6.5,8,0,8
		C57.2,542.2,70.2,542.6,83.2,541.6z"/>
	<g>
		<path class="st2" d="M231.4,384.8c-3.4,3.8-8.7,8.6-16.2,12c-11.4,5.1-21.8,4.3-29.5,3.6c-4.7-0.4-11.9-1.1-20.5-4.8
			c-6.9-3-11.9-6.8-15-9.6c-7.4-55.4-14.8-110.7-22.3-166.1c18.3,3.1,33.2,3.7,43.3,3.6c10.6-0.1,16.8-0.8,49.9-3.6
			c12.7-1.1,23-1.9,29.5-2.4c-6,51.9-12,103.9-18,155.8C232.2,377.1,231.8,380.9,231.4,384.8z"/>
		<path class="st3" d="M190.5,400.3c-15.2-0.2-29.7-3.3-41.6-15.8l-20.6-162.2h124.3l-20.6,162.2
			C220.2,397.1,205.7,400.1,190.5,400.3L190.5,400.3z"/>
		<path class="st4" d="M112.4,196.2l156.4,0.4v13.5c0,10.3-35,18.7-78.2,18.7c-43.2,0-78.2-8.4-78.2-18.7V196.2z"/>
		<path class="st5" d="M190.6,230.4c-38.6,0-79.7-7.1-79.7-20.2l0-0.1l1.4-13.9l2.9,0.3l-1.4,13.8c0.2,8.1,31.6,17.2,76.7,17.2
			c45.1,0,76.6-9.1,76.7-17.2l-1.3-13.5l2.9-0.3l1.3,13.7C270.3,223.3,229.3,230.4,190.6,230.4z"/>
		<g>
			<path class="st6" d="M190.6,178.2c42.5,0,76.9,8.3,76.9,18.4c0,10.2-34.4,18.4-76.9,18.4c-42.5,0-76.9-8.3-76.9-18.4
				C113.7,186.4,148.2,178.2,190.6,178.2L190.6,178.2z"/>
			<path class="st5" d="M190.6,216.5c-38,0-78.4-7-78.4-19.9s40.4-19.9,78.4-19.9c38,0,78.4,7,78.4,19.9S228.6,216.5,190.6,216.5z
				 M190.6,179.6c-44.5,0-75.5,8.9-75.5,17c0,8,31,17,75.5,17c44.4,0,75.4-8.9,75.4-17C266.1,188.6,235.1,179.6,190.6,179.6z"/>
		</g>
		<g>
			<path class="st7" d="M126.6,194.5l8-18.5h111.9l8,18.5c0,7-28.6,12.7-63.9,12.7S126.6,201.5,126.6,194.5L126.6,194.5z"/>
			<path class="st5" d="M190.5,207.4c-17.1,0-33.1-1.3-45.2-3.7c-12.1-2.4-18.8-5.7-18.8-9.1l0,0l8-18.6h112l0,0.1l8,18.5
				c0,3.5-6.7,6.7-18.8,9.1C223.6,206,207.6,207.4,190.5,207.4z M126.7,194.5c0.1,7,28.7,12.6,63.8,12.6s63.7-5.7,63.8-12.6
				l-7.9-18.4H134.6L126.7,194.5z"/>
		</g>
		<g>
			<path class="st6" d="M190.5,188.2c30.9,0,56.1-5,56.1-11.2c0-6.2-25.2-11.2-56.1-11.2c-30.9,0-56.1,5-56.1,11.2
				C134.4,183.2,159.6,188.2,190.5,188.2L190.5,188.2z"/>
			<path class="st5" d="M190.5,189.7c-23.2,0-57.6-3.4-57.6-12.7c0-9.3,34.4-12.7,57.6-12.7c23.2,0,57.6,3.4,57.6,12.7
				C248.1,186.3,213.7,189.7,190.5,189.7z M190.5,167.3c-14.9,0-28.8,1.2-39.4,3.3c-12.1,2.4-15.3,5.2-15.3,6.5
				c0,1.3,3.2,4.1,15.3,6.5c10.5,2.1,24.5,3.3,39.4,3.3c14.9,0,28.9-1.2,39.4-3.3c12.1-2.4,15.3-5.2,15.3-6.5
				c0-1.3-3.2-4.1-15.3-6.5C219.3,168.4,205.4,167.3,190.5,167.3z"/>
		</g>
		<g>
			<path class="st8" d="M190.5,183.8c22,0,39.9-3.1,39.9-6.8c0-3.7-17.9-6.8-39.9-6.8s-39.9,3.1-39.9,6.8
				C150.6,180.7,168.5,183.8,190.5,183.8L190.5,183.8z"/>
			<path class="st5" d="M190.5,185.3c-1.7,0-41.3-0.1-41.3-8.3c0-8.2,39.7-8.3,41.3-8.3c1.7,0,41.3,0.1,41.3,8.3
				C231.8,185.2,192.2,185.3,190.5,185.3z M152.1,177c1.1,2,14.6,5.3,38.4,5.3c23.8,0,37.2-3.4,38.4-5.3c-1.2-2-14.7-5.3-38.4-5.3
				C166.8,171.6,153.3,175,152.1,177z"/>
		</g>
		<path class="st5" d="M190.5,208.7c-32.5,0-65.4-4.9-65.4-14.2h1.5l-1.3-0.6l8-18.5l2.7,1.2l-7.8,18.2c0.4,1.9,5.1,4.9,17.5,7.3
			c12,2.4,27.9,3.7,44.9,3.7c17,0,32.9-1.3,44.9-3.7c12.4-2.5,17.1-5.4,17.5-7.3l-7.8-18.2l2.7-1.2l8,18.5l-1.3,0.6h1.5
			C255.9,203.8,223,208.7,190.5,208.7z"/>
		<path class="st5" d="M190.5,401.8l0-1.5L190.5,401.8c-12.9-0.2-29.4-2.2-42.7-16.3l-0.3-0.3l-0.1-0.5l-20.6-162.2l2.9-0.4
			l20.5,161.8c12.4,12.9,27.3,14.8,40.2,15c12.9-0.2,27.8-2.2,40.2-15l20.5-161.8l2.9,0.4l-20.6,162.7l-0.3,0.3
			C219.9,399.6,203.4,401.6,190.5,401.8z"/>
		<path class="st3" d="M194,263.6l34.1,34.1c1.9,1.9,1.9,5.1,0,7.1L194,338.9c-1.9,1.9-5.1,1.9-7.1,0l-34.1-34.1
			c-1.9-2-1.9-5.1,0-7.1l34.1-34.1C188.9,261.7,192.1,261.7,194,263.6L194,263.6z"/>
		
			<rect x="193.7" y="167.8" transform="matrix(0.7079 -0.7063 0.7063 0.7079 -68.0151 189.5311)" class="st5" width="2.9" height="18.4"/>
		<g>
			<g>
				<path d="M245.4,231.8c-0.3,11.8-0.5,23.6-0.8,35.3c0,0.8,1.3,0.8,1.3,0c0.3-11.8,0.5-23.6,0.8-35.3
					C246.7,230.9,245.4,230.9,245.4,231.8L245.4,231.8z"/>
			</g>
		</g>
		<g>
			<g>
				<path d="M242,231.1c0.2,10.2,0.4,20.4,0.6,30.7c0,0.8,1.3,0.8,1.3,0c-0.2-10.2-0.4-20.4-0.6-30.7
					C243.2,230.3,242,230.3,242,231.1L242,231.1z"/>
			</g>
		</g>
		<g>
			<g>
				<path d="M131.7,227.8c0.8,6.2,1.5,12.4,2.3,18.6c0.1,0.8,1.4,0.8,1.3,0c-0.8-6.2-1.5-12.4-2.3-18.6
					C132.9,227,131.6,227,131.7,227.8L131.7,227.8z"/>
			</g>
		</g>
		<g>
			<g>
				<path d="M122.1,175.1c-9.3,6.3-15.4,16.2-16.8,27.4c-0.1,0.8,1.2,0.8,1.3,0c1.3-10.7,7.2-20.3,16.1-26.3
					C123.4,175.7,122.7,174.6,122.1,175.1L122.1,175.1z"/>
			</g>
		</g>
		<g>
			<g>
				<path d="M117.8,171.1c-9.4,9.1-15.3,21-16.9,34c-0.1,0.8,1.2,0.8,1.3,0c1.6-12.6,7.5-24.2,16.6-33.1
					C119.3,171.4,118.4,170.5,117.8,171.1L117.8,171.1z"/>
			</g>
		</g>
		<g>
			<g>
				<path d="M148.7,353.1c0.2,4.6,0.4,9.2,0.5,13.8c0.2,4.2-0.2,8.7,0.9,12.8c1.7,6.2,7.8,9.5,13.2,12.1c0.7,0.4,1.4-0.7,0.6-1.1
					c-6.4-3.1-12.5-6.7-13.1-14.5c-0.6-7.6-0.6-15.4-0.9-23.1C149.9,352.3,148.7,352.2,148.7,353.1L148.7,353.1z"/>
			</g>
		</g>
		<g>
			<g>
				<path d="M153.2,361.1c-0.3,6.5-0.2,12.9,0.3,19.4c0.1,0.8,1.3,0.8,1.3,0c-0.5-6.4-0.6-12.9-0.3-19.4
					C154.5,360.3,153.3,360.3,153.2,361.1L153.2,361.1z"/>
			</g>
		</g>
		<g>
			<g>
				<path d="M239.1,373.8c0.1,4.4,0.2,8.8-0.6,13.1c-0.4,2-1,4.1-1.9,5.9c-0.6,1.3-3.9,7-5.7,5.2c-0.6-0.6-1.5,0.3-0.9,0.9
					c3.1,3.2,7.2-4.3,8.1-6.5c2.5-5.8,2.4-12.5,2.2-18.7C240.3,372.9,239,372.9,239.1,373.8L239.1,373.8z"/>
			</g>
		</g>
		<g>
			<g>
				<path d="M242.6,364.4c0.2,6,0.4,12,0.5,18c0.2,5.1,0.6,10.9-3.2,14.8c-0.6,0.6,0.3,1.5,0.9,0.9c3.3-3.4,3.7-8,3.7-12.5
					c-0.1-7.1-0.4-14.1-0.6-21.2C243.8,363.6,242.5,363.6,242.6,364.4L242.6,364.4z"/>
			</g>
		</g>
		<g>
			<g>
				<path class="st1" d="M152.7,240.9c-0.8-1.4-2.3-2-3.8-2c-1.7-0.1-3.6,0.5-5.1,1.3c-1.4,0.7-2.7,1.7-3.3,3.2
					c-0.7,1.5-0.7,3.3-0.1,4.9c0.5,1.3,1.4,2.4,2.5,3.3c1.3,1,2.8,1.5,4.4,2c0.8,0.3,1.6,0.5,2.3,0.9c0.8,0.3,1.5,0.8,2.2,1.2
					c1.4,1,2.7,2.1,3.9,3.3c0.1,0.1,0.2,0.1,0.3,0c0.7-1.6,1.7-3.1,3-4.4c1.1-1.2,2.5-2.2,3.8-3.2c1.2-0.9,2.3-1.8,3.2-3.1
					c0.8-1.2,1.1-2.7,0.9-4.1c-0.4-3-2.7-5.6-5.6-6.4c-1.6-0.5-3.3-0.1-4.7,0.9c-1.4,1.1-2.3,2.6-3.2,4.1c-0.1,0.2-0.2,0.3-0.3,0.5
					c-0.1,0.2,0.2,0.3,0.3,0.2c0.9-1.6,1.7-3.3,3.2-4.4c0.7-0.6,1.5-1,2.3-1.1c0.9-0.2,1.9,0,2.7,0.3c2.8,1.1,5.1,4.1,4.8,7.2
					c-0.2,2.9-2.8,4.7-5,6.3c-1.2,0.9-2.3,1.8-3.3,3c-1,1.2-1.9,2.6-2.6,4c0.1,0,0.2,0,0.3,0c-1.3-1.2-2.7-2.4-4.2-3.4
					c-1.5-1-3.2-1.6-4.9-2.2c-1.7-0.6-3.3-1.2-4.6-2.5c-1.2-1.2-2-2.9-2-4.7c0-1.4,0.5-2.7,1.5-3.7c0.9-1,2-1.6,3.2-2.1
					c2.4-1,6-1.6,7.6,1.1C152.6,241.2,152.8,241,152.7,240.9L152.7,240.9z"/>
			</g>
			<g>
				<path class="st1" d="M153.1,242.2c-1.5-2.5-4.4-4.1-7.3-3.7c-2.7,0.3-4.9,2.6-5.3,5.3c-0.2,1.4,0.1,2.7,0.9,3.9
					c0.9,1.3,2.3,2.3,3.6,3.1c2.6,1.5,5.5,2.5,8,4.3c1.1,0.8,2.1,1.7,2.9,2.8c0.1,0.2,0.4,0,0.3-0.2c-1.7-2.5-4.4-3.9-7.1-5.2
					c-1.4-0.7-2.8-1.3-4.1-2.1c-1.4-0.8-2.8-1.9-3.7-3.3c-1.5-2.5-0.3-5.9,2.1-7.4c2.6-1.7,6.1-0.9,8.2,1.2c0.5,0.4,0.9,0.9,1.2,1.5
					C153,242.5,153.2,242.4,153.1,242.2L153.1,242.2z"/>
			</g>
			<g>
				<path class="st1" d="M155.7,257.4c-0.4-0.9,0.5-1.9,1.1-2.5c0.6-0.7,1.3-1.4,1.9-2.2c1.2-1.4,2.5-2.7,3.4-4.3
					c0.9-1.4,1.5-3.1,1.5-4.8c0-1.4-0.4-2.9-1.3-4c-0.9-1.2-2.5-2.1-4-1.7c-1.4,0.3-2.3,1.8-2.7,3c0,0.1,0.1,0.2,0.2,0.1
					c0.4-0.7,0.7-1.4,1.2-2c0.6-0.6,1.3-1,2.2-0.9c1.6,0.1,2.9,1.5,3.5,2.9c1.5,3.3-0.4,6.9-2.5,9.5c-1,1.2-2.1,2.4-3.1,3.6
					c-0.5,0.5-0.9,1.1-1.3,1.7c-0.3,0.5-0.5,1.1-0.3,1.7C155.6,257.6,155.8,257.5,155.7,257.4L155.7,257.4z"/>
			</g>
			<path class="st1" d="M163.4,238.8c-0.6-0.8-1.5-1.3-2.5-1.6c-1.2-0.3-2.4,0-3.4,0.5c-0.7,0.3-1.3,0.8-1.8,1.4
				c-0.6,0.6-1.2,1.2-1.7,1.9c-0.1,0.1,0,0.2,0.1,0.2c-0.3,0.4-0.6,0.8-0.9,1.1c-0.1,0.1,0.1,0.3,0.2,0.2c0.4-0.4,0.7-0.9,1.2-1.4
				c0.5-0.5,1-0.9,1.6-1.3c0.5-0.4,1-0.7,1.7-0.9c0.7-0.2,1.4-0.1,2.1,0.1c2.4,0.5,3.5,3.3,3.5,5.5c0,1.3-0.3,2.6-0.9,3.7
				c-0.1,0.3-0.3,0.5-0.4,0.8c-0.3,0.3-0.6,0.6-1,0.9c-1,0.8-1.9,1.7-2.7,2.7c-0.8,1-1.6,2-2.2,3.1c-0.2,0.4-0.5,0.9-0.4,1.4
				c0,0.1,0.1,0.2,0.2,0.2c0.6,0.1,0.8-0.9,1-1.3c0.3-1,0.9-2,1.7-2.8c0.4-0.4,1-0.8,1.4-1.2c0.5-0.4,0.9-0.9,1.3-1.4
				c0.4-0.5,0.7-0.9,1.1-1.4c0.3-0.3,0.6-0.6,0.9-1c0.7-0.9,1.4-1.9,1.8-3C166.1,243.1,164.7,240.5,163.4,238.8z M163.9,246.9
				c-0.2,0.3-0.4,0.5-0.5,0.8c0.8-2.1,0.8-4.6-0.3-6.6c-1.1-1.9-3.1-2.9-5.3-2.5c-0.9,0.2-1.7,0.9-2.4,1.5c-0.2,0.2-0.5,0.4-0.7,0.6
				c0.3-0.3,0.6-0.6,0.9-0.9c0.5-0.5,1-1,1.5-1.4c1.2-0.8,2.5-1.2,3.9-0.8c1.1,0.3,1.9,1.2,2.6,2.1c0.7,1.1,1.3,2.2,1.5,3.5
				C165.2,244.6,164.7,245.8,163.9,246.9z"/>
			<path class="st1" d="M155.7,258.3c-0.2-0.5-0.5-0.9-0.8-1.4c-0.3-0.5-0.7-0.9-1.2-1.3c-0.9-0.8-2-1.3-3.1-1.8
				c-1.1-0.5-2.2-0.9-3.4-1.2c-0.6-0.2-1.2-0.5-1.8-0.7c-0.6-0.3-1.2-0.5-1.8-0.9c-1-0.6-2-1.7-2.5-2.8c-0.6-1.3-0.3-2.6-0.1-4
				c0.5-2.1,1.4-4.9,3.5-5.9c1.4-0.7,3.1-0.3,4.5,0.2c0.7,0.2,1.5,0.5,2.2,0.9c0.3,0.2,0.6,0.5,0.9,0.7c0.5,0.4,0.4,0.8,0.5,1.3
				c0,0.2,0.3,0.2,0.3,0c0-0.5,0.1-1-0.2-1.3c-0.4-0.4-0.8-0.7-1.2-1c-0.9-0.6-2-0.9-3-1.2c-1-0.3-2.1-0.4-3.2-0.2
				c-1,0.2-1.9,0.9-2.6,1.7c-0.7,0.8-1.1,1.8-1.4,2.8c-0.4,1.2-0.8,2.4-0.9,3.7c-0.3,2.3,1.3,4.4,3.2,5.6c0.5,0.3,1,0.5,1.5,0.8
				c0.5,0.2,1,0.5,1.6,0.7c0.5,0.2,1.1,0.3,1.6,0.4c0.6,0.2,1.2,0.4,1.7,0.7c1.1,0.4,2.1,1,3,1.6c0.5,0.4,1,0.8,1.3,1.3
				c0.2,0.2,0.3,0.5,0.5,0.7c0.1,0.2,0.3,0.4,0.4,0.5c-0.3,0-0.3,0.4,0,0.5c0.2,0,0.4,0,0.6-0.2
				C155.7,258.5,155.7,258.4,155.7,258.3z"/>
		</g>
		<g>
			<g>
				<path class="st1" d="M176.7,259.9c-0.8-1.4-2.3-2-3.8-2c-1.7-0.1-3.6,0.5-5.1,1.3c-1.4,0.7-2.7,1.7-3.3,3.2
					c-0.7,1.5-0.7,3.3-0.1,4.9c0.5,1.3,1.4,2.4,2.5,3.3c1.3,1,2.8,1.5,4.4,2c0.8,0.3,1.6,0.5,2.3,0.9c0.8,0.3,1.5,0.8,2.2,1.2
					c1.4,1,2.7,2.1,3.9,3.3c0.1,0.1,0.2,0.1,0.3,0c0.7-1.6,1.7-3.1,3-4.4c1.1-1.2,2.5-2.2,3.8-3.2c1.2-0.9,2.3-1.8,3.2-3.1
					c0.8-1.2,1.1-2.7,0.9-4.1c-0.4-3-2.7-5.6-5.6-6.4c-1.6-0.5-3.3-0.1-4.7,0.9c-1.4,1.1-2.3,2.6-3.2,4.1c-0.1,0.2-0.2,0.3-0.3,0.5
					c-0.1,0.2,0.2,0.3,0.3,0.2c0.9-1.6,1.7-3.3,3.2-4.4c0.7-0.6,1.5-1,2.3-1.1c0.9-0.2,1.9,0,2.7,0.3c2.8,1.1,5.1,4.1,4.8,7.2
					c-0.2,2.9-2.8,4.7-5,6.3c-1.2,0.9-2.3,1.8-3.3,3c-1,1.2-1.9,2.6-2.6,4c0.1,0,0.2,0,0.3,0c-1.3-1.2-2.7-2.4-4.2-3.4
					c-1.5-1-3.2-1.6-4.9-2.2c-1.7-0.6-3.3-1.2-4.6-2.5c-1.2-1.2-2-2.9-2-4.7c0-1.4,0.5-2.7,1.5-3.7c0.9-1,2-1.6,3.2-2.1
					c2.4-1,6-1.6,7.6,1.1C176.6,260.2,176.8,260,176.7,259.9L176.7,259.9z"/>
			</g>
			<g>
				<path class="st1" d="M177.1,261.2c-1.5-2.5-4.4-4.1-7.3-3.7c-2.7,0.3-4.9,2.6-5.3,5.3c-0.2,1.4,0.1,2.7,0.9,3.9
					c0.9,1.3,2.3,2.3,3.6,3.1c2.6,1.5,5.5,2.5,8,4.3c1.1,0.8,2.1,1.7,2.9,2.8c0.1,0.2,0.4,0,0.3-0.2c-1.7-2.5-4.4-3.9-7.1-5.2
					c-1.4-0.7-2.8-1.3-4.1-2.1c-1.4-0.8-2.8-1.9-3.7-3.3c-1.5-2.5-0.3-5.9,2.1-7.4c2.6-1.7,6.1-0.9,8.2,1.2c0.5,0.4,0.9,0.9,1.2,1.5
					C177,261.5,177.2,261.4,177.1,261.2L177.1,261.2z"/>
			</g>
			<g>
				<path class="st1" d="M179.7,276.4c-0.4-0.9,0.5-1.9,1.1-2.5c0.6-0.7,1.3-1.4,1.9-2.2c1.2-1.4,2.5-2.7,3.4-4.3
					c0.9-1.4,1.5-3.1,1.5-4.8c0-1.4-0.4-2.9-1.3-4c-0.9-1.2-2.5-2.1-4-1.7c-1.4,0.3-2.3,1.8-2.7,3c0,0.1,0.1,0.2,0.2,0.1
					c0.4-0.7,0.7-1.4,1.2-2c0.6-0.6,1.3-1,2.2-0.9c1.6,0.1,2.9,1.5,3.5,2.9c1.5,3.3-0.4,6.9-2.5,9.5c-1,1.2-2.1,2.4-3.1,3.6
					c-0.5,0.5-0.9,1.1-1.3,1.7c-0.3,0.5-0.5,1.1-0.3,1.7C179.6,276.6,179.8,276.5,179.7,276.4L179.7,276.4z"/>
			</g>
			<path class="st1" d="M187.4,257.8c-0.6-0.8-1.5-1.3-2.5-1.6c-1.2-0.3-2.4,0-3.4,0.5c-0.7,0.3-1.3,0.8-1.8,1.4
				c-0.6,0.6-1.2,1.2-1.7,1.9c-0.1,0.1,0,0.2,0.1,0.2c-0.3,0.4-0.6,0.8-0.9,1.1c-0.1,0.1,0.1,0.3,0.2,0.2c0.4-0.4,0.7-0.9,1.2-1.4
				c0.5-0.5,1-0.9,1.6-1.3c0.5-0.4,1-0.7,1.7-0.9c0.7-0.2,1.4-0.1,2.1,0.1c2.4,0.5,3.5,3.3,3.5,5.5c0,1.3-0.3,2.6-0.9,3.7
				c-0.1,0.3-0.3,0.5-0.4,0.8c-0.3,0.3-0.6,0.6-1,0.9c-1,0.8-1.9,1.7-2.7,2.7c-0.8,1-1.6,2-2.2,3.1c-0.2,0.4-0.5,0.9-0.4,1.4
				c0,0.1,0.1,0.2,0.2,0.2c0.6,0.1,0.8-0.9,1-1.3c0.3-1,0.9-2,1.7-2.8c0.4-0.4,1-0.8,1.4-1.2c0.5-0.4,0.9-0.9,1.3-1.4
				c0.4-0.5,0.7-0.9,1.1-1.4c0.3-0.3,0.6-0.6,0.9-1c0.7-0.9,1.4-1.9,1.8-3C190.1,262.1,188.7,259.5,187.4,257.8z M187.9,265.9
				c-0.2,0.3-0.4,0.5-0.5,0.8c0.8-2.1,0.8-4.6-0.3-6.6c-1.1-1.9-3.1-2.9-5.3-2.5c-0.9,0.2-1.7,0.9-2.4,1.5c-0.2,0.2-0.5,0.4-0.7,0.6
				c0.3-0.3,0.6-0.6,0.9-0.9c0.5-0.5,1-1,1.5-1.4c1.2-0.8,2.5-1.2,3.9-0.8c1.1,0.3,1.9,1.2,2.6,2.1c0.7,1.1,1.3,2.2,1.5,3.5
				C189.2,263.6,188.7,264.8,187.9,265.9z"/>
			<path class="st1" d="M179.7,277.3c-0.2-0.5-0.5-0.9-0.8-1.4c-0.3-0.5-0.7-0.9-1.2-1.3c-0.9-0.8-2-1.3-3.1-1.8
				c-1.1-0.5-2.2-0.9-3.4-1.2c-0.6-0.2-1.2-0.5-1.8-0.7c-0.6-0.3-1.2-0.5-1.8-0.9c-1-0.6-2-1.7-2.5-2.8c-0.6-1.3-0.3-2.6-0.1-4
				c0.5-2.1,1.4-4.9,3.5-5.9c1.4-0.7,3.1-0.3,4.5,0.2c0.7,0.2,1.5,0.5,2.2,0.9c0.3,0.2,0.6,0.5,0.9,0.7c0.5,0.4,0.4,0.8,0.5,1.3
				c0,0.2,0.3,0.2,0.3,0c0-0.5,0.1-1-0.2-1.3c-0.4-0.4-0.8-0.7-1.2-1c-0.9-0.6-2-0.9-3-1.2c-1-0.3-2.1-0.4-3.2-0.2
				c-1,0.2-1.9,0.9-2.6,1.7c-0.7,0.8-1.1,1.8-1.4,2.8c-0.4,1.2-0.8,2.4-0.9,3.7c-0.3,2.3,1.3,4.4,3.2,5.6c0.5,0.3,1,0.5,1.5,0.8
				c0.5,0.2,1,0.5,1.6,0.7c0.5,0.2,1.1,0.3,1.6,0.4c0.6,0.2,1.2,0.4,1.7,0.7c1.1,0.4,2.1,1,3,1.6c0.5,0.4,1,0.8,1.3,1.3
				c0.2,0.2,0.3,0.5,0.5,0.7c0.1,0.2,0.3,0.4,0.4,0.5c-0.3,0-0.3,0.4,0,0.5c0.2,0,0.4,0,0.6-0.2
				C179.7,277.5,179.7,277.4,179.7,277.3z"/>
		</g>
		<g>
			<g>
				<path class="st1" d="M196.7,238.9c-0.8-1.4-2.3-2-3.8-2c-1.7-0.1-3.6,0.5-5.1,1.3c-1.4,0.7-2.7,1.7-3.3,3.2
					c-0.7,1.5-0.7,3.3-0.1,4.9c0.5,1.3,1.4,2.4,2.5,3.3c1.3,1,2.8,1.5,4.4,2c0.8,0.3,1.6,0.5,2.3,0.9c0.8,0.3,1.5,0.8,2.2,1.2
					c1.4,1,2.7,2.1,3.9,3.3c0.1,0.1,0.2,0.1,0.3,0c0.7-1.6,1.7-3.1,3-4.4c1.1-1.2,2.5-2.2,3.8-3.2c1.2-0.9,2.3-1.8,3.2-3.1
					c0.8-1.2,1.1-2.7,0.9-4.1c-0.4-3-2.7-5.6-5.6-6.4c-1.6-0.5-3.3-0.1-4.7,0.9c-1.4,1.1-2.3,2.6-3.2,4.1c-0.1,0.2-0.2,0.3-0.3,0.5
					c-0.1,0.2,0.2,0.3,0.3,0.2c0.9-1.6,1.7-3.3,3.2-4.4c0.7-0.6,1.5-1,2.3-1.1c0.9-0.2,1.9,0,2.7,0.3c2.8,1.1,5.1,4.1,4.8,7.2
					c-0.2,2.9-2.8,4.7-5,6.3c-1.2,0.9-2.3,1.8-3.3,3c-1,1.2-1.9,2.6-2.6,4c0.1,0,0.2,0,0.3,0c-1.3-1.2-2.7-2.4-4.2-3.4
					c-1.5-1-3.2-1.6-4.9-2.2c-1.7-0.6-3.3-1.2-4.6-2.5c-1.2-1.2-2-2.9-2-4.7c0-1.4,0.5-2.7,1.5-3.7c0.9-1,2-1.6,3.2-2.1
					c2.4-1,6-1.6,7.6,1.1C196.6,239.2,196.8,239,196.7,238.9L196.7,238.9z"/>
			</g>
			<g>
				<path class="st1" d="M197.1,240.2c-1.5-2.5-4.4-4.1-7.3-3.7c-2.7,0.3-4.9,2.6-5.3,5.3c-0.2,1.4,0.1,2.7,0.9,3.9
					c0.9,1.3,2.3,2.3,3.6,3.1c2.6,1.5,5.5,2.5,8,4.3c1.1,0.8,2.1,1.7,2.9,2.8c0.1,0.2,0.4,0,0.3-0.2c-1.7-2.5-4.4-3.9-7.1-5.2
					c-1.4-0.7-2.8-1.3-4.1-2.1c-1.4-0.8-2.8-1.9-3.7-3.3c-1.5-2.5-0.3-5.9,2.1-7.4c2.6-1.7,6.1-0.9,8.2,1.2c0.5,0.4,0.9,0.9,1.2,1.5
					C197,240.5,197.2,240.4,197.1,240.2L197.1,240.2z"/>
			</g>
			<g>
				<path class="st1" d="M199.7,255.4c-0.4-0.9,0.5-1.9,1.1-2.5c0.6-0.7,1.3-1.4,1.9-2.2c1.2-1.4,2.5-2.7,3.4-4.3
					c0.9-1.4,1.5-3.1,1.5-4.8c0-1.4-0.4-2.9-1.3-4c-0.9-1.2-2.5-2.1-4-1.7c-1.4,0.3-2.3,1.8-2.7,3c0,0.1,0.1,0.2,0.2,0.1
					c0.4-0.7,0.7-1.4,1.2-2c0.6-0.6,1.3-1,2.2-0.9c1.6,0.1,2.9,1.5,3.5,2.9c1.5,3.3-0.4,6.9-2.5,9.5c-1,1.2-2.1,2.4-3.1,3.6
					c-0.5,0.5-0.9,1.1-1.3,1.7c-0.3,0.5-0.5,1.1-0.3,1.7C199.6,255.6,199.8,255.5,199.7,255.4L199.7,255.4z"/>
			</g>
			<path class="st1" d="M207.4,236.8c-0.6-0.8-1.5-1.3-2.5-1.6c-1.2-0.3-2.4,0-3.4,0.5c-0.7,0.3-1.3,0.8-1.8,1.4
				c-0.6,0.6-1.2,1.2-1.7,1.9c-0.1,0.1,0,0.2,0.1,0.2c-0.3,0.4-0.6,0.8-0.9,1.1c-0.1,0.1,0.1,0.3,0.2,0.2c0.4-0.4,0.7-0.9,1.2-1.4
				c0.5-0.5,1-0.9,1.6-1.3c0.5-0.4,1-0.7,1.7-0.9c0.7-0.2,1.4-0.1,2.1,0.1c2.4,0.5,3.5,3.3,3.5,5.5c0,1.3-0.3,2.6-0.9,3.7
				c-0.1,0.3-0.3,0.5-0.4,0.8c-0.3,0.3-0.6,0.6-1,0.9c-1,0.8-1.9,1.7-2.7,2.7c-0.8,1-1.6,2-2.2,3.1c-0.2,0.4-0.5,0.9-0.4,1.4
				c0,0.1,0.1,0.2,0.2,0.2c0.6,0.1,0.8-0.9,1-1.3c0.3-1,0.9-2,1.7-2.8c0.4-0.4,1-0.8,1.4-1.2c0.5-0.4,0.9-0.9,1.3-1.4
				c0.4-0.5,0.7-0.9,1.1-1.4c0.3-0.3,0.6-0.6,0.9-1c0.7-0.9,1.4-1.9,1.8-3C210.1,241.1,208.7,238.5,207.4,236.8z M207.9,244.9
				c-0.2,0.3-0.4,0.5-0.5,0.8c0.8-2.1,0.8-4.6-0.3-6.6c-1.1-1.9-3.1-2.9-5.3-2.5c-0.9,0.2-1.7,0.9-2.4,1.5c-0.2,0.2-0.5,0.4-0.7,0.6
				c0.3-0.3,0.6-0.6,0.9-0.9c0.5-0.5,1-1,1.5-1.4c1.2-0.8,2.5-1.2,3.9-0.8c1.1,0.3,1.9,1.2,2.6,2.1c0.7,1.1,1.3,2.2,1.5,3.5
				C209.2,242.6,208.7,243.8,207.9,244.9z"/>
			<path class="st1" d="M199.7,256.3c-0.2-0.5-0.5-0.9-0.8-1.4c-0.3-0.5-0.7-0.9-1.2-1.3c-0.9-0.8-2-1.3-3.1-1.8
				c-1.1-0.5-2.2-0.9-3.4-1.2c-0.6-0.2-1.2-0.5-1.8-0.7c-0.6-0.3-1.2-0.5-1.8-0.9c-1-0.6-2-1.7-2.5-2.8c-0.6-1.3-0.3-2.6-0.1-4
				c0.5-2.1,1.4-4.9,3.5-5.9c1.4-0.7,3.1-0.3,4.5,0.2c0.7,0.2,1.5,0.5,2.2,0.9c0.3,0.2,0.6,0.5,0.9,0.7c0.5,0.4,0.4,0.8,0.5,1.3
				c0,0.2,0.3,0.2,0.3,0c0-0.5,0.1-1-0.2-1.3c-0.4-0.4-0.8-0.7-1.2-1c-0.9-0.6-2-0.9-3-1.2c-1-0.3-2.1-0.4-3.2-0.2
				c-1,0.2-1.9,0.9-2.6,1.7c-0.7,0.8-1.1,1.8-1.4,2.8c-0.4,1.2-0.8,2.4-0.9,3.7c-0.3,2.3,1.3,4.4,3.2,5.6c0.5,0.3,1,0.5,1.5,0.8
				c0.5,0.2,1,0.5,1.6,0.7c0.5,0.2,1.1,0.3,1.6,0.4c0.6,0.2,1.2,0.4,1.7,0.7c1.1,0.4,2.1,1,3,1.6c0.5,0.4,1,0.8,1.3,1.3
				c0.2,0.2,0.3,0.5,0.5,0.7c0.1,0.2,0.3,0.4,0.4,0.5c-0.3,0-0.3,0.4,0,0.5c0.2,0,0.4,0,0.6-0.2
				C199.7,256.5,199.7,256.4,199.7,256.3z"/>
		</g>
		<g>
			<g>
				<path class="st1" d="M217.7,254.9c-0.8-1.4-2.3-2-3.8-2c-1.7-0.1-3.6,0.5-5.1,1.3c-1.4,0.7-2.7,1.7-3.3,3.2
					c-0.7,1.5-0.7,3.3-0.1,4.9c0.5,1.3,1.4,2.4,2.5,3.3c1.3,1,2.8,1.5,4.4,2c0.8,0.3,1.6,0.5,2.3,0.9c0.8,0.3,1.5,0.8,2.2,1.2
					c1.4,1,2.7,2.1,3.9,3.3c0.1,0.1,0.2,0.1,0.3,0c0.7-1.6,1.7-3.1,3-4.4c1.1-1.2,2.5-2.2,3.8-3.2c1.2-0.9,2.3-1.8,3.2-3.1
					c0.8-1.2,1.1-2.7,0.9-4.1c-0.4-3-2.7-5.6-5.6-6.4c-1.6-0.5-3.3-0.1-4.7,0.9c-1.4,1.1-2.3,2.6-3.2,4.1c-0.1,0.2-0.2,0.3-0.3,0.5
					c-0.1,0.2,0.2,0.3,0.3,0.2c0.9-1.6,1.7-3.3,3.2-4.4c0.7-0.6,1.5-1,2.3-1.1c0.9-0.2,1.9,0,2.7,0.3c2.8,1.1,5.1,4.1,4.8,7.2
					c-0.2,2.9-2.8,4.7-5,6.3c-1.2,0.9-2.3,1.8-3.3,3c-1,1.2-1.9,2.6-2.6,4c0.1,0,0.2,0,0.3,0c-1.3-1.2-2.7-2.4-4.2-3.4
					c-1.5-1-3.2-1.6-4.9-2.2c-1.7-0.6-3.3-1.2-4.6-2.5c-1.2-1.2-2-2.9-2-4.7c0-1.4,0.5-2.7,1.5-3.7c0.9-1,2-1.6,3.2-2.1
					c2.4-1,6-1.6,7.6,1.1C217.6,255.2,217.8,255,217.7,254.9L217.7,254.9z"/>
			</g>
			<g>
				<path class="st1" d="M218.1,256.2c-1.5-2.5-4.4-4.1-7.3-3.7c-2.7,0.3-4.9,2.6-5.3,5.3c-0.2,1.4,0.1,2.7,0.9,3.9
					c0.9,1.3,2.3,2.3,3.6,3.1c2.6,1.5,5.5,2.5,8,4.3c1.1,0.8,2.1,1.7,2.9,2.8c0.1,0.2,0.4,0,0.3-0.2c-1.7-2.5-4.4-3.9-7.1-5.2
					c-1.4-0.7-2.8-1.3-4.1-2.1c-1.4-0.8-2.8-1.9-3.7-3.3c-1.5-2.5-0.3-5.9,2.1-7.4c2.6-1.7,6.1-0.9,8.2,1.2c0.5,0.4,0.9,0.9,1.2,1.5
					C218,256.5,218.2,256.4,218.1,256.2L218.1,256.2z"/>
			</g>
			<g>
				<path class="st1" d="M220.7,271.4c-0.4-0.9,0.5-1.9,1.1-2.5c0.6-0.7,1.3-1.4,1.9-2.2c1.2-1.4,2.5-2.7,3.4-4.3
					c0.9-1.4,1.5-3.1,1.5-4.8c0-1.4-0.4-2.9-1.3-4c-0.9-1.2-2.5-2.1-4-1.7c-1.4,0.3-2.3,1.8-2.7,3c0,0.1,0.1,0.2,0.2,0.1
					c0.4-0.7,0.7-1.4,1.2-2c0.6-0.6,1.3-1,2.2-0.9c1.6,0.1,2.9,1.5,3.5,2.9c1.5,3.3-0.4,6.9-2.5,9.5c-1,1.2-2.1,2.4-3.1,3.6
					c-0.5,0.5-0.9,1.1-1.3,1.7c-0.3,0.5-0.5,1.1-0.3,1.7C220.6,271.6,220.8,271.5,220.7,271.4L220.7,271.4z"/>
			</g>
			<path class="st1" d="M228.4,252.8c-0.6-0.8-1.5-1.3-2.5-1.6c-1.2-0.3-2.4,0-3.4,0.5c-0.7,0.3-1.3,0.8-1.8,1.4
				c-0.6,0.6-1.2,1.2-1.7,1.9c-0.1,0.1,0,0.2,0.1,0.2c-0.3,0.4-0.6,0.8-0.9,1.1c-0.1,0.1,0.1,0.3,0.2,0.2c0.4-0.4,0.7-0.9,1.2-1.4
				c0.5-0.5,1-0.9,1.6-1.3c0.5-0.4,1-0.7,1.7-0.9c0.7-0.2,1.4-0.1,2.1,0.1c2.4,0.5,3.5,3.3,3.5,5.5c0,1.3-0.3,2.6-0.9,3.7
				c-0.1,0.3-0.3,0.5-0.4,0.8c-0.3,0.3-0.6,0.6-1,0.9c-1,0.8-1.9,1.7-2.7,2.7c-0.8,1-1.6,2-2.2,3.1c-0.2,0.4-0.5,0.9-0.4,1.4
				c0,0.1,0.1,0.2,0.2,0.2c0.6,0.1,0.8-0.9,1-1.3c0.3-1,0.9-2,1.7-2.8c0.4-0.4,1-0.8,1.4-1.2c0.5-0.4,0.9-0.9,1.3-1.4
				c0.4-0.5,0.7-0.9,1.1-1.4c0.3-0.3,0.6-0.6,0.9-1c0.7-0.9,1.4-1.9,1.8-3C231.1,257.1,229.7,254.5,228.4,252.8z M228.9,260.9
				c-0.2,0.3-0.4,0.5-0.5,0.8c0.8-2.1,0.8-4.6-0.3-6.6c-1.1-1.9-3.1-2.9-5.3-2.5c-0.9,0.2-1.7,0.9-2.4,1.5c-0.2,0.2-0.5,0.4-0.7,0.6
				c0.3-0.3,0.6-0.6,0.9-0.9c0.5-0.5,1-1,1.5-1.4c1.2-0.8,2.5-1.2,3.9-0.8c1.1,0.3,1.9,1.2,2.6,2.1c0.7,1.1,1.3,2.2,1.5,3.5
				C230.2,258.6,229.7,259.8,228.9,260.9z"/>
			<path class="st1" d="M220.7,272.3c-0.2-0.5-0.5-0.9-0.8-1.4c-0.3-0.5-0.7-0.9-1.2-1.3c-0.9-0.8-2-1.3-3.1-1.8
				c-1.1-0.5-2.2-0.9-3.4-1.2c-0.6-0.2-1.2-0.5-1.8-0.7c-0.6-0.3-1.2-0.5-1.8-0.9c-1-0.6-2-1.7-2.5-2.8c-0.6-1.3-0.3-2.6-0.1-4
				c0.5-2.1,1.4-4.9,3.5-5.9c1.4-0.7,3.1-0.3,4.5,0.2c0.7,0.2,1.5,0.5,2.2,0.9c0.3,0.2,0.6,0.5,0.9,0.7c0.5,0.4,0.4,0.8,0.5,1.3
				c0,0.2,0.3,0.2,0.3,0c0-0.5,0.1-1-0.2-1.3c-0.4-0.4-0.8-0.7-1.2-1c-0.9-0.6-2-0.9-3-1.2c-1-0.3-2.1-0.4-3.2-0.2
				c-1,0.2-1.9,0.9-2.6,1.7c-0.7,0.8-1.1,1.8-1.4,2.8c-0.4,1.2-0.8,2.4-0.9,3.7c-0.3,2.3,1.3,4.4,3.2,5.6c0.5,0.3,1,0.5,1.5,0.8
				c0.5,0.2,1,0.5,1.6,0.7c0.5,0.2,1.1,0.3,1.6,0.4c0.6,0.2,1.2,0.4,1.7,0.7c1.1,0.4,2.1,1,3,1.6c0.5,0.4,1,0.8,1.3,1.3
				c0.2,0.2,0.3,0.5,0.5,0.7c0.1,0.2,0.3,0.4,0.4,0.5c-0.3,0-0.3,0.4,0,0.5c0.2,0,0.4,0,0.6-0.2
				C220.7,272.5,220.7,272.4,220.7,272.3z"/>
		</g>
		<g>
			<g>
				<path class="st1" d="M151.7,275.9c-0.8-1.4-2.3-2-3.8-2c-1.7-0.1-3.6,0.5-5.1,1.3c-1.4,0.7-2.7,1.7-3.3,3.2
					c-0.7,1.5-0.7,3.3-0.1,4.9c0.5,1.3,1.4,2.4,2.5,3.3c1.3,1,2.8,1.5,4.4,2c0.8,0.3,1.6,0.5,2.3,0.9c0.8,0.3,1.5,0.8,2.2,1.2
					c1.4,1,2.7,2.1,3.9,3.3c0.1,0.1,0.2,0.1,0.3,0c0.7-1.6,1.7-3.1,3-4.4c1.1-1.2,2.5-2.2,3.8-3.2c1.2-0.9,2.3-1.8,3.2-3.1
					c0.8-1.2,1.1-2.7,0.9-4.1c-0.4-3-2.7-5.6-5.6-6.4c-1.6-0.5-3.3-0.1-4.7,0.9c-1.4,1.1-2.3,2.6-3.2,4.1c-0.1,0.2-0.2,0.3-0.3,0.5
					c-0.1,0.2,0.2,0.3,0.3,0.2c0.9-1.6,1.7-3.3,3.2-4.4c0.7-0.6,1.5-1,2.3-1.1c0.9-0.2,1.9,0,2.7,0.3c2.8,1.1,5.1,4.1,4.8,7.2
					c-0.2,2.9-2.8,4.7-5,6.3c-1.2,0.9-2.3,1.8-3.3,3c-1,1.2-1.9,2.6-2.6,4c0.1,0,0.2,0,0.3,0c-1.3-1.2-2.7-2.4-4.2-3.4
					c-1.5-1-3.2-1.6-4.9-2.2c-1.7-0.6-3.3-1.2-4.6-2.5c-1.2-1.2-2-2.9-2-4.7c0-1.4,0.5-2.7,1.5-3.7c0.9-1,2-1.6,3.2-2.1
					c2.4-1,6-1.6,7.6,1.1C151.6,276.2,151.8,276,151.7,275.9L151.7,275.9z"/>
			</g>
			<g>
				<path class="st1" d="M152.1,277.2c-1.5-2.5-4.4-4.1-7.3-3.7c-2.7,0.3-4.9,2.6-5.3,5.3c-0.2,1.4,0.1,2.7,0.9,3.9
					c0.9,1.3,2.3,2.3,3.6,3.1c2.6,1.5,5.5,2.5,8,4.3c1.1,0.8,2.1,1.7,2.9,2.8c0.1,0.2,0.4,0,0.3-0.2c-1.7-2.5-4.4-3.9-7.1-5.2
					c-1.4-0.7-2.8-1.3-4.1-2.1c-1.4-0.8-2.8-1.9-3.7-3.3c-1.5-2.5-0.3-5.9,2.1-7.4c2.6-1.7,6.1-0.9,8.2,1.2c0.5,0.4,0.9,0.9,1.2,1.5
					C152,277.5,152.2,277.4,152.1,277.2L152.1,277.2z"/>
			</g>
			<g>
				<path class="st1" d="M154.7,292.4c-0.4-0.9,0.5-1.9,1.1-2.5c0.6-0.7,1.3-1.4,1.9-2.2c1.2-1.4,2.5-2.7,3.4-4.3
					c0.9-1.4,1.5-3.1,1.5-4.8c0-1.4-0.4-2.9-1.3-4c-0.9-1.2-2.5-2.1-4-1.7c-1.4,0.3-2.3,1.8-2.7,3c0,0.1,0.1,0.2,0.2,0.1
					c0.4-0.7,0.7-1.4,1.2-2c0.6-0.6,1.3-1,2.2-0.9c1.6,0.1,2.9,1.5,3.5,2.9c1.5,3.3-0.4,6.9-2.5,9.5c-1,1.2-2.1,2.4-3.1,3.6
					c-0.5,0.5-0.9,1.1-1.3,1.7c-0.3,0.5-0.5,1.1-0.3,1.7C154.6,292.6,154.8,292.5,154.7,292.4L154.7,292.4z"/>
			</g>
			<path class="st1" d="M162.4,273.8c-0.6-0.8-1.5-1.3-2.5-1.6c-1.2-0.3-2.4,0-3.4,0.5c-0.7,0.3-1.3,0.8-1.8,1.4
				c-0.6,0.6-1.2,1.2-1.7,1.9c-0.1,0.1,0,0.2,0.1,0.2c-0.3,0.4-0.6,0.8-0.9,1.1c-0.1,0.1,0.1,0.3,0.2,0.2c0.4-0.4,0.7-0.9,1.2-1.4
				c0.5-0.5,1-0.9,1.6-1.3c0.5-0.4,1-0.7,1.7-0.9c0.7-0.2,1.4-0.1,2.1,0.1c2.4,0.5,3.5,3.3,3.5,5.5c0,1.3-0.3,2.6-0.9,3.7
				c-0.1,0.3-0.3,0.5-0.4,0.8c-0.3,0.3-0.6,0.6-1,0.9c-1,0.8-1.9,1.7-2.7,2.7c-0.8,1-1.6,2-2.2,3.1c-0.2,0.4-0.5,0.9-0.4,1.4
				c0,0.1,0.1,0.2,0.2,0.2c0.6,0.1,0.8-0.9,1-1.3c0.3-1,0.9-2,1.7-2.8c0.4-0.4,1-0.8,1.4-1.2c0.5-0.4,0.9-0.9,1.3-1.4
				c0.4-0.5,0.7-0.9,1.1-1.4c0.3-0.3,0.6-0.6,0.9-1c0.7-0.9,1.4-1.9,1.8-3C165.1,278.1,163.7,275.5,162.4,273.8z M162.9,281.9
				c-0.2,0.3-0.4,0.5-0.5,0.8c0.8-2.1,0.8-4.6-0.3-6.6c-1.1-1.9-3.1-2.9-5.3-2.5c-0.9,0.2-1.7,0.9-2.4,1.5c-0.2,0.2-0.5,0.4-0.7,0.6
				c0.3-0.3,0.6-0.6,0.9-0.9c0.5-0.5,1-1,1.5-1.4c1.2-0.8,2.5-1.2,3.9-0.8c1.1,0.3,1.9,1.2,2.6,2.1c0.7,1.1,1.3,2.2,1.5,3.5
				C164.2,279.6,163.7,280.8,162.9,281.9z"/>
			<path class="st1" d="M154.7,293.3c-0.2-0.5-0.5-0.9-0.8-1.4c-0.3-0.5-0.7-0.9-1.2-1.3c-0.9-0.8-2-1.3-3.1-1.8
				c-1.1-0.5-2.2-0.9-3.4-1.2c-0.6-0.2-1.2-0.5-1.8-0.7c-0.6-0.3-1.2-0.5-1.8-0.9c-1-0.6-2-1.7-2.5-2.8c-0.6-1.3-0.3-2.6-0.1-4
				c0.5-2.1,1.4-4.9,3.5-5.9c1.4-0.7,3.1-0.3,4.5,0.2c0.7,0.2,1.5,0.5,2.2,0.9c0.3,0.2,0.6,0.5,0.9,0.7c0.5,0.4,0.4,0.8,0.5,1.3
				c0,0.2,0.3,0.2,0.3,0c0-0.5,0.1-1-0.2-1.3c-0.4-0.4-0.8-0.7-1.2-1c-0.9-0.6-2-0.9-3-1.2c-1-0.3-2.1-0.4-3.2-0.2
				c-1,0.2-1.9,0.9-2.6,1.7c-0.7,0.8-1.1,1.8-1.4,2.8c-0.4,1.2-0.8,2.4-0.9,3.7c-0.3,2.3,1.3,4.4,3.2,5.6c0.5,0.3,1,0.5,1.5,0.8
				c0.5,0.2,1,0.5,1.6,0.7c0.5,0.2,1.1,0.3,1.6,0.4c0.6,0.2,1.2,0.4,1.7,0.7c1.1,0.4,2.1,1,3,1.6c0.5,0.4,1,0.8,1.3,1.3
				c0.2,0.2,0.3,0.5,0.5,0.7c0.1,0.2,0.3,0.4,0.4,0.5c-0.3,0-0.3,0.4,0,0.5c0.2,0,0.4,0,0.6-0.2
				C154.7,293.5,154.7,293.4,154.7,293.3z"/>
		</g>
		<g>
			<g>
				<path class="st1" d="M179.7,286.9c-0.8-1.4-2.3-2-3.8-2c-1.7-0.1-3.6,0.5-5.1,1.3c-1.4,0.7-2.7,1.7-3.3,3.2
					c-0.7,1.5-0.7,3.3-0.1,4.9c0.5,1.3,1.4,2.4,2.5,3.3c1.3,1,2.8,1.5,4.4,2c0.8,0.3,1.6,0.5,2.3,0.9c0.8,0.3,1.5,0.8,2.2,1.2
					c1.4,1,2.7,2.1,3.9,3.3c0.1,0.1,0.2,0.1,0.3,0c0.7-1.6,1.7-3.1,3-4.4c1.1-1.2,2.5-2.2,3.8-3.2c1.2-0.9,2.3-1.8,3.2-3.1
					c0.8-1.2,1.1-2.7,0.9-4.1c-0.4-3-2.7-5.6-5.6-6.4c-1.6-0.5-3.3-0.1-4.7,0.9c-1.4,1.1-2.3,2.6-3.2,4.1c-0.1,0.2-0.2,0.3-0.3,0.5
					c-0.1,0.2,0.2,0.3,0.3,0.2c0.9-1.6,1.7-3.3,3.2-4.4c0.7-0.6,1.5-1,2.3-1.1c0.9-0.2,1.9,0,2.7,0.3c2.8,1.1,5.1,4.1,4.8,7.2
					c-0.2,2.9-2.8,4.7-5,6.3c-1.2,0.9-2.3,1.8-3.3,3c-1,1.2-1.9,2.6-2.6,4c0.1,0,0.2,0,0.3,0c-1.3-1.2-2.7-2.4-4.2-3.4
					c-1.5-1-3.2-1.6-4.9-2.2c-1.7-0.6-3.3-1.2-4.6-2.5c-1.2-1.2-2-2.9-2-4.7c0-1.4,0.5-2.7,1.5-3.7c0.9-1,2-1.6,3.2-2.1
					c2.4-1,6-1.6,7.6,1.1C179.6,287.2,179.8,287,179.7,286.9L179.7,286.9z"/>
			</g>
			<g>
				<path class="st1" d="M180.1,288.2c-1.5-2.5-4.4-4.1-7.3-3.7c-2.7,0.3-4.9,2.6-5.3,5.3c-0.2,1.4,0.1,2.7,0.9,3.9
					c0.9,1.3,2.3,2.3,3.6,3.1c2.6,1.5,5.5,2.5,8,4.3c1.1,0.8,2.1,1.7,2.9,2.8c0.1,0.2,0.4,0,0.3-0.2c-1.7-2.5-4.4-3.9-7.1-5.2
					c-1.4-0.7-2.8-1.3-4.1-2.1c-1.4-0.8-2.8-1.9-3.7-3.3c-1.5-2.5-0.3-5.9,2.1-7.4c2.6-1.7,6.1-0.9,8.2,1.2c0.5,0.4,0.9,0.9,1.2,1.5
					C180,288.5,180.2,288.4,180.1,288.2L180.1,288.2z"/>
			</g>
			<g>
				<path class="st1" d="M182.7,303.4c-0.4-0.9,0.5-1.9,1.1-2.5c0.6-0.7,1.3-1.4,1.9-2.2c1.2-1.4,2.5-2.7,3.4-4.3
					c0.9-1.4,1.5-3.1,1.5-4.8c0-1.4-0.4-2.9-1.3-4c-0.9-1.2-2.5-2.1-4-1.7c-1.4,0.3-2.3,1.8-2.7,3c0,0.1,0.1,0.2,0.2,0.1
					c0.4-0.7,0.7-1.4,1.2-2c0.6-0.6,1.3-1,2.2-0.9c1.6,0.1,2.9,1.5,3.5,2.9c1.5,3.3-0.4,6.9-2.5,9.5c-1,1.2-2.1,2.4-3.1,3.6
					c-0.5,0.5-0.9,1.1-1.3,1.7c-0.3,0.5-0.5,1.1-0.3,1.7C182.6,303.6,182.8,303.5,182.7,303.4L182.7,303.4z"/>
			</g>
			<path class="st1" d="M190.4,284.8c-0.6-0.8-1.5-1.3-2.5-1.6c-1.2-0.3-2.4,0-3.4,0.5c-0.7,0.3-1.3,0.8-1.8,1.4
				c-0.6,0.6-1.2,1.2-1.7,1.9c-0.1,0.1,0,0.2,0.1,0.2c-0.3,0.4-0.6,0.8-0.9,1.1c-0.1,0.1,0.1,0.3,0.2,0.2c0.4-0.4,0.7-0.9,1.2-1.4
				c0.5-0.5,1-0.9,1.6-1.3c0.5-0.4,1-0.7,1.7-0.9c0.7-0.2,1.4-0.1,2.1,0.1c2.4,0.5,3.5,3.3,3.5,5.5c0,1.3-0.3,2.6-0.9,3.7
				c-0.1,0.3-0.3,0.5-0.4,0.8c-0.3,0.3-0.6,0.6-1,0.9c-1,0.8-1.9,1.7-2.7,2.7c-0.8,1-1.6,2-2.2,3.1c-0.2,0.4-0.5,0.9-0.4,1.4
				c0,0.1,0.1,0.2,0.2,0.2c0.6,0.1,0.8-0.9,1-1.3c0.3-1,0.9-2,1.7-2.8c0.4-0.4,1-0.8,1.4-1.2c0.5-0.4,0.9-0.9,1.3-1.4
				c0.4-0.5,0.7-0.9,1.1-1.4c0.3-0.3,0.6-0.6,0.9-1c0.7-0.9,1.4-1.9,1.8-3C193.1,289.1,191.7,286.5,190.4,284.8z M190.9,292.9
				c-0.2,0.3-0.4,0.5-0.5,0.8c0.8-2.1,0.8-4.6-0.3-6.6c-1.1-1.9-3.1-2.9-5.3-2.5c-0.9,0.2-1.7,0.9-2.4,1.5c-0.2,0.2-0.5,0.4-0.7,0.6
				c0.3-0.3,0.6-0.6,0.9-0.9c0.5-0.5,1-1,1.5-1.4c1.2-0.8,2.5-1.2,3.9-0.8c1.1,0.3,1.9,1.2,2.6,2.1c0.7,1.1,1.3,2.2,1.5,3.5
				C192.2,290.6,191.7,291.8,190.9,292.9z"/>
			<path class="st1" d="M182.7,304.3c-0.2-0.5-0.5-0.9-0.8-1.4c-0.3-0.5-0.7-0.9-1.2-1.3c-0.9-0.8-2-1.3-3.1-1.8
				c-1.1-0.5-2.2-0.9-3.4-1.2c-0.6-0.2-1.2-0.5-1.8-0.7c-0.6-0.3-1.2-0.5-1.8-0.9c-1-0.6-2-1.7-2.5-2.8c-0.6-1.3-0.3-2.6-0.1-4
				c0.5-2.1,1.4-4.9,3.5-5.9c1.4-0.7,3.1-0.3,4.5,0.2c0.7,0.2,1.5,0.5,2.2,0.9c0.3,0.2,0.6,0.5,0.9,0.7c0.5,0.4,0.4,0.8,0.5,1.3
				c0,0.2,0.3,0.2,0.3,0c0-0.5,0.1-1-0.2-1.3c-0.4-0.4-0.8-0.7-1.2-1c-0.9-0.6-2-0.9-3-1.2c-1-0.3-2.1-0.4-3.2-0.2
				c-1,0.2-1.9,0.9-2.6,1.7c-0.7,0.8-1.1,1.8-1.4,2.8c-0.4,1.2-0.8,2.4-0.9,3.7c-0.3,2.3,1.3,4.4,3.2,5.6c0.5,0.3,1,0.5,1.5,0.8
				c0.5,0.2,1,0.5,1.6,0.7c0.5,0.2,1.1,0.3,1.6,0.4c0.6,0.2,1.2,0.4,1.7,0.7c1.1,0.4,2.1,1,3,1.6c0.5,0.4,1,0.8,1.3,1.3
				c0.2,0.2,0.3,0.5,0.5,0.7c0.1,0.2,0.3,0.4,0.4,0.5c-0.3,0-0.3,0.4,0,0.5c0.2,0,0.4,0,0.6-0.2
				C182.7,304.5,182.7,304.4,182.7,304.3z"/>
		</g>
		<g>
			<g>
				<path class="st1" d="M207.7,277.9c-0.8-1.4-2.3-2-3.8-2c-1.7-0.1-3.6,0.5-5.1,1.3c-1.4,0.7-2.7,1.7-3.3,3.2
					c-0.7,1.5-0.7,3.3-0.1,4.9c0.5,1.3,1.4,2.4,2.5,3.3c1.3,1,2.8,1.5,4.4,2c0.8,0.3,1.6,0.5,2.3,0.9c0.8,0.3,1.5,0.8,2.2,1.2
					c1.4,1,2.7,2.1,3.9,3.3c0.1,0.1,0.2,0.1,0.3,0c0.7-1.6,1.7-3.1,3-4.4c1.1-1.2,2.5-2.2,3.8-3.2c1.2-0.9,2.3-1.8,3.2-3.1
					c0.8-1.2,1.1-2.7,0.9-4.1c-0.4-3-2.7-5.6-5.6-6.4c-1.6-0.5-3.3-0.1-4.7,0.9c-1.4,1.1-2.3,2.6-3.2,4.1c-0.1,0.2-0.2,0.3-0.3,0.5
					c-0.1,0.2,0.2,0.3,0.3,0.2c0.9-1.6,1.7-3.3,3.2-4.4c0.7-0.6,1.5-1,2.3-1.1c0.9-0.2,1.9,0,2.7,0.3c2.8,1.1,5.1,4.1,4.8,7.2
					c-0.2,2.9-2.8,4.7-5,6.3c-1.2,0.9-2.3,1.8-3.3,3c-1,1.2-1.9,2.6-2.6,4c0.1,0,0.2,0,0.3,0c-1.3-1.2-2.7-2.4-4.2-3.4
					c-1.5-1-3.2-1.6-4.9-2.2c-1.7-0.6-3.3-1.2-4.6-2.5c-1.2-1.2-2-2.9-2-4.7c0-1.4,0.5-2.7,1.5-3.7c0.9-1,2-1.6,3.2-2.1
					c2.4-1,6-1.6,7.6,1.1C207.6,278.2,207.8,278,207.7,277.9L207.7,277.9z"/>
			</g>
			<g>
				<path class="st1" d="M208.1,279.2c-1.5-2.5-4.4-4.1-7.3-3.7c-2.7,0.3-4.9,2.6-5.3,5.3c-0.2,1.4,0.1,2.7,0.9,3.9
					c0.9,1.3,2.3,2.3,3.6,3.1c2.6,1.5,5.5,2.5,8,4.3c1.1,0.8,2.1,1.7,2.9,2.8c0.1,0.2,0.4,0,0.3-0.2c-1.7-2.5-4.4-3.9-7.1-5.2
					c-1.4-0.7-2.8-1.3-4.1-2.1c-1.4-0.8-2.8-1.9-3.7-3.3c-1.5-2.5-0.3-5.9,2.1-7.4c2.6-1.7,6.1-0.9,8.2,1.2c0.5,0.4,0.9,0.9,1.2,1.5
					C208,279.5,208.2,279.4,208.1,279.2L208.1,279.2z"/>
			</g>
			<g>
				<path class="st1" d="M210.7,294.4c-0.4-0.9,0.5-1.9,1.1-2.5c0.6-0.7,1.3-1.4,1.9-2.2c1.2-1.4,2.5-2.7,3.4-4.3
					c0.9-1.4,1.5-3.1,1.5-4.8c0-1.4-0.4-2.9-1.3-4c-0.9-1.2-2.5-2.1-4-1.7c-1.4,0.3-2.3,1.8-2.7,3c0,0.1,0.1,0.2,0.2,0.1
					c0.4-0.7,0.7-1.4,1.2-2c0.6-0.6,1.3-1,2.2-0.9c1.6,0.1,2.9,1.5,3.5,2.9c1.5,3.3-0.4,6.9-2.5,9.5c-1,1.2-2.1,2.4-3.1,3.6
					c-0.5,0.5-0.9,1.1-1.3,1.7c-0.3,0.5-0.5,1.1-0.3,1.7C210.6,294.6,210.8,294.5,210.7,294.4L210.7,294.4z"/>
			</g>
			<path class="st1" d="M218.4,275.8c-0.6-0.8-1.5-1.3-2.5-1.6c-1.2-0.3-2.4,0-3.4,0.5c-0.7,0.3-1.3,0.8-1.8,1.4
				c-0.6,0.6-1.2,1.2-1.7,1.9c-0.1,0.1,0,0.2,0.1,0.2c-0.3,0.4-0.6,0.8-0.9,1.1c-0.1,0.1,0.1,0.3,0.2,0.2c0.4-0.4,0.7-0.9,1.2-1.4
				c0.5-0.5,1-0.9,1.6-1.3c0.5-0.4,1-0.7,1.7-0.9c0.7-0.2,1.4-0.1,2.1,0.1c2.4,0.5,3.5,3.3,3.5,5.5c0,1.3-0.3,2.6-0.9,3.7
				c-0.1,0.3-0.3,0.5-0.4,0.8c-0.3,0.3-0.6,0.6-1,0.9c-1,0.8-1.9,1.7-2.7,2.7c-0.8,1-1.6,2-2.2,3.1c-0.2,0.4-0.5,0.9-0.4,1.4
				c0,0.1,0.1,0.2,0.2,0.2c0.6,0.1,0.8-0.9,1-1.3c0.3-1,0.9-2,1.7-2.8c0.4-0.4,1-0.8,1.4-1.2c0.5-0.4,0.9-0.9,1.3-1.4
				c0.4-0.5,0.7-0.9,1.1-1.4c0.3-0.3,0.6-0.6,0.9-1c0.7-0.9,1.4-1.9,1.8-3C221.1,280.1,219.7,277.5,218.4,275.8z M218.9,283.9
				c-0.2,0.3-0.4,0.5-0.5,0.8c0.8-2.1,0.8-4.6-0.3-6.6c-1.1-1.9-3.1-2.9-5.3-2.5c-0.9,0.2-1.7,0.9-2.4,1.5c-0.2,0.2-0.5,0.4-0.7,0.6
				c0.3-0.3,0.6-0.6,0.9-0.9c0.5-0.5,1-1,1.5-1.4c1.2-0.8,2.5-1.2,3.9-0.8c1.1,0.3,1.9,1.2,2.6,2.1c0.7,1.1,1.3,2.2,1.5,3.5
				C220.2,281.6,219.7,282.8,218.9,283.9z"/>
			<path class="st1" d="M210.7,295.3c-0.2-0.5-0.5-0.9-0.8-1.4c-0.3-0.5-0.7-0.9-1.2-1.3c-0.9-0.8-2-1.3-3.1-1.8
				c-1.1-0.5-2.2-0.9-3.4-1.2c-0.6-0.2-1.2-0.5-1.8-0.7c-0.6-0.3-1.2-0.5-1.8-0.9c-1-0.6-2-1.7-2.5-2.8c-0.6-1.3-0.3-2.6-0.1-4
				c0.5-2.1,1.4-4.9,3.5-5.9c1.4-0.7,3.1-0.3,4.5,0.2c0.7,0.2,1.5,0.5,2.2,0.9c0.3,0.2,0.6,0.5,0.9,0.7c0.5,0.4,0.4,0.8,0.5,1.3
				c0,0.2,0.3,0.2,0.3,0c0-0.5,0.1-1-0.2-1.3c-0.4-0.4-0.8-0.7-1.2-1c-0.9-0.6-2-0.9-3-1.2c-1-0.3-2.1-0.4-3.2-0.2
				c-1,0.2-1.9,0.9-2.6,1.7c-0.7,0.8-1.1,1.8-1.4,2.8c-0.4,1.2-0.8,2.4-0.9,3.7c-0.3,2.3,1.3,4.4,3.2,5.6c0.5,0.3,1,0.5,1.5,0.8
				c0.5,0.2,1,0.5,1.6,0.7c0.5,0.2,1.1,0.3,1.6,0.4c0.6,0.2,1.2,0.4,1.7,0.7c1.1,0.4,2.1,1,3,1.6c0.5,0.4,1,0.8,1.3,1.3
				c0.2,0.2,0.3,0.5,0.5,0.7c0.1,0.2,0.3,0.4,0.4,0.5c-0.3,0-0.3,0.4,0,0.5c0.2,0,0.4,0,0.6-0.2
				C210.7,295.5,210.7,295.4,210.7,295.3z"/>
		</g>
		<g>
			<g>
				<path class="st1" d="M223.7,297.9c-0.8-1.4-2.3-2-3.8-2c-1.7-0.1-3.6,0.5-5.1,1.3c-1.4,0.7-2.7,1.7-3.3,3.2
					c-0.7,1.5-0.7,3.3-0.1,4.9c0.5,1.3,1.4,2.4,2.5,3.3c1.3,1,2.8,1.5,4.4,2c0.8,0.3,1.6,0.5,2.3,0.9c0.8,0.3,1.5,0.8,2.2,1.2
					c1.4,1,2.7,2.1,3.9,3.3c0.1,0.1,0.2,0.1,0.3,0c0.7-1.6,1.7-3.1,3-4.4c1.1-1.2,2.5-2.2,3.8-3.2c1.2-0.9,2.3-1.8,3.2-3.1
					c0.8-1.2,1.1-2.7,0.9-4.1c-0.4-3-2.7-5.6-5.6-6.4c-1.6-0.5-3.3-0.1-4.7,0.9c-1.4,1.1-2.3,2.6-3.2,4.1c-0.1,0.2-0.2,0.3-0.3,0.5
					c-0.1,0.2,0.2,0.3,0.3,0.2c0.9-1.6,1.7-3.3,3.2-4.4c0.7-0.6,1.5-1,2.3-1.1c0.9-0.2,1.9,0,2.7,0.3c2.8,1.1,5.1,4.1,4.8,7.2
					c-0.2,2.9-2.8,4.7-5,6.3c-1.2,0.9-2.3,1.8-3.3,3c-1,1.2-1.9,2.6-2.6,4c0.1,0,0.2,0,0.3,0c-1.3-1.2-2.7-2.4-4.2-3.4
					c-1.5-1-3.2-1.6-4.9-2.2c-1.7-0.6-3.3-1.2-4.6-2.5c-1.2-1.2-2-2.9-2-4.7c0-1.4,0.5-2.7,1.5-3.7c0.9-1,2-1.6,3.2-2.1
					c2.4-1,6-1.6,7.6,1.1C223.6,298.2,223.8,298,223.7,297.9L223.7,297.9z"/>
			</g>
			<g>
				<path class="st1" d="M224.1,299.2c-1.5-2.5-4.4-4.1-7.3-3.7c-2.7,0.3-4.9,2.6-5.3,5.3c-0.2,1.4,0.1,2.7,0.9,3.9
					c0.9,1.3,2.3,2.3,3.6,3.1c2.6,1.5,5.5,2.5,8,4.3c1.1,0.8,2.1,1.7,2.9,2.8c0.1,0.2,0.4,0,0.3-0.2c-1.7-2.5-4.4-3.9-7.1-5.2
					c-1.4-0.7-2.8-1.3-4.1-2.1c-1.4-0.8-2.8-1.9-3.7-3.3c-1.5-2.5-0.3-5.9,2.1-7.4c2.6-1.7,6.1-0.9,8.2,1.2c0.5,0.4,0.9,0.9,1.2,1.5
					C224,299.5,224.2,299.4,224.1,299.2L224.1,299.2z"/>
			</g>
			<g>
				<path class="st1" d="M226.7,314.4c-0.4-0.9,0.5-1.9,1.1-2.5c0.6-0.7,1.3-1.4,1.9-2.2c1.2-1.4,2.5-2.7,3.4-4.3
					c0.9-1.4,1.5-3.1,1.5-4.8c0-1.4-0.4-2.9-1.3-4c-0.9-1.2-2.5-2.1-4-1.7c-1.4,0.3-2.3,1.8-2.7,3c0,0.1,0.1,0.2,0.2,0.1
					c0.4-0.7,0.7-1.4,1.2-2c0.6-0.6,1.3-1,2.2-0.9c1.6,0.1,2.9,1.5,3.5,2.9c1.5,3.3-0.4,6.9-2.5,9.5c-1,1.2-2.1,2.4-3.1,3.6
					c-0.5,0.5-0.9,1.1-1.3,1.7c-0.3,0.5-0.5,1.1-0.3,1.7C226.6,314.6,226.8,314.5,226.7,314.4L226.7,314.4z"/>
			</g>
			<path class="st1" d="M234.4,295.8c-0.6-0.8-1.5-1.3-2.5-1.6c-1.2-0.3-2.4,0-3.4,0.5c-0.7,0.3-1.3,0.8-1.8,1.4
				c-0.6,0.6-1.2,1.2-1.7,1.9c-0.1,0.1,0,0.2,0.1,0.2c-0.3,0.4-0.6,0.8-0.9,1.1c-0.1,0.1,0.1,0.3,0.2,0.2c0.4-0.4,0.7-0.9,1.2-1.4
				c0.5-0.5,1-0.9,1.6-1.3c0.5-0.4,1-0.7,1.7-0.9c0.7-0.2,1.4-0.1,2.1,0.1c2.4,0.5,3.5,3.3,3.5,5.5c0,1.3-0.3,2.6-0.9,3.7
				c-0.1,0.3-0.3,0.5-0.4,0.8c-0.3,0.3-0.6,0.6-1,0.9c-1,0.8-1.9,1.7-2.7,2.7c-0.8,1-1.6,2-2.2,3.1c-0.2,0.4-0.5,0.9-0.4,1.4
				c0,0.1,0.1,0.2,0.2,0.2c0.6,0.1,0.8-0.9,1-1.3c0.3-1,0.9-2,1.7-2.8c0.4-0.4,1-0.8,1.4-1.2c0.5-0.4,0.9-0.9,1.3-1.4
				c0.4-0.5,0.7-0.9,1.1-1.4c0.3-0.3,0.6-0.6,0.9-1c0.7-0.9,1.4-1.9,1.8-3C237.1,300.1,235.7,297.5,234.4,295.8z M234.9,303.9
				c-0.2,0.3-0.4,0.5-0.5,0.8c0.8-2.1,0.8-4.6-0.3-6.6c-1.1-1.9-3.1-2.9-5.3-2.5c-0.9,0.2-1.7,0.9-2.4,1.5c-0.2,0.2-0.5,0.4-0.7,0.6
				c0.3-0.3,0.6-0.6,0.9-0.9c0.5-0.5,1-1,1.5-1.4c1.2-0.8,2.5-1.2,3.9-0.8c1.1,0.3,1.9,1.2,2.6,2.1c0.7,1.1,1.3,2.2,1.5,3.5
				C236.2,301.6,235.7,302.8,234.9,303.9z"/>
			<path class="st1" d="M226.7,315.3c-0.2-0.5-0.5-0.9-0.8-1.4c-0.3-0.5-0.7-0.9-1.2-1.3c-0.9-0.8-2-1.3-3.1-1.8
				c-1.1-0.5-2.2-0.9-3.4-1.2c-0.6-0.2-1.2-0.5-1.8-0.7c-0.6-0.3-1.2-0.5-1.8-0.9c-1-0.6-2-1.7-2.5-2.8c-0.6-1.3-0.3-2.6-0.1-4
				c0.5-2.1,1.4-4.9,3.5-5.9c1.4-0.7,3.1-0.3,4.5,0.2c0.7,0.2,1.5,0.5,2.2,0.9c0.3,0.2,0.6,0.5,0.9,0.7c0.5,0.4,0.4,0.8,0.5,1.3
				c0,0.2,0.3,0.2,0.3,0c0-0.5,0.1-1-0.2-1.3c-0.4-0.4-0.8-0.7-1.2-1c-0.9-0.6-2-0.9-3-1.2c-1-0.3-2.1-0.4-3.2-0.2
				c-1,0.2-1.9,0.9-2.6,1.7c-0.7,0.8-1.1,1.8-1.4,2.8c-0.4,1.2-0.8,2.4-0.9,3.7c-0.3,2.3,1.3,4.4,3.2,5.6c0.5,0.3,1,0.5,1.5,0.8
				c0.5,0.2,1,0.5,1.6,0.7c0.5,0.2,1.1,0.3,1.6,0.4c0.6,0.2,1.2,0.4,1.7,0.7c1.1,0.4,2.1,1,3,1.6c0.5,0.4,1,0.8,1.3,1.3
				c0.2,0.2,0.3,0.5,0.5,0.7c0.1,0.2,0.3,0.4,0.4,0.5c-0.3,0-0.3,0.4,0,0.5c0.2,0,0.4,0,0.6-0.2
				C226.7,315.5,226.7,315.4,226.7,315.3z"/>
		</g>
		<g>
			<g>
				<path class="st1" d="M192.7,312.9c-0.8-1.4-2.3-2-3.8-2c-1.7-0.1-3.6,0.5-5.1,1.3c-1.4,0.7-2.7,1.7-3.3,3.2
					c-0.7,1.5-0.7,3.3-0.1,4.9c0.5,1.3,1.4,2.4,2.5,3.3c1.3,1,2.8,1.5,4.4,2c0.8,0.3,1.6,0.5,2.3,0.9c0.8,0.3,1.5,0.8,2.2,1.2
					c1.4,1,2.7,2.1,3.9,3.3c0.1,0.1,0.2,0.1,0.3,0c0.7-1.6,1.7-3.1,3-4.4c1.1-1.2,2.5-2.2,3.8-3.2c1.2-0.9,2.3-1.8,3.2-3.1
					c0.8-1.2,1.1-2.7,0.9-4.1c-0.4-3-2.7-5.6-5.6-6.4c-1.6-0.5-3.3-0.1-4.7,0.9c-1.4,1.1-2.3,2.6-3.2,4.1c-0.1,0.2-0.2,0.3-0.3,0.5
					c-0.1,0.2,0.2,0.3,0.3,0.2c0.9-1.6,1.7-3.3,3.2-4.4c0.7-0.6,1.5-1,2.3-1.1c0.9-0.2,1.9,0,2.7,0.3c2.8,1.1,5.1,4.1,4.8,7.2
					c-0.2,2.9-2.8,4.7-5,6.3c-1.2,0.9-2.3,1.8-3.3,3c-1,1.2-1.9,2.6-2.6,4c0.1,0,0.2,0,0.3,0c-1.3-1.2-2.7-2.4-4.2-3.4
					c-1.5-1-3.2-1.6-4.9-2.2c-1.7-0.6-3.3-1.2-4.6-2.5c-1.2-1.2-2-2.9-2-4.7c0-1.4,0.5-2.7,1.5-3.7c0.9-1,2-1.6,3.2-2.1
					c2.4-1,6-1.6,7.6,1.1C192.6,313.2,192.8,313,192.7,312.9L192.7,312.9z"/>
			</g>
			<g>
				<path class="st1" d="M193.1,314.2c-1.5-2.5-4.4-4.1-7.3-3.7c-2.7,0.3-4.9,2.6-5.3,5.3c-0.2,1.4,0.1,2.7,0.9,3.9
					c0.9,1.3,2.3,2.3,3.6,3.1c2.6,1.5,5.5,2.5,8,4.3c1.1,0.8,2.1,1.7,2.9,2.8c0.1,0.2,0.4,0,0.3-0.2c-1.7-2.5-4.4-3.9-7.1-5.2
					c-1.4-0.7-2.8-1.3-4.1-2.1c-1.4-0.8-2.8-1.9-3.7-3.3c-1.5-2.5-0.3-5.9,2.1-7.4c2.6-1.7,6.1-0.9,8.2,1.2c0.5,0.4,0.9,0.9,1.2,1.5
					C193,314.5,193.2,314.4,193.1,314.2L193.1,314.2z"/>
			</g>
			<g>
				<path class="st1" d="M195.7,329.4c-0.4-0.9,0.5-1.9,1.1-2.5c0.6-0.7,1.3-1.4,1.9-2.2c1.2-1.4,2.5-2.7,3.4-4.3
					c0.9-1.4,1.5-3.1,1.5-4.8c0-1.4-0.4-2.9-1.3-4c-0.9-1.2-2.5-2.1-4-1.7c-1.4,0.3-2.3,1.8-2.7,3c0,0.1,0.1,0.2,0.2,0.1
					c0.4-0.7,0.7-1.4,1.2-2c0.6-0.6,1.3-1,2.2-0.9c1.6,0.1,2.9,1.5,3.5,2.9c1.5,3.3-0.4,6.9-2.5,9.5c-1,1.2-2.1,2.4-3.1,3.6
					c-0.5,0.5-0.9,1.1-1.3,1.7c-0.3,0.5-0.5,1.1-0.3,1.7C195.6,329.6,195.8,329.5,195.7,329.4L195.7,329.4z"/>
			</g>
			<path class="st1" d="M203.4,310.8c-0.6-0.8-1.5-1.3-2.5-1.6c-1.2-0.3-2.4,0-3.4,0.5c-0.7,0.3-1.3,0.8-1.8,1.4
				c-0.6,0.6-1.2,1.2-1.7,1.9c-0.1,0.1,0,0.2,0.1,0.2c-0.3,0.4-0.6,0.8-0.9,1.1c-0.1,0.1,0.1,0.3,0.2,0.2c0.4-0.4,0.7-0.9,1.2-1.4
				c0.5-0.5,1-0.9,1.6-1.3c0.5-0.4,1-0.7,1.7-0.9c0.7-0.2,1.4-0.1,2.1,0.1c2.4,0.5,3.5,3.3,3.5,5.5c0,1.3-0.3,2.6-0.9,3.7
				c-0.1,0.3-0.3,0.5-0.4,0.8c-0.3,0.3-0.6,0.6-1,0.9c-1,0.8-1.9,1.7-2.7,2.7c-0.8,1-1.6,2-2.2,3.1c-0.2,0.4-0.5,0.9-0.4,1.4
				c0,0.1,0.1,0.2,0.2,0.2c0.6,0.1,0.8-0.9,1-1.3c0.3-1,0.9-2,1.7-2.8c0.4-0.4,1-0.8,1.4-1.2c0.5-0.4,0.9-0.9,1.3-1.4
				c0.4-0.5,0.7-0.9,1.1-1.4c0.3-0.3,0.6-0.6,0.9-1c0.7-0.9,1.4-1.9,1.8-3C206.1,315.1,204.7,312.5,203.4,310.8z M203.9,318.9
				c-0.2,0.3-0.4,0.5-0.5,0.8c0.8-2.1,0.8-4.6-0.3-6.6c-1.1-1.9-3.1-2.9-5.3-2.5c-0.9,0.2-1.7,0.9-2.4,1.5c-0.2,0.2-0.5,0.4-0.7,0.6
				c0.3-0.3,0.6-0.6,0.9-0.9c0.5-0.5,1-1,1.5-1.4c1.2-0.8,2.5-1.2,3.9-0.8c1.1,0.3,1.9,1.2,2.6,2.1c0.7,1.1,1.3,2.2,1.5,3.5
				C205.2,316.6,204.7,317.8,203.9,318.9z"/>
			<path class="st1" d="M195.7,330.3c-0.2-0.5-0.5-0.9-0.8-1.4c-0.3-0.5-0.7-0.9-1.2-1.3c-0.9-0.8-2-1.3-3.1-1.8
				c-1.1-0.5-2.2-0.9-3.4-1.2c-0.6-0.2-1.2-0.5-1.8-0.7c-0.6-0.3-1.2-0.5-1.8-0.9c-1-0.6-2-1.7-2.5-2.8c-0.6-1.3-0.3-2.6-0.1-4
				c0.5-2.1,1.4-4.9,3.5-5.9c1.4-0.7,3.1-0.3,4.5,0.2c0.7,0.2,1.5,0.5,2.2,0.9c0.3,0.2,0.6,0.5,0.9,0.7c0.5,0.4,0.4,0.8,0.5,1.3
				c0,0.2,0.3,0.2,0.3,0c0-0.5,0.1-1-0.2-1.3c-0.4-0.4-0.8-0.7-1.2-1c-0.9-0.6-2-0.9-3-1.2c-1-0.3-2.1-0.4-3.2-0.2
				c-1,0.2-1.9,0.9-2.6,1.7c-0.7,0.8-1.1,1.8-1.4,2.8c-0.4,1.2-0.8,2.4-0.9,3.7c-0.3,2.3,1.3,4.4,3.2,5.6c0.5,0.3,1,0.5,1.5,0.8
				c0.5,0.2,1,0.5,1.6,0.7c0.5,0.2,1.1,0.3,1.6,0.4c0.6,0.2,1.2,0.4,1.7,0.7c1.1,0.4,2.1,1,3,1.6c0.5,0.4,1,0.8,1.3,1.3
				c0.2,0.2,0.3,0.5,0.5,0.7c0.1,0.2,0.3,0.4,0.4,0.5c-0.3,0-0.3,0.4,0,0.5c0.2,0,0.4,0,0.6-0.2
				C195.7,330.5,195.7,330.4,195.7,330.3z"/>
		</g>
		<g>
			<g>
				<path class="st1" d="M158.7,304.9c-0.8-1.4-2.3-2-3.8-2c-1.7-0.1-3.6,0.5-5.1,1.3c-1.4,0.7-2.7,1.7-3.3,3.2
					c-0.7,1.5-0.7,3.3-0.1,4.9c0.5,1.3,1.4,2.4,2.5,3.3c1.3,1,2.8,1.5,4.4,2c0.8,0.3,1.6,0.5,2.3,0.9c0.8,0.3,1.5,0.8,2.2,1.2
					c1.4,1,2.7,2.1,3.9,3.3c0.1,0.1,0.2,0.1,0.3,0c0.7-1.6,1.7-3.1,3-4.4c1.1-1.2,2.5-2.2,3.8-3.2c1.2-0.9,2.3-1.8,3.2-3.1
					c0.8-1.2,1.1-2.7,0.9-4.1c-0.4-3-2.7-5.6-5.6-6.4c-1.6-0.5-3.3-0.1-4.7,0.9c-1.4,1.1-2.3,2.6-3.2,4.1c-0.1,0.2-0.2,0.3-0.3,0.5
					c-0.1,0.2,0.2,0.3,0.3,0.2c0.9-1.6,1.7-3.3,3.2-4.4c0.7-0.6,1.5-1,2.3-1.1c0.9-0.2,1.9,0,2.7,0.3c2.8,1.1,5.1,4.1,4.8,7.2
					c-0.2,2.9-2.8,4.7-5,6.3c-1.2,0.9-2.3,1.8-3.3,3c-1,1.2-1.9,2.6-2.6,4c0.1,0,0.2,0,0.3,0c-1.3-1.2-2.7-2.4-4.2-3.4
					c-1.5-1-3.2-1.6-4.9-2.2c-1.7-0.6-3.3-1.2-4.6-2.5c-1.2-1.2-2-2.9-2-4.7c0-1.4,0.5-2.7,1.5-3.7c0.9-1,2-1.6,3.2-2.1
					c2.4-1,6-1.6,7.6,1.1C158.6,305.2,158.8,305,158.7,304.9L158.7,304.9z"/>
			</g>
			<g>
				<path class="st1" d="M159.1,306.2c-1.5-2.5-4.4-4.1-7.3-3.7c-2.7,0.3-4.9,2.6-5.3,5.3c-0.2,1.4,0.1,2.7,0.9,3.9
					c0.9,1.3,2.3,2.3,3.6,3.1c2.6,1.5,5.5,2.5,8,4.3c1.1,0.8,2.1,1.7,2.9,2.8c0.1,0.2,0.4,0,0.3-0.2c-1.7-2.5-4.4-3.9-7.1-5.2
					c-1.4-0.7-2.8-1.3-4.1-2.1c-1.4-0.8-2.8-1.9-3.7-3.3c-1.5-2.5-0.3-5.9,2.1-7.4c2.6-1.7,6.1-0.9,8.2,1.2c0.5,0.4,0.9,0.9,1.2,1.5
					C159,306.5,159.2,306.4,159.1,306.2L159.1,306.2z"/>
			</g>
			<g>
				<path class="st1" d="M161.7,321.4c-0.4-0.9,0.5-1.9,1.1-2.5c0.6-0.7,1.3-1.4,1.9-2.2c1.2-1.4,2.5-2.7,3.4-4.3
					c0.9-1.4,1.5-3.1,1.5-4.8c0-1.4-0.4-2.9-1.3-4c-0.9-1.2-2.5-2.1-4-1.7c-1.4,0.3-2.3,1.8-2.7,3c0,0.1,0.1,0.2,0.2,0.1
					c0.4-0.7,0.7-1.4,1.2-2c0.6-0.6,1.3-1,2.2-0.9c1.6,0.1,2.9,1.5,3.5,2.9c1.5,3.3-0.4,6.9-2.5,9.5c-1,1.2-2.1,2.4-3.1,3.6
					c-0.5,0.5-0.9,1.1-1.3,1.7c-0.3,0.5-0.5,1.1-0.3,1.7C161.6,321.6,161.8,321.5,161.7,321.4L161.7,321.4z"/>
			</g>
			<path class="st1" d="M169.4,302.8c-0.6-0.8-1.5-1.3-2.5-1.6c-1.2-0.3-2.4,0-3.4,0.5c-0.7,0.3-1.3,0.8-1.8,1.4
				c-0.6,0.6-1.2,1.2-1.7,1.9c-0.1,0.1,0,0.2,0.1,0.2c-0.3,0.4-0.6,0.8-0.9,1.1c-0.1,0.1,0.1,0.3,0.2,0.2c0.4-0.4,0.7-0.9,1.2-1.4
				c0.5-0.5,1-0.9,1.6-1.3c0.5-0.4,1-0.7,1.7-0.9c0.7-0.2,1.4-0.1,2.1,0.1c2.4,0.5,3.5,3.3,3.5,5.5c0,1.3-0.3,2.6-0.9,3.7
				c-0.1,0.3-0.3,0.5-0.4,0.8c-0.3,0.3-0.6,0.6-1,0.9c-1,0.8-1.9,1.7-2.7,2.7c-0.8,1-1.6,2-2.2,3.1c-0.2,0.4-0.5,0.9-0.4,1.4
				c0,0.1,0.1,0.2,0.2,0.2c0.6,0.1,0.8-0.9,1-1.3c0.3-1,0.9-2,1.7-2.8c0.4-0.4,1-0.8,1.4-1.2c0.5-0.4,0.9-0.9,1.3-1.4
				c0.4-0.5,0.7-0.9,1.1-1.4c0.3-0.3,0.6-0.6,0.9-1c0.7-0.9,1.4-1.9,1.8-3C172.1,307.1,170.7,304.5,169.4,302.8z M169.9,310.9
				c-0.2,0.3-0.4,0.5-0.5,0.8c0.8-2.1,0.8-4.6-0.3-6.6c-1.1-1.9-3.1-2.9-5.3-2.5c-0.9,0.2-1.7,0.9-2.4,1.5c-0.2,0.2-0.5,0.4-0.7,0.6
				c0.3-0.3,0.6-0.6,0.9-0.9c0.5-0.5,1-1,1.5-1.4c1.2-0.8,2.5-1.2,3.9-0.8c1.1,0.3,1.9,1.2,2.6,2.1c0.7,1.1,1.3,2.2,1.5,3.5
				C171.2,308.6,170.7,309.8,169.9,310.9z"/>
			<path class="st1" d="M161.7,322.3c-0.2-0.5-0.5-0.9-0.8-1.4c-0.3-0.5-0.7-0.9-1.2-1.3c-0.9-0.8-2-1.3-3.1-1.8
				c-1.1-0.5-2.2-0.9-3.4-1.2c-0.6-0.2-1.2-0.5-1.8-0.7c-0.6-0.3-1.2-0.5-1.8-0.9c-1-0.6-2-1.7-2.5-2.8c-0.6-1.3-0.3-2.6-0.1-4
				c0.5-2.1,1.4-4.9,3.5-5.9c1.4-0.7,3.1-0.3,4.5,0.2c0.7,0.2,1.5,0.5,2.2,0.9c0.3,0.2,0.6,0.5,0.9,0.7c0.5,0.4,0.4,0.8,0.5,1.3
				c0,0.2,0.3,0.2,0.3,0c0-0.5,0.1-1-0.2-1.3c-0.4-0.4-0.8-0.7-1.2-1c-0.9-0.6-2-0.9-3-1.2c-1-0.3-2.1-0.4-3.2-0.2
				c-1,0.2-1.9,0.9-2.6,1.7c-0.7,0.8-1.1,1.8-1.4,2.8c-0.4,1.2-0.8,2.4-0.9,3.7c-0.3,2.3,1.3,4.4,3.2,5.6c0.5,0.3,1,0.5,1.5,0.8
				c0.5,0.2,1,0.5,1.6,0.7c0.5,0.2,1.1,0.3,1.6,0.4c0.6,0.2,1.2,0.4,1.7,0.7c1.1,0.4,2.1,1,3,1.6c0.5,0.4,1,0.8,1.3,1.3
				c0.2,0.2,0.3,0.5,0.5,0.7c0.1,0.2,0.3,0.4,0.4,0.5c-0.3,0-0.3,0.4,0,0.5c0.2,0,0.4,0,0.6-0.2
				C161.7,322.5,161.7,322.4,161.7,322.3z"/>
		</g>
		<g>
			<g>
				<path class="st1" d="M164.7,327.9c-0.8-1.4-2.3-2-3.8-2c-1.7-0.1-3.6,0.5-5.1,1.3c-1.4,0.7-2.7,1.7-3.3,3.2
					c-0.7,1.5-0.7,3.3-0.1,4.9c0.5,1.3,1.4,2.4,2.5,3.3c1.3,1,2.8,1.5,4.4,2c0.8,0.3,1.6,0.5,2.3,0.9c0.8,0.3,1.5,0.8,2.2,1.2
					c1.4,1,2.7,2.1,3.9,3.3c0.1,0.1,0.2,0.1,0.3,0c0.7-1.6,1.7-3.1,3-4.4c1.1-1.2,2.5-2.2,3.8-3.2c1.2-0.9,2.3-1.8,3.2-3.1
					c0.8-1.2,1.1-2.7,0.9-4.1c-0.4-3-2.7-5.6-5.6-6.4c-1.6-0.5-3.3-0.1-4.7,0.9c-1.4,1.1-2.3,2.6-3.2,4.1c-0.1,0.2-0.2,0.3-0.3,0.5
					c-0.1,0.2,0.2,0.3,0.3,0.2c0.9-1.6,1.7-3.3,3.2-4.4c0.7-0.6,1.5-1,2.3-1.1c0.9-0.2,1.9,0,2.7,0.3c2.8,1.1,5.1,4.1,4.8,7.2
					c-0.2,2.9-2.8,4.7-5,6.3c-1.2,0.9-2.3,1.8-3.3,3c-1,1.2-1.9,2.6-2.6,4c0.1,0,0.2,0,0.3,0c-1.3-1.2-2.7-2.4-4.2-3.4
					c-1.5-1-3.2-1.6-4.9-2.2c-1.7-0.6-3.3-1.2-4.6-2.5c-1.2-1.2-2-2.9-2-4.7c0-1.4,0.5-2.7,1.5-3.7c0.9-1,2-1.6,3.2-2.1
					c2.4-1,6-1.6,7.6,1.1C164.6,328.2,164.8,328,164.7,327.9L164.7,327.9z"/>
			</g>
			<g>
				<path class="st1" d="M165.1,329.2c-1.5-2.5-4.4-4.1-7.3-3.7c-2.7,0.3-4.9,2.6-5.3,5.3c-0.2,1.4,0.1,2.7,0.9,3.9
					c0.9,1.3,2.3,2.3,3.6,3.1c2.6,1.5,5.5,2.5,8,4.3c1.1,0.8,2.1,1.7,2.9,2.8c0.1,0.2,0.4,0,0.3-0.2c-1.7-2.5-4.4-3.9-7.1-5.2
					c-1.4-0.7-2.8-1.3-4.1-2.1c-1.4-0.8-2.8-1.9-3.7-3.3c-1.5-2.5-0.3-5.9,2.1-7.4c2.6-1.7,6.1-0.9,8.2,1.2c0.5,0.4,0.9,0.9,1.2,1.5
					C165,329.5,165.2,329.4,165.1,329.2L165.1,329.2z"/>
			</g>
			<g>
				<path class="st1" d="M167.7,344.4c-0.4-0.9,0.5-1.9,1.1-2.5c0.6-0.7,1.3-1.4,1.9-2.2c1.2-1.4,2.5-2.7,3.4-4.3
					c0.9-1.4,1.5-3.1,1.5-4.8c0-1.4-0.4-2.9-1.3-4c-0.9-1.2-2.5-2.1-4-1.7c-1.4,0.3-2.3,1.8-2.7,3c0,0.1,0.1,0.2,0.2,0.1
					c0.4-0.7,0.7-1.4,1.2-2c0.6-0.6,1.3-1,2.2-0.9c1.6,0.1,2.9,1.5,3.5,2.9c1.5,3.3-0.4,6.9-2.5,9.5c-1,1.2-2.1,2.4-3.1,3.6
					c-0.5,0.5-0.9,1.1-1.3,1.7c-0.3,0.5-0.5,1.1-0.3,1.7C167.6,344.6,167.8,344.5,167.7,344.4L167.7,344.4z"/>
			</g>
			<path class="st1" d="M175.4,325.8c-0.6-0.8-1.5-1.3-2.5-1.6c-1.2-0.3-2.4,0-3.4,0.5c-0.7,0.3-1.3,0.8-1.8,1.4
				c-0.6,0.6-1.2,1.2-1.7,1.9c-0.1,0.1,0,0.2,0.1,0.2c-0.3,0.4-0.6,0.8-0.9,1.1c-0.1,0.1,0.1,0.3,0.2,0.2c0.4-0.4,0.7-0.9,1.2-1.4
				c0.5-0.5,1-0.9,1.6-1.3c0.5-0.4,1-0.7,1.7-0.9c0.7-0.2,1.4-0.1,2.1,0.1c2.4,0.5,3.5,3.3,3.5,5.5c0,1.3-0.3,2.6-0.9,3.7
				c-0.1,0.3-0.3,0.5-0.4,0.8c-0.3,0.3-0.6,0.6-1,0.9c-1,0.8-1.9,1.7-2.7,2.7c-0.8,1-1.6,2-2.2,3.1c-0.2,0.4-0.5,0.9-0.4,1.4
				c0,0.1,0.1,0.2,0.2,0.2c0.6,0.1,0.8-0.9,1-1.3c0.3-1,0.9-2,1.7-2.8c0.4-0.4,1-0.8,1.4-1.2c0.5-0.4,0.9-0.9,1.3-1.4
				c0.4-0.5,0.7-0.9,1.1-1.4c0.3-0.3,0.6-0.6,0.9-1c0.7-0.9,1.4-1.9,1.8-3C178.1,330.1,176.7,327.5,175.4,325.8z M175.9,333.9
				c-0.2,0.3-0.4,0.5-0.5,0.8c0.8-2.1,0.8-4.6-0.3-6.6c-1.1-1.9-3.1-2.9-5.3-2.5c-0.9,0.2-1.7,0.9-2.4,1.5c-0.2,0.2-0.5,0.4-0.7,0.6
				c0.3-0.3,0.6-0.6,0.9-0.9c0.5-0.5,1-1,1.5-1.4c1.2-0.8,2.5-1.2,3.9-0.8c1.1,0.3,1.9,1.2,2.6,2.1c0.7,1.1,1.3,2.2,1.5,3.5
				C177.2,331.6,176.7,332.8,175.9,333.9z"/>
			<path class="st1" d="M167.7,345.3c-0.2-0.5-0.5-0.9-0.8-1.4c-0.3-0.5-0.7-0.9-1.2-1.3c-0.9-0.8-2-1.3-3.1-1.8
				c-1.1-0.5-2.2-0.9-3.4-1.2c-0.6-0.2-1.2-0.5-1.8-0.7c-0.6-0.3-1.2-0.5-1.8-0.9c-1-0.6-2-1.7-2.5-2.8c-0.6-1.3-0.3-2.6-0.1-4
				c0.5-2.1,1.4-4.9,3.5-5.9c1.4-0.7,3.1-0.3,4.5,0.2c0.7,0.2,1.5,0.5,2.2,0.9c0.3,0.2,0.6,0.5,0.9,0.7c0.5,0.4,0.4,0.8,0.5,1.3
				c0,0.2,0.3,0.2,0.3,0c0-0.5,0.1-1-0.2-1.3c-0.4-0.4-0.8-0.7-1.2-1c-0.9-0.6-2-0.9-3-1.2c-1-0.3-2.1-0.4-3.2-0.2
				c-1,0.2-1.9,0.9-2.6,1.7c-0.7,0.8-1.1,1.8-1.4,2.8c-0.4,1.2-0.8,2.4-0.9,3.7c-0.3,2.3,1.3,4.4,3.2,5.6c0.5,0.3,1,0.5,1.5,0.8
				c0.5,0.2,1,0.5,1.6,0.7c0.5,0.2,1.1,0.3,1.6,0.4c0.6,0.2,1.2,0.4,1.7,0.7c1.1,0.4,2.1,1,3,1.6c0.5,0.4,1,0.8,1.3,1.3
				c0.2,0.2,0.3,0.5,0.5,0.7c0.1,0.2,0.3,0.4,0.4,0.5c-0.3,0-0.3,0.4,0,0.5c0.2,0,0.4,0,0.6-0.2
				C167.7,345.5,167.7,345.4,167.7,345.3z"/>
		</g>
		<g>
			<g>
				<path class="st1" d="M196.7,338.9c-0.8-1.4-2.3-2-3.8-2c-1.7-0.1-3.6,0.5-5.1,1.3c-1.4,0.7-2.7,1.7-3.3,3.2
					c-0.7,1.5-0.7,3.3-0.1,4.9c0.5,1.3,1.4,2.4,2.5,3.3c1.3,1,2.8,1.5,4.4,2c0.8,0.3,1.6,0.5,2.3,0.9c0.8,0.3,1.5,0.8,2.2,1.2
					c1.4,1,2.7,2.1,3.9,3.3c0.1,0.1,0.2,0.1,0.3,0c0.7-1.6,1.7-3.1,3-4.4c1.1-1.2,2.5-2.2,3.8-3.2c1.2-0.9,2.3-1.8,3.2-3.1
					c0.8-1.2,1.1-2.7,0.9-4.1c-0.4-3-2.7-5.6-5.6-6.4c-1.6-0.5-3.3-0.1-4.7,0.9c-1.4,1.1-2.3,2.6-3.2,4.1c-0.1,0.2-0.2,0.3-0.3,0.5
					c-0.1,0.2,0.2,0.3,0.3,0.2c0.9-1.6,1.7-3.3,3.2-4.4c0.7-0.6,1.5-1,2.3-1.1c0.9-0.2,1.9,0,2.7,0.3c2.8,1.1,5.1,4.1,4.8,7.2
					c-0.2,2.9-2.8,4.7-5,6.3c-1.2,0.9-2.3,1.8-3.3,3c-1,1.2-1.9,2.6-2.6,4c0.1,0,0.2,0,0.3,0c-1.3-1.2-2.7-2.4-4.2-3.4
					c-1.5-1-3.2-1.6-4.9-2.2c-1.7-0.6-3.3-1.2-4.6-2.5c-1.2-1.2-2-2.9-2-4.7c0-1.4,0.5-2.7,1.5-3.7c0.9-1,2-1.6,3.2-2.1
					c2.4-1,6-1.6,7.6,1.1C196.6,339.2,196.8,339,196.7,338.9L196.7,338.9z"/>
			</g>
			<g>
				<path class="st1" d="M197.1,340.2c-1.5-2.5-4.4-4.1-7.3-3.7c-2.7,0.3-4.9,2.6-5.3,5.3c-0.2,1.4,0.1,2.7,0.9,3.9
					c0.9,1.3,2.3,2.3,3.6,3.1c2.6,1.5,5.5,2.5,8,4.3c1.1,0.8,2.1,1.7,2.9,2.8c0.1,0.2,0.4,0,0.3-0.2c-1.7-2.5-4.4-3.9-7.1-5.2
					c-1.4-0.7-2.8-1.3-4.1-2.1c-1.4-0.8-2.8-1.9-3.7-3.3c-1.5-2.5-0.3-5.9,2.1-7.4c2.6-1.7,6.1-0.9,8.2,1.2c0.5,0.4,0.9,0.9,1.2,1.5
					C197,340.5,197.2,340.4,197.1,340.2L197.1,340.2z"/>
			</g>
			<g>
				<path class="st1" d="M199.7,355.4c-0.4-0.9,0.5-1.9,1.1-2.5c0.6-0.7,1.3-1.4,1.9-2.2c1.2-1.4,2.5-2.7,3.4-4.3
					c0.9-1.4,1.5-3.1,1.5-4.8c0-1.4-0.4-2.9-1.3-4c-0.9-1.2-2.5-2.1-4-1.7c-1.4,0.3-2.3,1.8-2.7,3c0,0.1,0.1,0.2,0.2,0.1
					c0.4-0.7,0.7-1.4,1.2-2c0.6-0.6,1.3-1,2.2-0.9c1.6,0.1,2.9,1.5,3.5,2.9c1.5,3.3-0.4,6.9-2.5,9.5c-1,1.2-2.1,2.4-3.1,3.6
					c-0.5,0.5-0.9,1.1-1.3,1.7c-0.3,0.5-0.5,1.1-0.3,1.7C199.6,355.6,199.8,355.5,199.7,355.4L199.7,355.4z"/>
			</g>
			<path class="st1" d="M207.4,336.8c-0.6-0.8-1.5-1.3-2.5-1.6c-1.2-0.3-2.4,0-3.4,0.5c-0.7,0.3-1.3,0.8-1.8,1.4
				c-0.6,0.6-1.2,1.2-1.7,1.9c-0.1,0.1,0,0.2,0.1,0.2c-0.3,0.4-0.6,0.8-0.9,1.1c-0.1,0.1,0.1,0.3,0.2,0.2c0.4-0.4,0.7-0.9,1.2-1.4
				c0.5-0.5,1-0.9,1.6-1.3c0.5-0.4,1-0.7,1.7-0.9c0.7-0.2,1.4-0.1,2.1,0.1c2.4,0.5,3.5,3.3,3.5,5.5c0,1.3-0.3,2.6-0.9,3.7
				c-0.1,0.3-0.3,0.5-0.4,0.8c-0.3,0.3-0.6,0.6-1,0.9c-1,0.8-1.9,1.7-2.7,2.7c-0.8,1-1.6,2-2.2,3.1c-0.2,0.4-0.5,0.9-0.4,1.4
				c0,0.1,0.1,0.2,0.2,0.2c0.6,0.1,0.8-0.9,1-1.3c0.3-1,0.9-2,1.7-2.8c0.4-0.4,1-0.8,1.4-1.2c0.5-0.4,0.9-0.9,1.3-1.4
				c0.4-0.5,0.7-0.9,1.1-1.4c0.3-0.3,0.6-0.6,0.9-1c0.7-0.9,1.4-1.9,1.8-3C210.1,341.1,208.7,338.5,207.4,336.8z M207.9,344.9
				c-0.2,0.3-0.4,0.5-0.5,0.8c0.8-2.1,0.8-4.6-0.3-6.6c-1.1-1.9-3.1-2.9-5.3-2.5c-0.9,0.2-1.7,0.9-2.4,1.5c-0.2,0.2-0.5,0.4-0.7,0.6
				c0.3-0.3,0.6-0.6,0.9-0.9c0.5-0.5,1-1,1.5-1.4c1.2-0.8,2.5-1.2,3.9-0.8c1.1,0.3,1.9,1.2,2.6,2.1c0.7,1.1,1.3,2.2,1.5,3.5
				C209.2,342.6,208.7,343.8,207.9,344.9z"/>
			<path class="st1" d="M199.7,356.3c-0.2-0.5-0.5-0.9-0.8-1.4c-0.3-0.5-0.7-0.9-1.2-1.3c-0.9-0.8-2-1.3-3.1-1.8
				c-1.1-0.5-2.2-0.9-3.4-1.2c-0.6-0.2-1.2-0.5-1.8-0.7c-0.6-0.3-1.2-0.5-1.8-0.9c-1-0.6-2-1.7-2.5-2.8c-0.6-1.3-0.3-2.6-0.1-4
				c0.5-2.1,1.4-4.9,3.5-5.9c1.4-0.7,3.1-0.3,4.5,0.2c0.7,0.2,1.5,0.5,2.2,0.9c0.3,0.2,0.6,0.5,0.9,0.7c0.5,0.4,0.4,0.8,0.5,1.3
				c0,0.2,0.3,0.2,0.3,0c0-0.5,0.1-1-0.2-1.3c-0.4-0.4-0.8-0.7-1.2-1c-0.9-0.6-2-0.9-3-1.2c-1-0.3-2.1-0.4-3.2-0.2
				c-1,0.2-1.9,0.9-2.6,1.7c-0.7,0.8-1.1,1.8-1.4,2.8c-0.4,1.2-0.8,2.4-0.9,3.7c-0.3,2.3,1.3,4.4,3.2,5.6c0.5,0.3,1,0.5,1.5,0.8
				c0.5,0.2,1,0.5,1.6,0.7c0.5,0.2,1.1,0.3,1.6,0.4c0.6,0.2,1.2,0.4,1.7,0.7c1.1,0.4,2.1,1,3,1.6c0.5,0.4,1,0.8,1.3,1.3
				c0.2,0.2,0.3,0.5,0.5,0.7c0.1,0.2,0.3,0.4,0.4,0.5c-0.3,0-0.3,0.4,0,0.5c0.2,0,0.4,0,0.6-0.2
				C199.7,356.5,199.7,356.4,199.7,356.3z"/>
		</g>
		<g>
			<g>
				<path class="st1" d="M219.7,322.9c-0.8-1.4-2.3-2-3.8-2c-1.7-0.1-3.6,0.5-5.1,1.3c-1.4,0.7-2.7,1.7-3.3,3.2
					c-0.7,1.5-0.7,3.3-0.1,4.9c0.5,1.3,1.4,2.4,2.5,3.3c1.3,1,2.8,1.5,4.4,2c0.8,0.3,1.6,0.5,2.3,0.9c0.8,0.3,1.5,0.8,2.2,1.2
					c1.4,1,2.7,2.1,3.9,3.3c0.1,0.1,0.2,0.1,0.3,0c0.7-1.6,1.7-3.1,3-4.4c1.1-1.2,2.5-2.2,3.8-3.2c1.2-0.9,2.3-1.8,3.2-3.1
					c0.8-1.2,1.1-2.7,0.9-4.1c-0.4-3-2.7-5.6-5.6-6.4c-1.6-0.5-3.3-0.1-4.7,0.9c-1.4,1.1-2.3,2.6-3.2,4.1c-0.1,0.2-0.2,0.3-0.3,0.5
					c-0.1,0.2,0.2,0.3,0.3,0.2c0.9-1.6,1.7-3.3,3.2-4.4c0.7-0.6,1.5-1,2.3-1.1c0.9-0.2,1.9,0,2.7,0.3c2.8,1.1,5.1,4.1,4.8,7.2
					c-0.2,2.9-2.8,4.7-5,6.3c-1.2,0.9-2.3,1.8-3.3,3c-1,1.2-1.9,2.6-2.6,4c0.1,0,0.2,0,0.3,0c-1.3-1.2-2.7-2.4-4.2-3.4
					c-1.5-1-3.2-1.6-4.9-2.2c-1.7-0.6-3.3-1.2-4.6-2.5c-1.2-1.2-2-2.9-2-4.7c0-1.4,0.5-2.7,1.5-3.7c0.9-1,2-1.6,3.2-2.1
					c2.4-1,6-1.6,7.6,1.1C219.6,323.2,219.8,323,219.7,322.9L219.7,322.9z"/>
			</g>
			<g>
				<path class="st1" d="M220.1,324.2c-1.5-2.5-4.4-4.1-7.3-3.7c-2.7,0.3-4.9,2.6-5.3,5.3c-0.2,1.4,0.1,2.7,0.9,3.9
					c0.9,1.3,2.3,2.3,3.6,3.1c2.6,1.5,5.5,2.5,8,4.3c1.1,0.8,2.1,1.7,2.9,2.8c0.1,0.2,0.4,0,0.3-0.2c-1.7-2.5-4.4-3.9-7.1-5.2
					c-1.4-0.7-2.8-1.3-4.1-2.1c-1.4-0.8-2.8-1.9-3.7-3.3c-1.5-2.5-0.3-5.9,2.1-7.4c2.6-1.7,6.1-0.9,8.2,1.2c0.5,0.4,0.9,0.9,1.2,1.5
					C220,324.5,220.2,324.4,220.1,324.2L220.1,324.2z"/>
			</g>
			<g>
				<path class="st1" d="M222.7,339.4c-0.4-0.9,0.5-1.9,1.1-2.5c0.6-0.7,1.3-1.4,1.9-2.2c1.2-1.4,2.5-2.7,3.4-4.3
					c0.9-1.4,1.5-3.1,1.5-4.8c0-1.4-0.4-2.9-1.3-4c-0.9-1.2-2.5-2.1-4-1.7c-1.4,0.3-2.3,1.8-2.7,3c0,0.1,0.1,0.2,0.2,0.1
					c0.4-0.7,0.7-1.4,1.2-2c0.6-0.6,1.3-1,2.2-0.9c1.6,0.1,2.9,1.5,3.5,2.9c1.5,3.3-0.4,6.9-2.5,9.5c-1,1.2-2.1,2.4-3.1,3.6
					c-0.5,0.5-0.9,1.1-1.3,1.7c-0.3,0.5-0.5,1.1-0.3,1.7C222.6,339.6,222.8,339.5,222.7,339.4L222.7,339.4z"/>
			</g>
			<path class="st1" d="M230.4,320.8c-0.6-0.8-1.5-1.3-2.5-1.6c-1.2-0.3-2.4,0-3.4,0.5c-0.7,0.3-1.3,0.8-1.8,1.4
				c-0.6,0.6-1.2,1.2-1.7,1.9c-0.1,0.1,0,0.2,0.1,0.2c-0.3,0.4-0.6,0.8-0.9,1.1c-0.1,0.1,0.1,0.3,0.2,0.2c0.4-0.4,0.7-0.9,1.2-1.4
				c0.5-0.5,1-0.9,1.6-1.3c0.5-0.4,1-0.7,1.7-0.9c0.7-0.2,1.4-0.1,2.1,0.1c2.4,0.5,3.5,3.3,3.5,5.5c0,1.3-0.3,2.6-0.9,3.7
				c-0.1,0.3-0.3,0.5-0.4,0.8c-0.3,0.3-0.6,0.6-1,0.9c-1,0.8-1.9,1.7-2.7,2.7c-0.8,1-1.6,2-2.2,3.1c-0.2,0.4-0.5,0.9-0.4,1.4
				c0,0.1,0.1,0.2,0.2,0.2c0.6,0.1,0.8-0.9,1-1.3c0.3-1,0.9-2,1.7-2.8c0.4-0.4,1-0.8,1.4-1.2c0.5-0.4,0.9-0.9,1.3-1.4
				c0.4-0.5,0.7-0.9,1.1-1.4c0.3-0.3,0.6-0.6,0.9-1c0.7-0.9,1.4-1.9,1.8-3C233.1,325.1,231.7,322.5,230.4,320.8z M230.9,328.9
				c-0.2,0.3-0.4,0.5-0.5,0.8c0.8-2.1,0.8-4.6-0.3-6.6c-1.1-1.9-3.1-2.9-5.3-2.5c-0.9,0.2-1.7,0.9-2.4,1.5c-0.2,0.2-0.5,0.4-0.7,0.6
				c0.3-0.3,0.6-0.6,0.9-0.9c0.5-0.5,1-1,1.5-1.4c1.2-0.8,2.5-1.2,3.9-0.8c1.1,0.3,1.9,1.2,2.6,2.1c0.7,1.1,1.3,2.2,1.5,3.5
				C232.2,326.6,231.7,327.8,230.9,328.9z"/>
			<path class="st1" d="M222.7,340.3c-0.2-0.5-0.5-0.9-0.8-1.4c-0.3-0.5-0.7-0.9-1.2-1.3c-0.9-0.8-2-1.3-3.1-1.8
				c-1.1-0.5-2.2-0.9-3.4-1.2c-0.6-0.2-1.2-0.5-1.8-0.7c-0.6-0.3-1.2-0.5-1.8-0.9c-1-0.6-2-1.7-2.5-2.8c-0.6-1.3-0.3-2.6-0.1-4
				c0.5-2.1,1.4-4.9,3.5-5.9c1.4-0.7,3.1-0.3,4.5,0.2c0.7,0.2,1.5,0.5,2.2,0.9c0.3,0.2,0.6,0.5,0.9,0.7c0.5,0.4,0.4,0.8,0.5,1.3
				c0,0.2,0.3,0.2,0.3,0c0-0.5,0.1-1-0.2-1.3c-0.4-0.4-0.8-0.7-1.2-1c-0.9-0.6-2-0.9-3-1.2c-1-0.3-2.1-0.4-3.2-0.2
				c-1,0.2-1.9,0.9-2.6,1.7c-0.7,0.8-1.1,1.8-1.4,2.8c-0.4,1.2-0.8,2.4-0.9,3.7c-0.3,2.3,1.3,4.4,3.2,5.6c0.5,0.3,1,0.5,1.5,0.8
				c0.5,0.2,1,0.5,1.6,0.7c0.5,0.2,1.1,0.3,1.6,0.4c0.6,0.2,1.2,0.4,1.7,0.7c1.1,0.4,2.1,1,3,1.6c0.5,0.4,1,0.8,1.3,1.3
				c0.2,0.2,0.3,0.5,0.5,0.7c0.1,0.2,0.3,0.4,0.4,0.5c-0.3,0-0.3,0.4,0,0.5c0.2,0,0.4,0,0.6-0.2
				C222.7,340.5,222.7,340.4,222.7,340.3z"/>
		</g>
		<g>
			<g>
				<path class="st1" d="M171.7,356.9c-0.8-1.4-2.3-2-3.8-2c-1.7-0.1-3.6,0.5-5.1,1.3c-1.4,0.7-2.7,1.7-3.3,3.2
					c-0.7,1.5-0.7,3.3-0.1,4.9c0.5,1.3,1.4,2.4,2.5,3.3c1.3,1,2.8,1.5,4.4,2c0.8,0.3,1.6,0.5,2.3,0.9c0.8,0.3,1.5,0.8,2.2,1.2
					c1.4,1,2.7,2.1,3.9,3.3c0.1,0.1,0.2,0.1,0.3,0c0.7-1.6,1.7-3.1,3-4.4c1.1-1.2,2.5-2.2,3.8-3.2c1.2-0.9,2.3-1.8,3.2-3.1
					c0.8-1.2,1.1-2.7,0.9-4.1c-0.4-3-2.7-5.6-5.6-6.4c-1.6-0.5-3.3-0.1-4.7,0.9c-1.4,1.1-2.3,2.6-3.2,4.1c-0.1,0.2-0.2,0.3-0.3,0.5
					c-0.1,0.2,0.2,0.3,0.3,0.2c0.9-1.6,1.7-3.3,3.2-4.4c0.7-0.6,1.5-1,2.3-1.1c0.9-0.2,1.9,0,2.7,0.3c2.8,1.1,5.1,4.1,4.8,7.2
					c-0.2,2.9-2.8,4.7-5,6.3c-1.2,0.9-2.3,1.8-3.3,3c-1,1.2-1.9,2.6-2.6,4c0.1,0,0.2,0,0.3,0c-1.3-1.2-2.7-2.4-4.2-3.4
					c-1.5-1-3.2-1.6-4.9-2.2c-1.7-0.6-3.3-1.2-4.6-2.5c-1.2-1.2-2-2.9-2-4.7c0-1.4,0.5-2.7,1.5-3.7c0.9-1,2-1.6,3.2-2.1
					c2.4-1,6-1.6,7.6,1.1C171.6,357.2,171.8,357,171.7,356.9L171.7,356.9z"/>
			</g>
			<g>
				<path class="st1" d="M172.1,358.2c-1.5-2.5-4.4-4.1-7.3-3.7c-2.7,0.3-4.9,2.6-5.3,5.3c-0.2,1.4,0.1,2.7,0.9,3.9
					c0.9,1.3,2.3,2.3,3.6,3.1c2.6,1.5,5.5,2.5,8,4.3c1.1,0.8,2.1,1.7,2.9,2.8c0.1,0.2,0.4,0,0.3-0.2c-1.7-2.5-4.4-3.9-7.1-5.2
					c-1.4-0.7-2.8-1.3-4.1-2.1c-1.4-0.8-2.8-1.9-3.7-3.3c-1.5-2.5-0.3-5.9,2.1-7.4c2.6-1.7,6.1-0.9,8.2,1.2c0.5,0.4,0.9,0.9,1.2,1.5
					C172,358.5,172.2,358.4,172.1,358.2L172.1,358.2z"/>
			</g>
			<g>
				<path class="st1" d="M174.7,373.4c-0.4-0.9,0.5-1.9,1.1-2.5c0.6-0.7,1.3-1.4,1.9-2.2c1.2-1.4,2.5-2.7,3.4-4.3
					c0.9-1.4,1.5-3.1,1.5-4.8c0-1.4-0.4-2.9-1.3-4c-0.9-1.2-2.5-2.1-4-1.7c-1.4,0.3-2.3,1.8-2.7,3c0,0.1,0.1,0.2,0.2,0.1
					c0.4-0.7,0.7-1.4,1.2-2c0.6-0.6,1.3-1,2.2-0.9c1.6,0.1,2.9,1.5,3.5,2.9c1.5,3.3-0.4,6.9-2.5,9.5c-1,1.2-2.1,2.4-3.1,3.6
					c-0.5,0.5-0.9,1.1-1.3,1.7c-0.3,0.5-0.5,1.1-0.3,1.7C174.6,373.6,174.8,373.5,174.7,373.4L174.7,373.4z"/>
			</g>
			<path class="st1" d="M182.4,354.8c-0.6-0.8-1.5-1.3-2.5-1.6c-1.2-0.3-2.4,0-3.4,0.5c-0.7,0.3-1.3,0.8-1.8,1.4
				c-0.6,0.6-1.2,1.2-1.7,1.9c-0.1,0.1,0,0.2,0.1,0.2c-0.3,0.4-0.6,0.8-0.9,1.1c-0.1,0.1,0.1,0.3,0.2,0.2c0.4-0.4,0.7-0.9,1.2-1.4
				c0.5-0.5,1-0.9,1.6-1.3c0.5-0.4,1-0.7,1.7-0.9c0.7-0.2,1.4-0.1,2.1,0.1c2.4,0.5,3.5,3.3,3.5,5.5c0,1.3-0.3,2.6-0.9,3.7
				c-0.1,0.3-0.3,0.5-0.4,0.8c-0.3,0.3-0.6,0.6-1,0.9c-1,0.8-1.9,1.7-2.7,2.7c-0.8,1-1.6,2-2.2,3.1c-0.2,0.4-0.5,0.9-0.4,1.4
				c0,0.1,0.1,0.2,0.2,0.2c0.6,0.1,0.8-0.9,1-1.3c0.3-1,0.9-2,1.7-2.8c0.4-0.4,1-0.8,1.4-1.2c0.5-0.4,0.9-0.9,1.3-1.4
				c0.4-0.5,0.7-0.9,1.1-1.4c0.3-0.3,0.6-0.6,0.9-1c0.7-0.9,1.4-1.9,1.8-3C185.1,359.1,183.7,356.5,182.4,354.8z M182.9,362.9
				c-0.2,0.3-0.4,0.5-0.5,0.8c0.8-2.1,0.8-4.6-0.3-6.6c-1.1-1.9-3.1-2.9-5.3-2.5c-0.9,0.2-1.7,0.9-2.4,1.5c-0.2,0.2-0.5,0.4-0.7,0.6
				c0.3-0.3,0.6-0.6,0.9-0.9c0.5-0.5,1-1,1.5-1.4c1.2-0.8,2.5-1.2,3.9-0.8c1.1,0.3,1.9,1.2,2.6,2.1c0.7,1.1,1.3,2.2,1.5,3.5
				C184.2,360.6,183.7,361.8,182.9,362.9z"/>
			<path class="st1" d="M174.7,374.3c-0.2-0.5-0.5-0.9-0.8-1.4c-0.3-0.5-0.7-0.9-1.2-1.3c-0.9-0.8-2-1.3-3.1-1.8
				c-1.1-0.5-2.2-0.9-3.4-1.2c-0.6-0.2-1.2-0.5-1.8-0.7c-0.6-0.3-1.2-0.5-1.8-0.9c-1-0.6-2-1.7-2.5-2.8c-0.6-1.3-0.3-2.6-0.1-4
				c0.5-2.1,1.4-4.9,3.5-5.9c1.4-0.7,3.1-0.3,4.5,0.2c0.7,0.2,1.5,0.5,2.2,0.9c0.3,0.2,0.6,0.5,0.9,0.7c0.5,0.4,0.4,0.8,0.5,1.3
				c0,0.2,0.3,0.2,0.3,0c0-0.5,0.1-1-0.2-1.3c-0.4-0.4-0.8-0.7-1.2-1c-0.9-0.6-2-0.9-3-1.2c-1-0.3-2.1-0.4-3.2-0.2
				c-1,0.2-1.9,0.9-2.6,1.7c-0.7,0.8-1.1,1.8-1.4,2.8c-0.4,1.2-0.8,2.4-0.9,3.7c-0.3,2.3,1.3,4.4,3.2,5.6c0.5,0.3,1,0.5,1.5,0.8
				c0.5,0.2,1,0.5,1.6,0.7c0.5,0.2,1.1,0.3,1.6,0.4c0.6,0.2,1.2,0.4,1.7,0.7c1.1,0.4,2.1,1,3,1.6c0.5,0.4,1,0.8,1.3,1.3
				c0.2,0.2,0.3,0.5,0.5,0.7c0.1,0.2,0.3,0.4,0.4,0.5c-0.3,0-0.3,0.4,0,0.5c0.2,0,0.4,0,0.6-0.2
				C174.7,374.5,174.7,374.4,174.7,374.3z"/>
		</g>
		<g>
			<g>
				<path class="st1" d="M212.7,363.9c-0.8-1.4-2.3-2-3.8-2c-1.7-0.1-3.6,0.5-5.1,1.3c-1.4,0.7-2.7,1.7-3.3,3.2
					c-0.7,1.5-0.7,3.3-0.1,4.9c0.5,1.3,1.4,2.4,2.5,3.3c1.3,1,2.8,1.5,4.4,2c0.8,0.3,1.6,0.5,2.3,0.9c0.8,0.3,1.5,0.8,2.2,1.2
					c1.4,1,2.7,2.1,3.9,3.3c0.1,0.1,0.2,0.1,0.3,0c0.7-1.6,1.7-3.1,3-4.4c1.1-1.2,2.5-2.2,3.8-3.2c1.2-0.9,2.3-1.8,3.2-3.1
					c0.8-1.2,1.1-2.7,0.9-4.1c-0.4-3-2.7-5.6-5.6-6.4c-1.6-0.5-3.3-0.1-4.7,0.9c-1.4,1.1-2.3,2.6-3.2,4.1c-0.1,0.2-0.2,0.3-0.3,0.5
					c-0.1,0.2,0.2,0.3,0.3,0.2c0.9-1.6,1.7-3.3,3.2-4.4c0.7-0.6,1.5-1,2.3-1.1c0.9-0.2,1.9,0,2.7,0.3c2.8,1.1,5.1,4.1,4.8,7.2
					c-0.2,2.9-2.8,4.7-5,6.3c-1.2,0.9-2.3,1.8-3.3,3c-1,1.2-1.9,2.6-2.6,4c0.1,0,0.2,0,0.3,0c-1.3-1.2-2.7-2.4-4.2-3.4
					c-1.5-1-3.2-1.6-4.9-2.2c-1.7-0.6-3.3-1.2-4.6-2.5c-1.2-1.2-2-2.9-2-4.7c0-1.4,0.5-2.7,1.5-3.7c0.9-1,2-1.6,3.2-2.1
					c2.4-1,6-1.6,7.6,1.1C212.6,364.2,212.8,364,212.7,363.9L212.7,363.9z"/>
			</g>
			<g>
				<path class="st1" d="M213.1,365.2c-1.5-2.5-4.4-4.1-7.3-3.7c-2.7,0.3-4.9,2.6-5.3,5.3c-0.2,1.4,0.1,2.7,0.9,3.9
					c0.9,1.3,2.3,2.3,3.6,3.1c2.6,1.5,5.5,2.5,8,4.3c1.1,0.8,2.1,1.7,2.9,2.8c0.1,0.2,0.4,0,0.3-0.2c-1.7-2.5-4.4-3.9-7.1-5.2
					c-1.4-0.7-2.8-1.3-4.1-2.1c-1.4-0.8-2.8-1.9-3.7-3.3c-1.5-2.5-0.3-5.9,2.1-7.4c2.6-1.7,6.1-0.9,8.2,1.2c0.5,0.4,0.9,0.9,1.2,1.5
					C213,365.5,213.2,365.4,213.1,365.2L213.1,365.2z"/>
			</g>
			<g>
				<path class="st1" d="M215.7,380.4c-0.4-0.9,0.5-1.9,1.1-2.5c0.6-0.7,1.3-1.4,1.9-2.2c1.2-1.4,2.5-2.7,3.4-4.3
					c0.9-1.4,1.5-3.1,1.5-4.8c0-1.4-0.4-2.9-1.3-4c-0.9-1.2-2.5-2.1-4-1.7c-1.4,0.3-2.3,1.8-2.7,3c0,0.1,0.1,0.2,0.2,0.1
					c0.4-0.7,0.7-1.4,1.2-2c0.6-0.6,1.3-1,2.2-0.9c1.6,0.1,2.9,1.5,3.5,2.9c1.5,3.3-0.4,6.9-2.5,9.5c-1,1.2-2.1,2.4-3.1,3.6
					c-0.5,0.5-0.9,1.1-1.3,1.7c-0.3,0.5-0.5,1.1-0.3,1.7C215.6,380.6,215.8,380.5,215.7,380.4L215.7,380.4z"/>
			</g>
			<path class="st1" d="M223.4,361.8c-0.6-0.8-1.5-1.3-2.5-1.6c-1.2-0.3-2.4,0-3.4,0.5c-0.7,0.3-1.3,0.8-1.8,1.4
				c-0.6,0.6-1.2,1.2-1.7,1.9c-0.1,0.1,0,0.2,0.1,0.2c-0.3,0.4-0.6,0.8-0.9,1.1c-0.1,0.1,0.1,0.3,0.2,0.2c0.4-0.4,0.7-0.9,1.2-1.4
				c0.5-0.5,1-0.9,1.6-1.3c0.5-0.4,1-0.7,1.7-0.9c0.7-0.2,1.4-0.1,2.1,0.1c2.4,0.5,3.5,3.3,3.5,5.5c0,1.3-0.3,2.6-0.9,3.7
				c-0.1,0.3-0.3,0.5-0.4,0.8c-0.3,0.3-0.6,0.6-1,0.9c-1,0.8-1.9,1.7-2.7,2.7c-0.8,1-1.6,2-2.2,3.1c-0.2,0.4-0.5,0.9-0.4,1.4
				c0,0.1,0.1,0.2,0.2,0.2c0.6,0.1,0.8-0.9,1-1.3c0.3-1,0.9-2,1.7-2.8c0.4-0.4,1-0.8,1.4-1.2c0.5-0.4,0.9-0.9,1.3-1.4
				c0.4-0.5,0.7-0.9,1.1-1.4c0.3-0.3,0.6-0.6,0.9-1c0.7-0.9,1.4-1.9,1.8-3C226.1,366.1,224.7,363.5,223.4,361.8z M223.9,369.9
				c-0.2,0.3-0.4,0.5-0.5,0.8c0.8-2.1,0.8-4.6-0.3-6.6c-1.1-1.9-3.1-2.9-5.3-2.5c-0.9,0.2-1.7,0.9-2.4,1.5c-0.2,0.2-0.5,0.4-0.7,0.6
				c0.3-0.3,0.6-0.6,0.9-0.9c0.5-0.5,1-1,1.5-1.4c1.2-0.8,2.5-1.2,3.9-0.8c1.1,0.3,1.9,1.2,2.6,2.1c0.7,1.1,1.3,2.2,1.5,3.5
				C225.2,367.6,224.7,368.8,223.9,369.9z"/>
			<path class="st1" d="M215.7,381.3c-0.2-0.5-0.5-0.9-0.8-1.4c-0.3-0.5-0.7-0.9-1.2-1.3c-0.9-0.8-2-1.3-3.1-1.8
				c-1.1-0.5-2.2-0.9-3.4-1.2c-0.6-0.2-1.2-0.5-1.8-0.7c-0.6-0.3-1.2-0.5-1.8-0.9c-1-0.6-2-1.7-2.5-2.8c-0.6-1.3-0.3-2.6-0.1-4
				c0.5-2.1,1.4-4.9,3.5-5.9c1.4-0.7,3.1-0.3,4.5,0.2c0.7,0.2,1.5,0.5,2.2,0.9c0.3,0.2,0.6,0.5,0.9,0.7c0.5,0.4,0.4,0.8,0.5,1.3
				c0,0.2,0.3,0.2,0.3,0c0-0.5,0.1-1-0.2-1.3c-0.4-0.4-0.8-0.7-1.2-1c-0.9-0.6-2-0.9-3-1.2c-1-0.3-2.1-0.4-3.2-0.2
				c-1,0.2-1.9,0.9-2.6,1.7c-0.7,0.8-1.1,1.8-1.4,2.8c-0.4,1.2-0.8,2.4-0.9,3.7c-0.3,2.3,1.3,4.4,3.2,5.6c0.5,0.3,1,0.5,1.5,0.8
				c0.5,0.2,1,0.5,1.6,0.7c0.5,0.2,1.1,0.3,1.6,0.4c0.6,0.2,1.2,0.4,1.7,0.7c1.1,0.4,2.1,1,3,1.6c0.5,0.4,1,0.8,1.3,1.3
				c0.2,0.2,0.3,0.5,0.5,0.7c0.1,0.2,0.3,0.4,0.4,0.5c-0.3,0-0.3,0.4,0,0.5c0.2,0,0.4,0,0.6-0.2
				C215.7,381.5,215.7,381.4,215.7,381.3z"/>
		</g>
		<g>
			<g>
				<path class="st1" d="M185.7,378.9c-0.8-1.4-2.3-2-3.8-2c-1.7-0.1-3.6,0.5-5.1,1.3c-1.4,0.7-2.7,1.7-3.3,3.2
					c-0.7,1.5-0.7,3.3-0.1,4.9c0.5,1.3,1.4,2.4,2.5,3.3c1.3,1,2.8,1.5,4.4,2c0.8,0.3,1.6,0.5,2.3,0.9c0.8,0.3,1.5,0.8,2.2,1.2
					c1.4,1,2.7,2.1,3.9,3.3c0.1,0.1,0.2,0.1,0.3,0c0.7-1.6,1.7-3.1,3-4.4c1.1-1.2,2.5-2.2,3.8-3.2c1.2-0.9,2.3-1.8,3.2-3.1
					c0.8-1.2,1.1-2.7,0.9-4.1c-0.4-3-2.7-5.6-5.6-6.4c-1.6-0.5-3.3-0.1-4.7,0.9c-1.4,1.1-2.3,2.6-3.2,4.1c-0.1,0.2-0.2,0.3-0.3,0.5
					c-0.1,0.2,0.2,0.3,0.3,0.2c0.9-1.6,1.7-3.3,3.2-4.4c0.7-0.6,1.5-1,2.3-1.1c0.9-0.2,1.9,0,2.7,0.3c2.8,1.1,5.1,4.1,4.8,7.2
					c-0.2,2.9-2.8,4.7-5,6.3c-1.2,0.9-2.3,1.8-3.3,3c-1,1.2-1.9,2.6-2.6,4c0.1,0,0.2,0,0.3,0c-1.3-1.2-2.7-2.4-4.2-3.4
					c-1.5-1-3.2-1.6-4.9-2.2c-1.7-0.6-3.3-1.2-4.6-2.5c-1.2-1.2-2-2.9-2-4.7c0-1.4,0.5-2.7,1.5-3.7c0.9-1,2-1.6,3.2-2.1
					c2.4-1,6-1.6,7.6,1.1C185.6,379.2,185.8,379,185.7,378.9L185.7,378.9z"/>
			</g>
			<g>
				<path class="st1" d="M186.1,380.2c-1.5-2.5-4.4-4.1-7.3-3.7c-2.7,0.3-4.9,2.6-5.3,5.3c-0.2,1.4,0.1,2.7,0.9,3.9
					c0.9,1.3,2.3,2.3,3.6,3.1c2.6,1.5,5.5,2.5,8,4.3c1.1,0.8,2.1,1.7,2.9,2.8c0.1,0.2,0.4,0,0.3-0.2c-1.7-2.5-4.4-3.9-7.1-5.2
					c-1.4-0.7-2.8-1.3-4.1-2.1c-1.4-0.8-2.8-1.9-3.7-3.3c-1.5-2.5-0.3-5.9,2.1-7.4c2.6-1.7,6.1-0.9,8.2,1.2c0.5,0.4,0.9,0.9,1.2,1.5
					C186,380.5,186.2,380.4,186.1,380.2L186.1,380.2z"/>
			</g>
			<g>
				<path class="st1" d="M188.7,395.4c-0.4-0.9,0.5-1.9,1.1-2.5c0.6-0.7,1.3-1.4,1.9-2.2c1.2-1.4,2.5-2.7,3.4-4.3
					c0.9-1.4,1.5-3.1,1.5-4.8c0-1.4-0.4-2.9-1.3-4c-0.9-1.2-2.5-2.1-4-1.7c-1.4,0.3-2.3,1.8-2.7,3c0,0.1,0.1,0.2,0.2,0.1
					c0.4-0.7,0.7-1.4,1.2-2c0.6-0.6,1.3-1,2.2-0.9c1.6,0.1,2.9,1.5,3.5,2.9c1.5,3.3-0.4,6.9-2.5,9.5c-1,1.2-2.1,2.4-3.1,3.6
					c-0.5,0.5-0.9,1.1-1.3,1.7c-0.3,0.5-0.5,1.1-0.3,1.7C188.6,395.6,188.8,395.5,188.7,395.4L188.7,395.4z"/>
			</g>
			<path class="st1" d="M196.4,376.8c-0.6-0.8-1.5-1.3-2.5-1.6c-1.2-0.3-2.4,0-3.4,0.5c-0.7,0.3-1.3,0.8-1.8,1.4
				c-0.6,0.6-1.2,1.2-1.7,1.9c-0.1,0.1,0,0.2,0.1,0.2c-0.3,0.4-0.6,0.8-0.9,1.1c-0.1,0.1,0.1,0.3,0.2,0.2c0.4-0.4,0.7-0.9,1.2-1.4
				c0.5-0.5,1-0.9,1.6-1.3c0.5-0.4,1-0.7,1.7-0.9c0.7-0.2,1.4-0.1,2.1,0.1c2.4,0.5,3.5,3.3,3.5,5.5c0,1.3-0.3,2.6-0.9,3.7
				c-0.1,0.3-0.3,0.5-0.4,0.8c-0.3,0.3-0.6,0.6-1,0.9c-1,0.8-1.9,1.7-2.7,2.7c-0.8,1-1.6,2-2.2,3.1c-0.2,0.4-0.5,0.9-0.4,1.4
				c0,0.1,0.1,0.2,0.2,0.2c0.6,0.1,0.8-0.9,1-1.3c0.3-1,0.9-2,1.7-2.8c0.4-0.4,1-0.8,1.4-1.2c0.5-0.4,0.9-0.9,1.3-1.4
				c0.4-0.5,0.7-0.9,1.1-1.4c0.3-0.3,0.6-0.6,0.9-1c0.7-0.9,1.4-1.9,1.8-3C199.1,381.1,197.7,378.5,196.4,376.8z M196.9,384.9
				c-0.2,0.3-0.4,0.5-0.5,0.8c0.8-2.1,0.8-4.6-0.3-6.6c-1.1-1.9-3.1-2.9-5.3-2.5c-0.9,0.2-1.7,0.9-2.4,1.5c-0.2,0.2-0.5,0.4-0.7,0.6
				c0.3-0.3,0.6-0.6,0.9-0.9c0.5-0.5,1-1,1.5-1.4c1.2-0.8,2.5-1.2,3.9-0.8c1.1,0.3,1.9,1.2,2.6,2.1c0.7,1.1,1.3,2.2,1.5,3.5
				C198.2,382.6,197.7,383.8,196.9,384.9z"/>
			<path class="st1" d="M188.7,396.3c-0.2-0.5-0.5-0.9-0.8-1.4c-0.3-0.5-0.7-0.9-1.2-1.3c-0.9-0.8-2-1.3-3.1-1.8
				c-1.1-0.5-2.2-0.9-3.4-1.2c-0.6-0.2-1.2-0.5-1.8-0.7c-0.6-0.3-1.2-0.5-1.8-0.9c-1-0.6-2-1.7-2.5-2.8c-0.6-1.3-0.3-2.6-0.1-4
				c0.5-2.1,1.4-4.9,3.5-5.9c1.4-0.7,3.1-0.3,4.5,0.2c0.7,0.2,1.5,0.5,2.2,0.9c0.3,0.2,0.6,0.5,0.9,0.7c0.5,0.4,0.4,0.8,0.5,1.3
				c0,0.2,0.3,0.2,0.3,0c0-0.5,0.1-1-0.2-1.3c-0.4-0.4-0.8-0.7-1.2-1c-0.9-0.6-2-0.9-3-1.2c-1-0.3-2.1-0.4-3.2-0.2
				c-1,0.2-1.9,0.9-2.6,1.7c-0.7,0.8-1.1,1.8-1.4,2.8c-0.4,1.2-0.8,2.4-0.9,3.7c-0.3,2.3,1.3,4.4,3.2,5.6c0.5,0.3,1,0.5,1.5,0.8
				c0.5,0.2,1,0.5,1.6,0.7c0.5,0.2,1.1,0.3,1.6,0.4c0.6,0.2,1.2,0.4,1.7,0.7c1.1,0.4,2.1,1,3,1.6c0.5,0.4,1,0.8,1.3,1.3
				c0.2,0.2,0.3,0.5,0.5,0.7c0.1,0.2,0.3,0.4,0.4,0.5c-0.3,0-0.3,0.4,0,0.5c0.2,0,0.4,0,0.6-0.2
				C188.7,396.5,188.7,396.4,188.7,396.3z"/>
		</g>
	</g>
</g>
</svg>
