<?xml version="1.0" encoding="utf-8"?>
<!-- Generator: Adobe Illustrator 21.0.0, SVG Export Plug-In . SVG Version: 6.00 Build 0)  -->
<svg version="1.1" id="Layer_1" xmlns="http://www.w3.org/2000/svg" xmlns:xlink="http://www.w3.org/1999/xlink" x="0px" y="0px"
	 viewBox="0 0 389.9 464.9" style="enable-background:new 0 0 389.9 464.9;" xml:space="preserve">
<style type="text/css">
	.st0{fill:#71CBE9;}
	.st1{fill:#1C1B1C;}
	.st2{fill-rule:evenodd;clip-rule:evenodd;fill:#FFFFFF;}
	.st3{fill-rule:evenodd;clip-rule:evenodd;fill:#3E3E51;}
	.st4{fill-rule:evenodd;clip-rule:evenodd;fill:#414143;}
</style>
<path class="st0" d="M356,454.7H41.4c-15.6,0-28.3-12.8-28.3-28.3v-398C13.1,12.8,25.8,0,41.4,0H356c15.6,0,28.3,12.8,28.3,28.3v398
	C384.3,442,371.5,454.7,356,454.7z"/>
<path class="st1" d="M83.2,464.4c13.4-0.9,26.6-2.6,39.9-3.7c27.5-2.2,54.9-5.1,82.4-7.4c27.4-2.3,55-4,82.6-4.1
	c25.2-0.1,50.6,1.6,75.8-0.1c6.2-0.4,12.9-0.8,15.7-5.1c1.6-2.5,0.6-6.3,0.8-8.9c0.4-5,0.3-10,0.2-15.1c-0.3-18.4-0.5-36.6,0.6-55
	c1.2-18.7,1.7-37.2,0.6-55.9c-1.1-18.4-1.1-36.9-2.5-55.3c-1.4-19.2-7.8-38-7-57.2c0.4-9.7-2.8-19.3-2.8-29.1c0-10.2,0-20.5,0-30.7
	c-0.1-20.6-0.7-41.1,1.7-61.7c1.2-10.2,2.8-20.4,3.8-30.7c0.5-4.9,0.9-9.7,1.5-14.6c0.6-4.2,2.4-8.2,1.9-12.4
	c-0.1-0.6-0.4-1-0.8-1.3c3.4,0.4,6.7,1.1,9.4,2.4c1.8,0.8,4-1.1,2.3-2c-9.5-5-24.6-4.4-35.9-4.3c-17.7,0.1-35.4-1.5-53.1-2.1
	c-36.5-1.3-73-1.5-109.5-2.5c-34.9-1-69.8-1.8-104.8-2.3C71.5,5,57.5,6,43.1,7.7c-4.9,0.6-10.7,0.9-16,1.8
	c-10.4-3-15.6,8.6-18.4,14.3C1.6,38,0,53.2,0,68.1c-0.1,36.1,3.7,72.6,8.3,108.6c4.7,37.2,10.3,74.4,16.2,111.5
	c5.9,37.2,5.2,74.1,5,111.4c0,5.8,0.2,11.5,0.5,17.3c0.3,5.7-1.3,10.9-2.7,16.5c-1.5,6-2.8,14.5,4.4,19.1c1.6,1,4.2,1.1,5.8,0
	c0.6-0.4,1.2-0.8,1.8-1.3c2.5-1.7,0.1-4.6-2.9-4.5c-2.6-5.1-0.4-12.3,1.2-17c2.8-8.4,1-17.2,1-25.7c0-18.5,0.5-37,0.3-55.5
	c-0.3-37.4-7.7-74.6-13.2-111.7c-5.5-37.1-11.3-74.3-14.3-111.5C10,107.7,8.8,89.9,8,72.3C7.3,56.4,8.7,40.3,15.5,25
	c1-2.2,2.1-4.3,3.4-6.4c0.9,0,1.9-0.3,2.8-0.9c6-4.1,18.5-3.8,26.5-4.9c15.6-2.1,31.3-2.1,47.1-1.8c31.8,0.6,63.7,0.8,95.5,1.6
	c33.2,0.8,66.3,0.9,99.5,1.5c16.6,0.3,33.1,1.2,49.7,1.5c7.8,0.2,15.6-0.1,23.4-0.1c3.1,0,6.5,0,9.8,0.2c-0.7,0.3-1.2,0.9-1.2,1.7
	c0.1,3.6-1.6,6.9-2.2,10.4c-0.8,4.1-1.3,8.3-1.8,12.5c-1.1,9.4-2.6,18.8-4,28.2c-2.8,18.4-3.2,36.7-3.3,55.2
	c-0.1,18.1-1.7,36.5,0,54.5c0.8,8.5,2.6,16.5,2.2,25c-0.4,9.1,2.6,18,4.1,27c3.1,18.1,3.2,36.1,4,54.3c0.9,18.7,2.7,37.3,2.2,56
	c-0.6,18.6-2.5,37.2-2.6,55.9c0,8.6,0.5,17.2,0.6,25.8c0.1,4.3,0,8.6-0.3,12.9c-0.1,2-0.4,3.9-0.3,5.9c0.1,1.7-5.3,1.5-6.8,1.6
	c-25.2,1.5-50.6,0-75.8-0.1c-27.6-0.1-55.2,1.8-82.6,4c-27.5,2.3-54.9,5.1-82.4,7.4c-12.3,1-24.5,2.4-36.8,3.5
	c-14,1.2-28,0.7-42.1,0.7c-6.5,0-6.5,6.8,0,6.8C57.2,464.8,70.2,465.2,83.2,464.4z"/>
<polygon class="st2" points="90.3,118.1 151.1,341.9 299.4,300.2 238.3,73 "/>
<g>
	<g>
		<path class="st3" d="M157,158.2c1.9,2.6-1.9,6.5-4.4,4.2c-0.8,0.4-1.3,1-2.2,1c-2.6,0.1-4.7-2.8-2.8-4.9c-1.4-2.3,0.5-5.5,3.7-4.9
			c0.3,0,0.8,0.9,1.1,0.9c0.2,0,0.3-0.3,0.5-0.5c1.2-1,3.4-1.1,4.4,0.6c0.2,0.4,0.2,0.9,0.6,1.3C157.7,156.9,157.6,157.6,157,158.2z
			 M156.4,154.7c-0.8-0.9-2-0.9-3-0.3c-0.1,0.3-0.4,0.5-0.6,0.7c0,0.6,0.5,1.1,0.3,1.9c1.2-0.2,2.4-0.3,3.3,0.5
			C157.2,156.8,157.1,155.4,156.4,154.7z M147.7,157.1c0.2,2.9,4.4,2.5,4.9,0.1c0.3-1.1-0.9-2.2-1.5-2.9
			C149.4,154,147.6,155.2,147.7,157.1z M153.8,162.4c1.5,0.1,2.7-1.1,2.9-2.4c0.1-2.4-2.8-3.3-4.2-1.6c1,0.8,1,2.5,0.3,3.5
			C153.3,162.1,153.5,162.3,153.8,162.4z M150.6,162.8c0.6-0.2,1.3-0.8,1.9-1.3c0.2-0.7,0.5-1.7,0.1-2.2c-0.4-0.6-0.8,0.1-1.3,0.3
			c-1,0.4-2.6,0.1-3.4-0.5C147,160.8,148.1,163.2,150.6,162.8z"/>
		<path class="st3" d="M160,146.9c1.5-0.6,3.3-1.2,4.7-1.9c0-1.2,1.1-2.1,2.3-2.2c0.9-0.1,2,0.9,2.3,1.5c2.3-0.4,5-1.1,7.5-1.1
			c0.5,0,0.9,0.2,1.3,0.3c0.8,0.1,1.6,0.2,2.3,0.3c0.7,0.9,1.7,2.1,0.9,3.4c-0.2,0.4-0.7,0.9-1.2,1.5c-0.4,0.5-0.8,1.2-1.1,1.5
			c-0.3,0.3-0.8,0.5-1.1,0.8c-0.9,0.9-2.1,2-2.9,2.9c-1.3,1.3-2.7,2.4-4,3.8c-1.2,0.7-2,1.7-3.3,2.3c2.8,2.2,5.8,5,8.3,8
			c0.7,0.9,1.5,1.6,2,2.4c0.1,0.2,0.1,0.5,0.3,0.7c0.1,0.2,0.3,0.3,0.4,0.5c0.1,0.2,0,0.5,0.1,0.7c0.2,0.5,0.8,0.7,0.8,1.4
			c0,0.4-0.3,0.8-0.2,1.1c-0.4,0.4-0.6,0.8-0.8,1c-0.8,0.6-1.3,0.4-2.2,0.5c-0.3,0-0.4,0.2-0.7,0.2c-0.8,0.1-1.9-0.1-2.6-0.2
			c-4.7-0.7-9.3-3.6-13.2-5.3c-0.5,1.6,0.1,3.8-1,4.9c0.7,0.5,1.5,0.9,1.7,1.7c0.4,1.5-1,3.4-2.9,3c-1.1,2-1.6,4.2-2.9,5.8
			c-0.4,0.5-0.9,1-1.3,1.3c-0.4,0.3-0.9,0.3-1.4,0.4c-0.6,0.2-1.4,0.6-2,0.2c-1-1.4-1.7-2.9-2.6-4.2c-0.5-2-1.1-3.3-1.7-5.1
			c-0.1-2.6-0.8-5-0.7-7.9c-2.7,0.5-5.6,1.8-8.8,2.4c-2.4,0.4-5.1,1.1-8,0.8c-0.2,0-0.6-0.1-0.8-0.1c-0.2-0.1-0.4-0.4-0.8-0.7
			c-0.2-0.1-0.4-0.1-0.6-0.2c-1.2-1.1-0.5-2.3,0.1-3.7c3.9-4.1,7.6-8.5,12.5-11.7c-1-0.9-2.1-2-3.3-3c-2.8-2.3-5.6-4.7-7.8-7.7
			c-0.7-0.9-1.8-2.7-1.3-3.9c0.3-0.6,1-0.8,1.5-1.3c1,0.1,2.8-0.3,4.4-0.1c0.7,0.1,1.9,0.6,2.4,0.4c0.5-0.1,0.7-0.8,1.2-1.1
			c0.3-0.1,0.7-0.2,1.1-0.2c1.4,0.1,2.7,1.3,2.3,2.9c2.3,0.9,4.7,1.7,6.7,2.8c0.2-3.2,0.8-6.6,1.6-10.1c0.3-1.1,0.5-2.4,0.9-3.3
			c0.1-0.3,0.5-0.7,0.7-1c0.9-1.6,1.9-2.3,3.9-2.8c3.1,0.2,4.1,3.2,5.1,5.7c0.3,2.1,0.9,4.5,1.1,6.7
			C159.7,143.2,159.7,145,160,146.9z M127.1,143.4c-0.1,1.5,0.7,2.3,1.4,3.2c1.2,1.6,2.8,3.4,4.3,4.5c1.3,1.5,3.1,2.8,4.5,4.2
			c0.5,0.4,1.1,1.2,1.4,1c-0.1,0.4,0.6,0.6,0.8,0.9c2.1-1.4,4-2.9,6.3-4c0.1-2,0.2-4.3,0.4-6.2c-2.3-1-4.5-2.1-6.9-2.9
			c-0.4,1.3-2.6,1.8-3.8,1.1c-0.2-0.4-0.6-0.7-0.8-1c0-0.5-0.2-1,0-1.5C132.8,142.2,127.9,141.3,127.1,143.4z M157.7,135.6
			c-0.3-1.4-0.7-2.6-1.3-3.7c-0.2-0.4-0.7-1-1-1.3c-1.9-1.7-4.2-0.1-5.1,1.3c-0.3,0.4-0.3,0.4-0.5,0.8c-0.1,0.2-0.5,0.8-0.6,1.1
			c-0.3,1-0.5,1.6-0.7,2.5c-0.9,3.4-1.5,7.2-1.7,10.4c2.2,1.1,4.2,2.2,6.3,3.3c1.9-0.9,4.2-1.6,6.2-2.6
			C159,143.4,158.6,139.1,157.7,135.6z M135.3,142.6c-0.1,0.8,0,0.9,0.1,1.6c1.2,1.4,3.6,0.2,3.3-1.5c-0.1-0.7-0.9-1.5-1.9-1.3
			C136.3,141.7,135.8,142.1,135.3,142.6z M168.9,145.4c-0.1-0.9-0.6-1.7-1.5-1.9c-2.2-0.4-3,3.2-0.4,3.5c0.7,0.1,0.9-0.4,1.4-0.6
			C168.4,146.2,168.8,145.8,168.9,145.4z M174.6,153.1c1.5-1,2.5-2.6,4-3.6c0.4-0.6,0.9-1.1,1.3-1.8c0.4-0.7,0.6-1.3,0.5-1.9
			c-0.5-0.7-1.1-1.1-1.9-1.5c0,0,0.1-0.1,0-0.1c-2.6-0.7-6.3,0-8.8,0.8c-0.1,0.9-0.3,1.9-1.2,2.4c-1.4,0.8-3.1-0.2-3.8-1.6
			c-0.8,0-1.3,0.5-2,0.8c-0.9,0.4-1.9,0.5-2.6,1.2c0.4,2.1,0.3,4.7,0.2,6.6c2.5,1.6,4.7,3.4,7.1,5.1
			C170,157.6,172.4,155.5,174.6,153.1z M146.3,152.9c1.8-1.1,3.9-1.8,5.8-2.7c-1.8-0.9-3.5-2-5.4-2.8
			C146.5,149.1,146.4,151.1,146.3,152.9z M153.8,150.4c2.1,1,3.9,2.3,5.8,3.5c-0.1-2.2,0.1-4.1-0.3-5.9
			C157.8,148.8,155.5,149.5,153.8,150.4z M153,150.6c-2.4,0.9-4.7,1.8-6.7,3.1c0,2.9-0.3,5.4-0.4,8.1c0.4,0.4,1,0.6,1.5,0.9
			c0.9,0.6,1.9,1.6,3.1,2.3c0.5,0.3,1.1,0.6,1.7,1c1,0.6,1.6,1,2.5,0.6c1.8-0.8,3.3-1.6,4.9-2.2c0-3.1,0.1-6.4,0.1-9.6
			C157.6,153.3,155.3,151.9,153,150.6z M140.1,157.5c1.6,1.4,3.4,2.7,5.2,3.9c0.2-2.4,0.3-5.2,0.5-7.4
			C143.6,154.9,141.9,156.3,140.1,157.5z M160.2,164c2.2-1.3,4.3-2.7,6.4-4.2c-2-1.7-4.2-3.2-6.3-4.7
			C160.4,158.1,160.3,161.2,160.2,164z M143.3,160.9c-0.5-0.3-1.1-0.5-1.6-0.9c-0.8-0.6-1.4-1.6-2.2-1.9c-2.4,1.7-4.8,3.3-6.6,5.6
			c-1.2,0.9-2.1,1.9-3.1,3c-1.1,1.2-2.1,2.3-3,3.6c0.1,0.3-0.2,0.7-0.3,1c0.2,0.2,0,0.4,0,0.6c0.2,0.8,0.9,0.9,1.5,1.5
			c3,0.4,5.9-0.1,8.6-0.6c0.3-0.1,0.7-0.1,1-0.2c2.6-0.7,5-1.7,7.6-2.2c0-2.7,0-5.2,0.2-7.8C144.5,162,144,161.3,143.3,160.9z
			 M170.2,174.7c0.5,0.2,1.2,0.4,1.8,0.5c1.5,0.2,3.9,0.6,5.1,0.2c0.4-0.1,1.2-0.6,1.3-0.8c0.1-0.2,0.2-0.9,0.1-1.4
			c-0.1-1-0.8-2.1-1.5-3.1c-0.7-1-1.5-1.8-2.2-2.5c-0.6-0.6-1-1.3-1.6-1.9c-2-1.9-4-4-6.2-5.5c-2.2,1.4-4.7,3-7,4.5
			c0.1,1.4-0.2,3.1-0.3,5.2C163.2,171.4,166.5,173.5,170.2,174.7z M145.6,170c2.8-0.7,5.2-1.6,7.5-2.7c-2.6-1.3-5.1-2.8-7.4-4.4
			C145.8,165.1,145.5,167.4,145.6,170z M154.7,167.3c1.6,0.8,3,1.7,4.6,2.4c-0.1-1.9,0.3-2.9,0.1-4.6
			C157.8,165.9,156.3,166.6,154.7,167.3z M153.8,167.7c-2.6,1.1-5.2,2.1-8.1,3c0,2.5,0.4,5.4,0.9,8c0.1,0.5,0,0.9,0.1,1.3
			c0.1,0.4,0.5,0.9,0.6,1.4c0.2,0.5,0.2,1.1,0.4,1.5c0.3,0.7,0.7,1.4,1,2c0.3,0.5,1.3,2.4,1.9,2.6c0.5,0.2,1.8-0.2,2.4-0.5
			c0.4-0.2,1-0.9,1.4-1.4c0.6-0.8,0.9-1.6,1.3-2.5c0.4-0.9,1.1-1.8,1-3c-2.2-1.1-0.9-4.6,1.3-4.6c0.3-1.5,1-3.3,1.1-5.2
			C157.3,169.6,155.9,168.3,153.8,167.7z M157.6,176.4c-0.9,0.4-1.7,1.8-1,2.7c0.9,1.1,3.5,1,3.5-0.8c0-0.4-0.3-0.7-0.3-1.3
			c-0.4-0.4-1-0.6-1.4-0.6C158.1,176.4,157.8,176.5,157.6,176.4z"/>
	</g>
	<g>
		<path class="st3" d="M218.5,142.6c1.9,2.6-1.9,6.5-4.4,4.2c-0.8,0.4-1.3,1-2.2,1c-2.6,0.1-4.7-2.8-2.8-4.9
			c-1.4-2.3,0.5-5.5,3.7-4.9c0.3,0,0.8,0.9,1.1,0.9c0.2,0,0.3-0.3,0.5-0.5c1.2-1,3.4-1.1,4.4,0.6c0.2,0.4,0.2,0.9,0.6,1.3
			C219.3,141.3,219.2,142,218.5,142.6z M218,139.1c-0.8-0.9-2-0.9-3-0.3c-0.1,0.3-0.4,0.5-0.6,0.7c0,0.6,0.5,1.1,0.3,1.9
			c1.2-0.2,2.4-0.3,3.3,0.5C218.7,141.2,218.7,139.8,218,139.1z M209.3,141.5c0.2,2.9,4.4,2.5,4.9,0.1c0.3-1.1-0.9-2.2-1.5-2.9
			C210.9,138.4,209.2,139.6,209.3,141.5z M215.4,146.8c1.5,0.1,2.7-1.1,2.9-2.4c0.1-2.4-2.8-3.3-4.2-1.6c1,0.8,1,2.5,0.3,3.5
			C214.8,146.5,215.1,146.7,215.4,146.8z M212.2,147.2c0.6-0.2,1.3-0.8,1.9-1.3c0.2-0.7,0.5-1.7,0.1-2.2c-0.4-0.6-0.8,0.1-1.3,0.3
			c-1,0.4-2.6,0.1-3.4-0.5C208.6,145.2,209.7,147.6,212.2,147.2z"/>
		<path class="st3" d="M221.6,131.3c1.5-0.6,3.3-1.2,4.7-1.9c0-1.2,1.1-2.1,2.3-2.2c0.9-0.1,2,0.9,2.3,1.5c2.3-0.4,5-1.1,7.5-1.1
			c0.5,0,0.9,0.2,1.3,0.3c0.8,0.1,1.6,0.2,2.3,0.3c0.7,0.9,1.7,2.1,0.9,3.4c-0.2,0.4-0.7,0.9-1.2,1.5c-0.4,0.5-0.8,1.2-1.1,1.5
			c-0.3,0.3-0.8,0.5-1.1,0.8c-0.9,0.9-2.1,2-2.9,2.9c-1.3,1.3-2.7,2.4-4,3.8c-1.2,0.7-2,1.7-3.3,2.3c2.8,2.2,5.8,5,8.3,8
			c0.7,0.9,1.5,1.6,2,2.4c0.1,0.2,0.1,0.5,0.3,0.7c0.1,0.2,0.3,0.3,0.4,0.5c0.1,0.2,0,0.5,0.1,0.7c0.2,0.5,0.8,0.7,0.8,1.4
			c0,0.4-0.3,0.8-0.2,1.1c-0.4,0.4-0.6,0.8-0.8,1c-0.8,0.6-1.3,0.4-2.2,0.5c-0.3,0-0.4,0.2-0.7,0.2c-0.8,0.1-1.9-0.1-2.6-0.2
			c-4.7-0.7-9.3-3.6-13.2-5.3c-0.5,1.6,0.1,3.8-1,4.9c0.7,0.5,1.5,0.9,1.7,1.7c0.4,1.5-1,3.4-2.9,3c-1.1,2-1.6,4.2-2.9,5.8
			c-0.4,0.5-0.9,1-1.3,1.3c-0.4,0.3-0.9,0.3-1.4,0.4c-0.6,0.2-1.4,0.6-2,0.2c-1-1.4-1.7-2.9-2.6-4.2c-0.5-2-1.1-3.3-1.7-5.1
			c-0.1-2.6-0.8-5-0.7-7.9c-2.7,0.5-5.6,1.8-8.8,2.4c-2.4,0.4-5.1,1.1-8,0.8c-0.2,0-0.6-0.1-0.8-0.1c-0.2-0.1-0.4-0.4-0.8-0.7
			c-0.2-0.1-0.4-0.1-0.6-0.2c-1.2-1.1-0.5-2.3,0.1-3.7c3.9-4.1,7.6-8.5,12.5-11.7c-1-0.9-2.1-2-3.3-3c-2.8-2.3-5.6-4.7-7.8-7.7
			c-0.7-0.9-1.8-2.7-1.3-3.9c0.3-0.6,1-0.8,1.5-1.3c1,0.1,2.8-0.3,4.4-0.1c0.7,0.1,1.9,0.6,2.4,0.4c0.5-0.1,0.7-0.8,1.2-1.1
			c0.3-0.1,0.7-0.2,1.1-0.2c1.4,0.1,2.7,1.3,2.3,2.9c2.3,0.9,4.7,1.7,6.7,2.8c0.2-3.2,0.8-6.6,1.6-10.1c0.3-1.1,0.5-2.4,0.9-3.3
			c0.1-0.3,0.5-0.7,0.7-1c0.9-1.6,1.9-2.3,3.9-2.8c3.1,0.2,4.1,3.2,5.1,5.7c0.3,2.1,0.9,4.5,1.1,6.7
			C221.3,127.6,221.3,129.4,221.6,131.3z M188.7,127.8c-0.1,1.5,0.7,2.3,1.4,3.2c1.2,1.6,2.8,3.4,4.3,4.5c1.3,1.5,3.1,2.8,4.5,4.2
			c0.5,0.4,1.1,1.2,1.4,1c-0.1,0.4,0.6,0.6,0.8,0.9c2.1-1.4,4-2.9,6.3-4c0.1-2,0.2-4.3,0.4-6.2c-2.3-1-4.5-2.1-6.9-2.9
			c-0.4,1.3-2.6,1.8-3.8,1.1c-0.2-0.4-0.6-0.7-0.8-1c0-0.5-0.2-1,0-1.5C194.3,126.6,189.4,125.7,188.7,127.8z M219.3,120
			c-0.3-1.4-0.7-2.6-1.3-3.7c-0.2-0.4-0.7-1-1-1.3c-1.9-1.7-4.2-0.1-5.1,1.3c-0.3,0.4-0.3,0.4-0.5,0.8c-0.1,0.2-0.5,0.8-0.6,1.1
			c-0.3,1-0.5,1.6-0.7,2.5c-0.9,3.4-1.5,7.2-1.7,10.4c2.2,1.1,4.2,2.2,6.3,3.3c1.9-0.9,4.2-1.6,6.2-2.6
			C220.6,127.8,220.2,123.5,219.3,120z M196.9,127c-0.1,0.8,0,0.9,0.1,1.6c1.2,1.4,3.6,0.2,3.3-1.5c-0.1-0.7-0.9-1.5-1.9-1.3
			C197.9,126.1,197.4,126.5,196.9,127z M230.5,129.8c-0.1-0.9-0.6-1.7-1.5-1.9c-2.2-0.4-3,3.2-0.4,3.5c0.7,0.1,0.9-0.4,1.4-0.6
			C230,130.6,230.4,130.2,230.5,129.8z M236.2,137.5c1.5-1,2.5-2.6,4-3.6c0.4-0.6,0.9-1.1,1.3-1.8c0.4-0.7,0.6-1.3,0.5-1.9
			c-0.5-0.7-1.1-1.1-1.9-1.5c0,0,0.1-0.1,0-0.1c-2.6-0.7-6.3,0-8.8,0.8c-0.1,0.9-0.3,1.9-1.2,2.4c-1.4,0.8-3.1-0.2-3.8-1.6
			c-0.8,0-1.3,0.5-2,0.8c-0.9,0.4-1.9,0.5-2.6,1.2c0.4,2.1,0.3,4.7,0.2,6.6c2.5,1.6,4.7,3.4,7.1,5.1
			C231.6,142,234,139.9,236.2,137.5z M207.9,137.3c1.8-1.1,3.9-1.8,5.8-2.7c-1.8-0.9-3.5-2-5.4-2.8
			C208.1,133.5,208,135.5,207.9,137.3z M215.4,134.8c2.1,1,3.9,2.3,5.8,3.5c-0.1-2.2,0.1-4.1-0.3-5.9
			C219.4,133.2,217.1,133.9,215.4,134.8z M214.6,135c-2.4,0.9-4.7,1.8-6.7,3.1c0,2.9-0.3,5.4-0.4,8.1c0.4,0.4,1,0.6,1.5,0.9
			c0.9,0.6,1.9,1.6,3.1,2.3c0.5,0.3,1.1,0.6,1.7,1c1,0.6,1.6,1,2.5,0.6c1.8-0.8,3.3-1.6,4.9-2.2c0-3.1,0.1-6.4,0.1-9.6
			C219.1,137.7,216.9,136.3,214.6,135z M201.7,141.9c1.6,1.4,3.4,2.7,5.2,3.9c0.2-2.4,0.3-5.2,0.5-7.4
			C205.2,139.3,203.5,140.7,201.7,141.9z M221.8,148.4c2.2-1.3,4.3-2.7,6.4-4.2c-2-1.7-4.2-3.2-6.3-4.7
			C222,142.5,221.9,145.6,221.8,148.4z M204.8,145.3c-0.5-0.3-1.1-0.5-1.6-0.9c-0.8-0.6-1.4-1.6-2.2-1.9c-2.4,1.7-4.8,3.3-6.6,5.6
			c-1.2,0.9-2.1,1.9-3.1,3c-1.1,1.2-2.1,2.3-3,3.6c0.1,0.3-0.2,0.7-0.3,1c0.2,0.2,0,0.4,0,0.6c0.2,0.8,0.9,0.9,1.5,1.5
			c3,0.4,5.9-0.1,8.6-0.6c0.3-0.1,0.7-0.1,1-0.2c2.6-0.7,5-1.7,7.6-2.2c0-2.7,0-5.2,0.2-7.8C206.1,146.4,205.6,145.7,204.8,145.3z
			 M231.7,159.1c0.5,0.2,1.2,0.4,1.8,0.5c1.5,0.2,3.9,0.6,5.1,0.2c0.4-0.1,1.2-0.6,1.3-0.8c0.1-0.2,0.2-0.9,0.1-1.4
			c-0.1-1-0.8-2.1-1.5-3.1c-0.7-1-1.5-1.8-2.2-2.5c-0.6-0.6-1-1.3-1.6-1.9c-2-1.9-4-4-6.2-5.5c-2.2,1.4-4.7,3-7,4.5
			c0.1,1.4-0.2,3.1-0.3,5.2C224.8,155.8,228.1,157.9,231.7,159.1z M207.2,154.4c2.8-0.7,5.2-1.6,7.5-2.7c-2.6-1.3-5.1-2.8-7.4-4.4
			C207.4,149.5,207.1,151.8,207.2,154.4z M216.3,151.7c1.6,0.8,3,1.7,4.6,2.4c-0.1-1.9,0.3-2.9,0.1-4.6
			C219.4,150.3,217.8,151,216.3,151.7z M215.4,152.1c-2.6,1.1-5.2,2.1-8.1,3c0,2.5,0.4,5.4,0.9,8c0.1,0.5,0,0.9,0.1,1.3
			c0.1,0.4,0.5,0.9,0.6,1.4c0.2,0.5,0.2,1.1,0.4,1.5c0.3,0.7,0.7,1.4,1,2c0.3,0.5,1.3,2.4,1.9,2.6c0.5,0.2,1.8-0.2,2.4-0.5
			c0.4-0.2,1-0.9,1.4-1.4c0.6-0.8,0.9-1.6,1.3-2.5c0.4-0.9,1.1-1.8,1-3c-2.2-1.1-0.9-4.6,1.3-4.6c0.3-1.5,1-3.3,1.1-5.2
			C218.9,154,217.4,152.7,215.4,152.1z M219.2,160.8c-0.9,0.4-1.7,1.8-1,2.7c0.9,1.1,3.5,1,3.5-0.8c0-0.4-0.3-0.7-0.3-1.3
			c-0.4-0.4-1-0.6-1.4-0.6C219.7,160.8,219.4,160.9,219.2,160.8z"/>
	</g>
	<g>
		<path class="st3" d="M168.1,219c1.9,2.6-1.9,6.5-4.4,4.2c-0.8,0.4-1.3,1-2.2,1c-2.6,0.1-4.7-2.8-2.8-4.9c-1.4-2.3,0.5-5.5,3.7-4.9
			c0.3,0,0.8,0.9,1.1,0.9c0.2,0,0.3-0.3,0.5-0.5c1.2-1,3.4-1.1,4.4,0.6c0.2,0.4,0.2,0.9,0.6,1.3C168.8,217.7,168.7,218.5,168.1,219z
			 M167.5,215.6c-0.8-0.9-2-0.9-3-0.3c-0.1,0.3-0.4,0.5-0.6,0.7c0,0.6,0.5,1.1,0.3,1.9c1.2-0.2,2.4-0.3,3.3,0.5
			C168.3,217.6,168.2,216.3,167.5,215.6z M158.8,217.9c0.2,2.9,4.4,2.5,4.9,0.1c0.3-1.1-0.9-2.2-1.5-2.9
			C160.5,214.8,158.7,216,158.8,217.9z M164.9,223.3c1.5,0.1,2.7-1.1,2.9-2.4c0.1-2.4-2.8-3.3-4.2-1.6c1,0.8,1,2.5,0.3,3.5
			C164.4,222.9,164.6,223.1,164.9,223.3z M161.7,223.6c0.6-0.2,1.3-0.8,1.9-1.3c0.2-0.7,0.5-1.7,0.1-2.2c-0.4-0.6-0.8,0.1-1.3,0.3
			c-1,0.4-2.6,0.1-3.4-0.5C158.1,221.6,159.2,224,161.7,223.6z"/>
		<path class="st3" d="M171.1,207.7c1.5-0.6,3.3-1.2,4.7-1.9c0-1.2,1.1-2.1,2.3-2.2c0.9-0.1,2,0.9,2.3,1.5c2.3-0.4,5-1.1,7.5-1.1
			c0.5,0,0.9,0.2,1.3,0.3c0.8,0.1,1.6,0.2,2.3,0.3c0.7,0.9,1.7,2.1,0.9,3.4c-0.2,0.4-0.7,0.9-1.2,1.5c-0.4,0.5-0.8,1.2-1.1,1.5
			c-0.3,0.3-0.8,0.5-1.1,0.8c-0.9,0.9-2.1,2-2.9,2.9c-1.3,1.3-2.7,2.4-4,3.8c-1.2,0.7-2,1.7-3.3,2.3c2.8,2.2,5.8,5,8.3,8
			c0.7,0.9,1.5,1.6,2,2.4c0.1,0.2,0.1,0.5,0.3,0.7c0.1,0.2,0.3,0.3,0.4,0.5c0.1,0.2,0,0.5,0.1,0.7c0.2,0.5,0.8,0.7,0.8,1.4
			c0,0.4-0.3,0.8-0.2,1.1c-0.4,0.4-0.6,0.8-0.8,1c-0.8,0.6-1.3,0.4-2.2,0.5c-0.3,0-0.4,0.2-0.7,0.2c-0.8,0.1-1.9-0.1-2.6-0.2
			c-4.7-0.7-9.3-3.6-13.2-5.3c-0.5,1.6,0.1,3.8-1,4.9c0.7,0.5,1.5,0.9,1.7,1.7c0.4,1.5-1,3.4-2.9,3c-1.1,2-1.6,4.2-2.9,5.8
			c-0.4,0.5-0.9,1-1.3,1.3c-0.4,0.3-0.9,0.3-1.4,0.4c-0.6,0.2-1.4,0.6-2,0.2c-1-1.4-1.7-2.9-2.6-4.2c-0.5-2-1.1-3.3-1.7-5.1
			c-0.1-2.6-0.8-5-0.7-7.9c-2.7,0.5-5.6,1.8-8.8,2.4c-2.4,0.4-5.1,1.1-8,0.8c-0.2,0-0.6-0.1-0.8-0.1c-0.2-0.1-0.4-0.4-0.8-0.7
			c-0.2-0.1-0.4-0.1-0.6-0.2c-1.2-1.1-0.5-2.3,0.1-3.7c3.9-4.1,7.6-8.5,12.5-11.7c-1-0.9-2.1-2-3.3-3c-2.8-2.3-5.6-4.7-7.8-7.7
			c-0.7-0.9-1.8-2.7-1.3-3.9c0.3-0.6,1-0.8,1.5-1.3c1,0.1,2.8-0.3,4.4-0.1c0.7,0.1,1.9,0.6,2.4,0.4c0.5-0.1,0.7-0.8,1.2-1.1
			c0.3-0.1,0.7-0.2,1.1-0.2c1.4,0.1,2.7,1.3,2.3,2.9c2.3,0.9,4.7,1.7,6.7,2.8c0.2-3.2,0.8-6.6,1.6-10.1c0.3-1.1,0.5-2.4,0.9-3.3
			c0.1-0.3,0.5-0.7,0.7-1c0.9-1.6,1.9-2.3,3.9-2.8c3.1,0.2,4.1,3.2,5.1,5.7c0.3,2.1,0.9,4.5,1.1,6.7
			C170.8,204.1,170.8,205.8,171.1,207.7z M138.2,204.2c-0.1,1.5,0.7,2.3,1.4,3.2c1.2,1.6,2.8,3.4,4.3,4.5c1.3,1.5,3.1,2.8,4.5,4.2
			c0.5,0.4,1.1,1.2,1.4,1c-0.1,0.4,0.6,0.6,0.8,0.9c2.1-1.4,4-2.9,6.3-4c0.1-2,0.2-4.3,0.4-6.2c-2.3-1-4.5-2.1-6.9-2.9
			c-0.4,1.3-2.6,1.8-3.8,1.1c-0.2-0.4-0.6-0.7-0.8-1c0-0.5-0.2-1,0-1.5C143.9,203,139,202.1,138.2,204.2z M168.8,196.4
			c-0.3-1.4-0.7-2.6-1.3-3.7c-0.2-0.4-0.7-1-1-1.3c-1.9-1.7-4.2-0.1-5.1,1.3c-0.3,0.4-0.3,0.4-0.5,0.8c-0.1,0.2-0.5,0.8-0.6,1.1
			c-0.3,1-0.5,1.6-0.7,2.5c-0.9,3.4-1.5,7.2-1.7,10.4c2.2,1.1,4.2,2.2,6.3,3.3c1.9-0.9,4.2-1.6,6.2-2.6
			C170.1,204.3,169.7,199.9,168.8,196.4z M146.4,203.5c-0.1,0.8,0,0.9,0.1,1.6c1.2,1.4,3.6,0.2,3.3-1.5c-0.1-0.7-0.9-1.5-1.9-1.3
			C147.4,202.5,146.9,203,146.4,203.5z M180,206.2c-0.1-0.9-0.6-1.7-1.5-1.9c-2.2-0.4-3,3.2-0.4,3.5c0.7,0.1,0.9-0.4,1.4-0.6
			C179.5,207.1,179.9,206.6,180,206.2z M185.7,214c1.5-1,2.5-2.6,4-3.6c0.4-0.6,0.9-1.1,1.3-1.8c0.4-0.7,0.6-1.3,0.5-1.9
			c-0.5-0.7-1.1-1.1-1.9-1.5c0,0,0.1-0.1,0-0.1c-2.6-0.7-6.3,0-8.8,0.8c-0.1,0.9-0.3,1.9-1.2,2.4c-1.4,0.8-3.1-0.2-3.8-1.6
			c-0.8,0-1.3,0.5-2,0.8c-0.9,0.4-1.9,0.5-2.6,1.2c0.4,2.1,0.3,4.7,0.2,6.6c2.5,1.6,4.7,3.4,7.1,5.1
			C181.1,218.5,183.5,216.3,185.7,214z M157.4,213.7c1.8-1.1,3.9-1.8,5.8-2.7c-1.8-0.9-3.5-2-5.4-2.8
			C157.6,210,157.5,212,157.4,213.7z M164.9,211.3c2.1,1,3.9,2.3,5.8,3.5c-0.1-2.2,0.1-4.1-0.3-5.9
			C168.9,209.6,166.6,210.4,164.9,211.3z M164.1,211.5c-2.4,0.9-4.7,1.8-6.7,3.1c0,2.9-0.3,5.4-0.4,8.1c0.4,0.4,1,0.6,1.5,0.9
			c0.9,0.6,1.9,1.6,3.1,2.3c0.5,0.3,1.1,0.6,1.7,1c1,0.6,1.6,1,2.5,0.6c1.8-0.8,3.3-1.6,4.9-2.2c0-3.1,0.1-6.4,0.1-9.6
			C168.7,214.1,166.4,212.7,164.1,211.5z M151.2,218.3c1.6,1.4,3.4,2.7,5.2,3.9c0.2-2.4,0.3-5.2,0.5-7.4
			C154.8,215.8,153,217.1,151.2,218.3z M171.3,224.9c2.2-1.3,4.3-2.7,6.4-4.2c-2-1.7-4.2-3.2-6.3-4.7
			C171.5,218.9,171.4,222.1,171.3,224.9z M154.4,221.7c-0.5-0.3-1.1-0.5-1.6-0.9c-0.8-0.6-1.4-1.6-2.2-1.9c-2.4,1.7-4.8,3.3-6.6,5.6
			c-1.2,0.9-2.1,1.9-3.1,3c-1.1,1.2-2.1,2.3-3,3.6c0.1,0.3-0.2,0.7-0.3,1c0.2,0.2,0,0.4,0,0.6c0.2,0.8,0.9,0.9,1.5,1.5
			c3,0.4,5.9-0.1,8.6-0.6c0.3-0.1,0.7-0.1,1-0.2c2.6-0.7,5-1.7,7.6-2.2c0-2.7,0-5.2,0.2-7.8C155.6,222.8,155.1,222.1,154.4,221.7z
			 M181.3,235.6c0.5,0.2,1.2,0.4,1.8,0.5c1.5,0.2,3.9,0.6,5.1,0.2c0.4-0.1,1.2-0.6,1.3-0.8c0.1-0.2,0.2-0.9,0.1-1.4
			c-0.1-1-0.8-2.1-1.5-3.1c-0.7-1-1.5-1.8-2.2-2.5c-0.6-0.6-1-1.3-1.6-1.9c-2-1.9-4-4-6.2-5.5c-2.2,1.4-4.7,3-7,4.5
			c0.1,1.4-0.2,3.1-0.3,5.2C174.3,232.3,177.6,234.3,181.3,235.6z M156.7,230.8c2.8-0.7,5.2-1.6,7.5-2.7c-2.6-1.3-5.1-2.8-7.4-4.4
			C156.9,226,156.6,228.2,156.7,230.8z M165.8,228.1c1.6,0.8,3,1.7,4.6,2.4c-0.1-1.9,0.3-2.9,0.1-4.6
			C168.9,226.7,167.4,227.4,165.8,228.1z M164.9,228.5c-2.6,1.1-5.2,2.1-8.1,3c0,2.5,0.4,5.4,0.9,8c0.1,0.5,0,0.9,0.1,1.3
			c0.1,0.4,0.5,0.9,0.6,1.4c0.2,0.5,0.2,1.1,0.4,1.5c0.3,0.7,0.7,1.4,1,2c0.3,0.5,1.3,2.4,1.9,2.6c0.5,0.2,1.8-0.2,2.4-0.5
			c0.4-0.2,1-0.9,1.4-1.4c0.6-0.8,0.9-1.6,1.3-2.5c0.4-0.9,1.1-1.8,1-3c-2.2-1.1-0.9-4.6,1.3-4.6c0.3-1.5,1-3.3,1.1-5.2
			C168.4,230.4,167,229.2,164.9,228.5z M168.7,237.2c-0.9,0.4-1.7,1.8-1,2.7c0.9,1.1,3.5,1,3.5-0.8c0-0.4-0.3-0.7-0.3-1.3
			c-0.4-0.4-1-0.6-1.4-0.6C169.2,237.2,168.9,237.3,168.7,237.2z"/>
	</g>
	<g>
		<path class="st3" d="M229.6,203.4c1.9,2.6-1.9,6.5-4.4,4.2c-0.8,0.4-1.3,1-2.2,1c-2.6,0.1-4.7-2.8-2.8-4.9
			c-1.4-2.3,0.5-5.5,3.7-4.9c0.3,0,0.8,0.9,1.1,0.9c0.2,0,0.3-0.3,0.5-0.5c1.2-1,3.4-1.1,4.4,0.6c0.2,0.4,0.2,0.9,0.6,1.3
			C230.4,202.1,230.3,202.9,229.6,203.4z M229.1,200c-0.8-0.9-2-0.9-3-0.3c-0.1,0.3-0.4,0.5-0.6,0.7c0,0.6,0.5,1.1,0.3,1.9
			c1.2-0.2,2.4-0.3,3.3,0.5C229.8,202,229.8,200.7,229.1,200z M220.4,202.3c0.2,2.9,4.4,2.5,4.9,0.1c0.3-1.1-0.9-2.2-1.5-2.9
			C222,199.2,220.3,200.4,220.4,202.3z M226.5,207.7c1.5,0.1,2.7-1.1,2.9-2.4c0.1-2.4-2.8-3.3-4.2-1.6c1,0.8,1,2.5,0.3,3.5
			C225.9,207.3,226.2,207.5,226.5,207.7z M223.3,208c0.6-0.2,1.3-0.8,1.9-1.3c0.2-0.7,0.5-1.7,0.1-2.2c-0.4-0.6-0.8,0.1-1.3,0.3
			c-1,0.4-2.6,0.1-3.4-0.5C219.7,206,220.8,208.4,223.3,208z"/>
		<path class="st3" d="M232.7,192.1c1.5-0.6,3.3-1.2,4.7-1.9c0-1.2,1.1-2.1,2.3-2.2c0.9-0.1,2,0.9,2.3,1.5c2.3-0.4,5-1.1,7.5-1.1
			c0.5,0,0.9,0.2,1.3,0.3c0.8,0.1,1.6,0.2,2.3,0.3c0.7,0.9,1.7,2.1,0.9,3.4c-0.2,0.4-0.7,0.9-1.2,1.5c-0.4,0.5-0.8,1.2-1.1,1.5
			c-0.3,0.3-0.8,0.5-1.1,0.8c-0.9,0.9-2.1,2-2.9,2.9c-1.3,1.3-2.7,2.4-4,3.8c-1.2,0.7-2,1.7-3.3,2.3c2.8,2.2,5.8,5,8.3,8
			c0.7,0.9,1.5,1.6,2,2.4c0.1,0.2,0.1,0.5,0.3,0.7c0.1,0.2,0.3,0.3,0.4,0.5c0.1,0.2,0,0.5,0.1,0.7c0.2,0.5,0.8,0.7,0.8,1.4
			c0,0.4-0.3,0.8-0.2,1.1c-0.4,0.4-0.6,0.8-0.8,1c-0.8,0.6-1.3,0.4-2.2,0.5c-0.3,0-0.4,0.2-0.7,0.2c-0.8,0.1-1.9-0.1-2.6-0.2
			c-4.7-0.7-9.3-3.6-13.2-5.3c-0.5,1.6,0.1,3.8-1,4.9c0.7,0.5,1.5,0.9,1.7,1.7c0.4,1.5-1,3.4-2.9,3c-1.1,2-1.6,4.2-2.9,5.8
			c-0.4,0.5-0.9,1-1.3,1.3c-0.4,0.3-0.9,0.3-1.4,0.4c-0.6,0.2-1.4,0.6-2,0.2c-1-1.4-1.7-2.9-2.6-4.2c-0.5-2-1.1-3.3-1.7-5.1
			c-0.1-2.6-0.8-5-0.7-7.9c-2.7,0.5-5.6,1.8-8.8,2.4c-2.4,0.4-5.1,1.1-8,0.8c-0.2,0-0.6-0.1-0.8-0.1c-0.2-0.1-0.4-0.4-0.8-0.7
			c-0.2-0.1-0.4-0.1-0.6-0.2c-1.2-1.1-0.5-2.3,0.1-3.7c3.9-4.1,7.6-8.5,12.5-11.7c-1-0.9-2.1-2-3.3-3c-2.8-2.3-5.6-4.7-7.8-7.7
			c-0.7-0.9-1.8-2.7-1.3-3.9c0.3-0.6,1-0.8,1.5-1.3c1,0.1,2.8-0.3,4.4-0.1c0.7,0.1,1.9,0.6,2.4,0.4c0.5-0.1,0.7-0.8,1.2-1.1
			c0.3-0.1,0.7-0.2,1.1-0.2c1.4,0.1,2.7,1.3,2.3,2.9c2.3,0.9,4.7,1.7,6.7,2.8c0.2-3.2,0.8-6.6,1.6-10.1c0.3-1.1,0.5-2.4,0.9-3.3
			c0.1-0.3,0.5-0.7,0.7-1c0.9-1.6,1.9-2.3,3.9-2.8c3.1,0.2,4.1,3.2,5.1,5.7c0.3,2.1,0.9,4.5,1.1,6.7
			C232.4,188.4,232.4,190.2,232.7,192.1z M199.8,188.6c-0.1,1.5,0.7,2.3,1.4,3.2c1.2,1.6,2.8,3.4,4.3,4.5c1.3,1.5,3.1,2.8,4.5,4.2
			c0.5,0.4,1.1,1.2,1.4,1c-0.1,0.4,0.6,0.6,0.8,0.9c2.1-1.4,4-2.9,6.3-4c0.1-2,0.2-4.3,0.4-6.2c-2.3-1-4.5-2.1-6.9-2.9
			c-0.4,1.3-2.6,1.8-3.8,1.1c-0.2-0.4-0.6-0.7-0.8-1c0-0.5-0.2-1,0-1.5C205.4,187.4,200.5,186.5,199.8,188.6z M230.4,180.8
			c-0.3-1.4-0.7-2.6-1.3-3.7c-0.2-0.4-0.7-1-1-1.3c-1.9-1.7-4.2-0.1-5.1,1.3c-0.3,0.4-0.3,0.4-0.5,0.8c-0.1,0.2-0.5,0.8-0.6,1.1
			c-0.3,1-0.5,1.6-0.7,2.5c-0.9,3.4-1.5,7.2-1.7,10.4c2.2,1.1,4.2,2.2,6.3,3.3c1.9-0.9,4.2-1.6,6.2-2.6
			C231.7,188.7,231.3,184.3,230.4,180.8z M208,187.9c-0.1,0.8,0,0.9,0.1,1.6c1.2,1.4,3.6,0.2,3.3-1.5c-0.1-0.7-0.9-1.5-1.9-1.3
			C209,186.9,208.5,187.4,208,187.9z M241.6,190.6c-0.1-0.9-0.6-1.7-1.5-1.9c-2.2-0.4-3,3.2-0.4,3.5c0.7,0.1,0.9-0.4,1.4-0.6
			C241.1,191.5,241.5,191,241.6,190.6z M247.3,198.4c1.5-1,2.5-2.6,4-3.6c0.4-0.6,0.9-1.1,1.3-1.8c0.4-0.7,0.6-1.3,0.5-1.9
			c-0.5-0.7-1.1-1.1-1.9-1.5c0,0,0.1-0.1,0-0.1c-2.6-0.7-6.3,0-8.8,0.8c-0.1,0.9-0.3,1.9-1.2,2.4c-1.4,0.8-3.1-0.2-3.8-1.6
			c-0.8,0-1.3,0.5-2,0.8c-0.9,0.4-1.9,0.5-2.6,1.2c0.4,2.1,0.3,4.7,0.2,6.6c2.5,1.6,4.7,3.4,7.1,5.1
			C242.7,202.9,245.1,200.7,247.3,198.4z M219,198.1c1.8-1.1,3.9-1.8,5.8-2.7c-1.8-0.9-3.5-2-5.4-2.8
			C219.2,194.4,219.1,196.4,219,198.1z M226.5,195.7c2.1,1,3.9,2.3,5.8,3.5c-0.1-2.2,0.1-4.1-0.3-5.9
			C230.5,194,228.2,194.8,226.5,195.7z M225.7,195.9c-2.4,0.9-4.7,1.8-6.7,3.1c0,2.9-0.3,5.4-0.4,8.1c0.4,0.4,1,0.6,1.5,0.9
			c0.9,0.6,1.9,1.6,3.1,2.3c0.5,0.3,1.1,0.6,1.7,1c1,0.6,1.6,1,2.5,0.6c1.8-0.8,3.3-1.6,4.9-2.2c0-3.1,0.1-6.4,0.1-9.6
			C230.2,198.5,228,197.1,225.7,195.9z M212.8,202.7c1.6,1.4,3.4,2.7,5.2,3.9c0.2-2.4,0.3-5.2,0.5-7.4
			C216.3,200.2,214.6,201.5,212.8,202.7z M232.9,209.3c2.2-1.3,4.3-2.7,6.4-4.2c-2-1.7-4.2-3.2-6.3-4.7
			C233.1,203.3,233,206.5,232.9,209.3z M215.9,206.1c-0.5-0.3-1.1-0.5-1.6-0.9c-0.8-0.6-1.4-1.6-2.2-1.9c-2.4,1.7-4.8,3.3-6.6,5.6
			c-1.2,0.9-2.1,1.9-3.1,3c-1.1,1.2-2.1,2.3-3,3.6c0.1,0.3-0.2,0.7-0.3,1c0.2,0.2,0,0.4,0,0.6c0.2,0.8,0.9,0.9,1.5,1.5
			c3,0.4,5.9-0.1,8.6-0.6c0.3-0.1,0.7-0.1,1-0.2c2.6-0.7,5-1.7,7.6-2.2c0-2.7,0-5.2,0.2-7.8C217.2,207.2,216.7,206.5,215.9,206.1z
			 M242.8,220c0.5,0.2,1.2,0.4,1.8,0.5c1.5,0.2,3.9,0.6,5.1,0.2c0.4-0.1,1.2-0.6,1.3-0.8c0.1-0.2,0.2-0.9,0.1-1.4
			c-0.1-1-0.8-2.1-1.5-3.1c-0.7-1-1.5-1.8-2.2-2.5c-0.6-0.6-1-1.3-1.6-1.9c-2-1.9-4-4-6.2-5.5c-2.2,1.4-4.7,3-7,4.5
			c0.1,1.4-0.2,3.1-0.3,5.2C235.9,216.7,239.2,218.7,242.8,220z M218.3,215.2c2.8-0.7,5.2-1.6,7.5-2.7c-2.6-1.3-5.1-2.8-7.4-4.4
			C218.5,210.4,218.2,212.6,218.3,215.2z M227.4,212.5c1.6,0.8,3,1.7,4.6,2.4c-0.1-1.9,0.3-2.9,0.1-4.6
			C230.5,211.1,228.9,211.8,227.4,212.5z M226.5,212.9c-2.6,1.1-5.2,2.1-8.1,3c0,2.5,0.4,5.4,0.9,8c0.1,0.5,0,0.9,0.1,1.3
			c0.1,0.4,0.5,0.9,0.6,1.4c0.2,0.5,0.2,1.1,0.4,1.5c0.3,0.7,0.7,1.4,1,2c0.3,0.5,1.3,2.4,1.9,2.6c0.5,0.2,1.8-0.2,2.4-0.5
			c0.4-0.2,1-0.9,1.4-1.4c0.6-0.8,0.9-1.6,1.3-2.5c0.4-0.9,1.1-1.8,1-3c-2.2-1.1-0.9-4.6,1.3-4.6c0.3-1.5,1-3.3,1.1-5.2
			C230,214.8,228.5,213.6,226.5,212.9z M230.3,221.6c-0.9,0.4-1.7,1.8-1,2.7c0.9,1.1,3.5,1,3.5-0.8c0-0.4-0.3-0.7-0.3-1.3
			c-0.4-0.4-1-0.6-1.4-0.6C230.8,221.6,230.5,221.7,230.3,221.6z"/>
	</g>
	<g>
		<path class="st3" d="M187.7,279.6c1.9,2.6-1.9,6.5-4.4,4.2c-0.8,0.4-1.3,1-2.2,1c-2.6,0.1-4.7-2.8-2.8-4.9
			c-1.4-2.3,0.5-5.5,3.7-4.9c0.3,0,0.8,0.9,1.1,0.9c0.2,0,0.3-0.3,0.5-0.5c1.2-1,3.4-1.1,4.4,0.6c0.2,0.4,0.2,0.9,0.6,1.3
			C188.5,278.3,188.4,279.1,187.7,279.6z M187.2,276.2c-0.8-0.9-2-0.9-3-0.3c-0.1,0.3-0.4,0.5-0.6,0.7c0,0.6,0.5,1.1,0.3,1.9
			c1.2-0.2,2.4-0.3,3.3,0.5C187.9,278.2,187.9,276.9,187.2,276.2z M178.5,278.5c0.2,2.9,4.4,2.5,4.9,0.1c0.3-1.1-0.9-2.2-1.5-2.9
			C180.1,275.4,178.4,276.6,178.5,278.5z M184.6,283.9c1.5,0.1,2.7-1.1,2.9-2.4c0.1-2.4-2.8-3.3-4.2-1.6c1,0.8,1,2.5,0.3,3.5
			C184,283.5,184.3,283.7,184.6,283.9z M181.4,284.2c0.6-0.2,1.3-0.8,1.9-1.3c0.2-0.7,0.5-1.7,0.1-2.2c-0.4-0.6-0.8,0.1-1.3,0.3
			c-1,0.4-2.6,0.1-3.4-0.5C177.8,282.2,178.9,284.6,181.4,284.2z"/>
		<path class="st3" d="M190.8,268.3c1.5-0.6,3.3-1.2,4.7-1.9c0-1.2,1.1-2.1,2.3-2.2c0.9-0.1,2,0.9,2.3,1.5c2.3-0.4,5-1.1,7.5-1.1
			c0.5,0,0.9,0.2,1.3,0.3c0.8,0.1,1.6,0.2,2.3,0.3c0.7,0.9,1.7,2.1,0.9,3.4c-0.2,0.4-0.7,0.9-1.2,1.5c-0.4,0.5-0.8,1.2-1.1,1.5
			c-0.3,0.3-0.8,0.5-1.1,0.8c-0.9,0.9-2.1,2-2.9,2.9c-1.3,1.3-2.7,2.4-4,3.8c-1.2,0.7-2,1.7-3.3,2.3c2.8,2.2,5.8,5,8.3,8
			c0.7,0.9,1.5,1.6,2,2.4c0.1,0.2,0.1,0.5,0.3,0.7c0.1,0.2,0.3,0.3,0.4,0.5c0.1,0.2,0,0.5,0.1,0.7c0.2,0.5,0.8,0.7,0.8,1.4
			c0,0.4-0.3,0.8-0.2,1.1c-0.4,0.4-0.6,0.8-0.8,1c-0.8,0.6-1.3,0.4-2.2,0.5c-0.3,0-0.4,0.2-0.7,0.2c-0.8,0.1-1.9-0.1-2.6-0.2
			c-4.7-0.7-9.3-3.6-13.2-5.3c-0.5,1.6,0.1,3.8-1,4.9c0.7,0.5,1.5,0.9,1.7,1.7c0.4,1.5-1,3.4-2.9,3c-1.1,2-1.6,4.2-2.9,5.8
			c-0.4,0.5-0.9,1-1.3,1.3c-0.4,0.3-0.9,0.3-1.4,0.4c-0.6,0.2-1.4,0.6-2,0.2c-1-1.4-1.7-2.9-2.6-4.2c-0.5-2-1.1-3.3-1.7-5.1
			c-0.1-2.6-0.8-5-0.7-7.9c-2.7,0.5-5.6,1.8-8.8,2.4c-2.4,0.4-5.1,1.1-8,0.8c-0.2,0-0.6-0.1-0.8-0.1c-0.2-0.1-0.4-0.4-0.8-0.7
			c-0.2-0.1-0.4-0.1-0.6-0.2c-1.2-1.1-0.5-2.3,0.1-3.7c3.9-4.1,7.6-8.5,12.5-11.7c-1-0.9-2.1-2-3.3-3c-2.8-2.3-5.6-4.7-7.8-7.7
			c-0.7-0.9-1.8-2.7-1.3-3.9c0.3-0.6,1-0.8,1.5-1.3c1,0.1,2.8-0.3,4.4-0.1c0.7,0.1,1.9,0.6,2.4,0.4c0.5-0.1,0.7-0.8,1.2-1.1
			c0.3-0.1,0.7-0.2,1.1-0.2c1.4,0.1,2.7,1.3,2.3,2.9c2.3,0.9,4.7,1.7,6.7,2.8c0.2-3.2,0.8-6.6,1.6-10.1c0.3-1.1,0.5-2.4,0.9-3.3
			c0.1-0.3,0.5-0.7,0.7-1c0.9-1.6,1.9-2.3,3.9-2.8c3.1,0.2,4.1,3.2,5.1,5.7c0.3,2.1,0.9,4.5,1.1,6.7
			C190.5,264.7,190.5,266.4,190.8,268.3z M157.9,264.8c-0.1,1.5,0.7,2.3,1.4,3.2c1.2,1.6,2.8,3.4,4.3,4.5c1.3,1.5,3.1,2.8,4.5,4.2
			c0.5,0.4,1.1,1.2,1.4,1c-0.1,0.4,0.6,0.6,0.8,0.9c2.1-1.4,4-2.9,6.3-4c0.1-2,0.2-4.3,0.4-6.2c-2.3-1-4.5-2.1-6.9-2.9
			c-0.4,1.3-2.6,1.8-3.8,1.1c-0.2-0.4-0.6-0.7-0.8-1c0-0.5-0.2-1,0-1.5C163.5,263.6,158.6,262.7,157.9,264.8z M188.5,257
			c-0.3-1.4-0.7-2.6-1.3-3.7c-0.2-0.4-0.7-1-1-1.3c-1.9-1.7-4.2-0.1-5.1,1.3c-0.3,0.4-0.3,0.4-0.5,0.8c-0.1,0.2-0.5,0.8-0.6,1.1
			c-0.3,1-0.5,1.6-0.7,2.5c-0.9,3.4-1.5,7.2-1.7,10.4c2.2,1.1,4.2,2.2,6.3,3.3c1.9-0.9,4.2-1.6,6.2-2.6
			C189.8,264.9,189.4,260.5,188.5,257z M166.1,264.1c-0.1,0.8,0,0.9,0.1,1.6c1.2,1.4,3.6,0.2,3.3-1.5c-0.1-0.7-0.9-1.5-1.9-1.3
			C167.1,263.1,166.6,263.6,166.1,264.1z M199.7,266.9c-0.1-0.9-0.6-1.7-1.5-1.9c-2.2-0.4-3,3.2-0.4,3.5c0.7,0.1,0.9-0.4,1.4-0.6
			C199.2,267.7,199.6,267.2,199.7,266.9z M205.4,274.6c1.5-1,2.5-2.6,4-3.6c0.4-0.6,0.9-1.1,1.3-1.8c0.4-0.7,0.6-1.3,0.5-1.9
			c-0.5-0.7-1.1-1.1-1.9-1.5c0,0,0.1-0.1,0-0.1c-2.6-0.7-6.3,0-8.8,0.8c-0.1,0.9-0.3,1.9-1.2,2.4c-1.4,0.8-3.1-0.2-3.8-1.6
			c-0.8,0-1.3,0.5-2,0.8c-0.9,0.4-1.9,0.5-2.6,1.2c0.4,2.1,0.3,4.7,0.2,6.6c2.5,1.6,4.7,3.4,7.1,5.1
			C200.8,279.1,203.2,276.9,205.4,274.6z M177.1,274.3c1.8-1.1,3.9-1.8,5.8-2.7c-1.8-0.9-3.5-2-5.4-2.8
			C177.3,270.6,177.2,272.6,177.1,274.3z M184.6,271.9c2.1,1,3.9,2.3,5.8,3.5c-0.1-2.2,0.1-4.1-0.3-5.9
			C188.6,270.2,186.3,271,184.6,271.9z M183.8,272.1c-2.4,0.9-4.7,1.8-6.7,3.1c0,2.9-0.3,5.4-0.4,8.1c0.4,0.4,1,0.6,1.5,0.9
			c0.9,0.6,1.9,1.6,3.1,2.3c0.5,0.3,1.1,0.6,1.7,1c1,0.6,1.6,1,2.5,0.6c1.8-0.8,3.3-1.6,4.9-2.2c0-3.1,0.1-6.4,0.1-9.6
			C188.4,274.7,186.1,273.3,183.8,272.1z M170.9,278.9c1.6,1.4,3.4,2.7,5.2,3.9c0.2-2.4,0.3-5.2,0.5-7.4
			C174.4,276.4,172.7,277.7,170.9,278.9z M191,285.5c2.2-1.3,4.3-2.7,6.4-4.2c-2-1.7-4.2-3.2-6.3-4.7
			C191.2,279.5,191.1,282.7,191,285.5z M174.1,282.3c-0.5-0.3-1.1-0.5-1.6-0.9c-0.8-0.6-1.4-1.6-2.2-1.9c-2.4,1.7-4.8,3.3-6.6,5.6
			c-1.2,0.9-2.1,1.9-3.1,3c-1.1,1.2-2.1,2.3-3,3.6c0.1,0.3-0.2,0.7-0.3,1c0.2,0.2,0,0.4,0,0.6c0.2,0.8,0.9,0.9,1.5,1.5
			c3,0.4,5.9-0.1,8.6-0.6c0.3-0.1,0.7-0.1,1-0.2c2.6-0.7,5-1.7,7.6-2.2c0-2.7,0-5.2,0.2-7.8C175.3,283.4,174.8,282.7,174.1,282.3z
			 M201,296.2c0.5,0.2,1.2,0.4,1.8,0.5c1.5,0.2,3.9,0.6,5.1,0.2c0.4-0.1,1.2-0.6,1.3-0.8c0.1-0.2,0.2-0.9,0.1-1.4
			c-0.1-1-0.8-2.1-1.5-3.1c-0.7-1-1.5-1.8-2.2-2.5c-0.6-0.6-1-1.3-1.6-1.9c-2-1.9-4-4-6.2-5.5c-2.2,1.4-4.7,3-7,4.5
			c0.1,1.4-0.2,3.1-0.3,5.2C194,292.9,197.3,294.9,201,296.2z M176.4,291.4c2.8-0.7,5.2-1.6,7.5-2.7c-2.6-1.3-5.1-2.8-7.4-4.4
			C176.6,286.6,176.3,288.8,176.4,291.4z M185.5,288.7c1.6,0.8,3,1.7,4.6,2.4c-0.1-1.9,0.3-2.9,0.1-4.6
			C188.6,287.3,187,288,185.5,288.7z M184.6,289.1c-2.6,1.1-5.2,2.1-8.1,3c0,2.5,0.4,5.4,0.9,8c0.1,0.5,0,0.9,0.1,1.3
			c0.1,0.4,0.5,0.9,0.6,1.4c0.2,0.5,0.2,1.1,0.4,1.5c0.3,0.7,0.7,1.4,1,2c0.3,0.5,1.3,2.4,1.9,2.6c0.5,0.2,1.8-0.2,2.4-0.5
			c0.4-0.2,1-0.9,1.4-1.4c0.6-0.8,0.9-1.6,1.3-2.5c0.4-0.9,1.1-1.8,1-3c-2.2-1.1-0.9-4.6,1.3-4.6c0.3-1.5,1-3.3,1.1-5.2
			C188.1,291,186.6,289.8,184.6,289.1z M188.4,297.8c-0.9,0.4-1.7,1.8-1,2.7c0.9,1.1,3.5,1,3.5-0.8c0-0.4-0.3-0.7-0.3-1.3
			c-0.4-0.4-1-0.6-1.4-0.6C188.9,297.8,188.6,297.9,188.4,297.8z"/>
	</g>
	<g>
		<path class="st3" d="M249.3,264c1.9,2.6-1.9,6.5-4.4,4.2c-0.8,0.4-1.3,1-2.2,1c-2.6,0.1-4.7-2.8-2.8-4.9c-1.4-2.3,0.5-5.5,3.7-4.9
			c0.3,0,0.8,0.9,1.1,0.9c0.2,0,0.3-0.3,0.5-0.5c1.2-1,3.4-1.1,4.4,0.6c0.2,0.4,0.2,0.9,0.6,1.3C250.1,262.7,249.9,263.5,249.3,264z
			 M248.8,260.6c-0.8-0.9-2-0.9-3-0.3c-0.1,0.3-0.4,0.5-0.6,0.7c0,0.6,0.5,1.1,0.3,1.9c1.2-0.2,2.4-0.3,3.3,0.5
			C249.5,262.6,249.4,261.3,248.8,260.6z M240.1,262.9c0.2,2.9,4.4,2.5,4.9,0.1c0.3-1.1-0.9-2.2-1.5-2.9
			C241.7,259.8,240,261,240.1,262.9z M246.2,268.3c1.5,0.1,2.7-1.1,2.9-2.4c0.1-2.4-2.8-3.3-4.2-1.6c1,0.8,1,2.5,0.3,3.5
			C245.6,267.9,245.9,268.1,246.2,268.3z M243,268.6c0.6-0.2,1.3-0.8,1.9-1.3c0.2-0.7,0.5-1.7,0.1-2.2c-0.4-0.6-0.8,0.1-1.3,0.3
			c-1,0.4-2.6,0.1-3.4-0.5C239.4,266.6,240.5,269,243,268.6z"/>
		<path class="st3" d="M252.4,252.7c1.5-0.6,3.3-1.2,4.7-1.9c0-1.2,1.1-2.1,2.3-2.2c0.9-0.1,2,0.9,2.3,1.5c2.3-0.4,5-1.1,7.5-1.1
			c0.5,0,0.9,0.2,1.3,0.3c0.8,0.1,1.6,0.2,2.3,0.3c0.7,0.9,1.7,2.1,0.9,3.4c-0.2,0.4-0.7,0.9-1.2,1.5c-0.4,0.5-0.8,1.2-1.1,1.5
			c-0.3,0.3-0.8,0.5-1.1,0.8c-0.9,0.9-2.1,2-2.9,2.9c-1.3,1.3-2.7,2.4-4,3.8c-1.2,0.7-2,1.7-3.3,2.3c2.8,2.2,5.8,5,8.3,8
			c0.7,0.9,1.5,1.6,2,2.4c0.1,0.2,0.1,0.5,0.3,0.7c0.1,0.2,0.3,0.3,0.4,0.5c0.1,0.2,0,0.5,0.1,0.7c0.2,0.5,0.8,0.7,0.8,1.4
			c0,0.4-0.3,0.8-0.2,1.1c-0.4,0.4-0.6,0.8-0.8,1c-0.8,0.6-1.3,0.4-2.2,0.5c-0.3,0-0.4,0.2-0.7,0.2c-0.8,0.1-1.9-0.1-2.6-0.2
			c-4.7-0.7-9.3-3.6-13.2-5.3c-0.5,1.6,0.1,3.8-1,4.9c0.7,0.5,1.5,0.9,1.7,1.7c0.4,1.5-1,3.4-2.9,3c-1.1,2-1.6,4.2-2.9,5.8
			c-0.4,0.5-0.9,1-1.3,1.3c-0.4,0.3-0.9,0.3-1.4,0.4c-0.6,0.2-1.4,0.6-2,0.2c-1-1.4-1.7-2.9-2.6-4.2c-0.5-2-1.1-3.3-1.7-5.1
			c-0.1-2.6-0.8-5-0.7-7.9c-2.7,0.5-5.6,1.8-8.8,2.4c-2.4,0.4-5.1,1.1-8,0.8c-0.2,0-0.6-0.1-0.8-0.1c-0.2-0.1-0.4-0.4-0.8-0.7
			c-0.2-0.1-0.4-0.1-0.6-0.2c-1.2-1.1-0.5-2.3,0.1-3.7c3.9-4.1,7.6-8.5,12.5-11.7c-1-0.9-2.1-2-3.3-3c-2.8-2.3-5.6-4.7-7.8-7.7
			c-0.7-0.9-1.8-2.7-1.3-3.9c0.3-0.6,1-0.8,1.5-1.3c1,0.1,2.8-0.3,4.4-0.1c0.7,0.1,1.9,0.6,2.4,0.4c0.5-0.1,0.7-0.8,1.2-1.1
			c0.3-0.1,0.7-0.2,1.1-0.2c1.4,0.1,2.7,1.3,2.3,2.9c2.3,0.9,4.7,1.7,6.7,2.8c0.2-3.2,0.8-6.6,1.6-10.1c0.3-1.1,0.5-2.4,0.9-3.3
			c0.1-0.3,0.5-0.7,0.7-1c0.9-1.6,1.9-2.3,3.9-2.8c3.1,0.2,4.1,3.2,5.1,5.7c0.3,2.1,0.9,4.5,1.1,6.7
			C252.1,249.1,252.1,250.8,252.4,252.7z M219.4,249.2c-0.1,1.5,0.7,2.3,1.4,3.2c1.2,1.6,2.8,3.4,4.3,4.5c1.3,1.5,3.1,2.8,4.5,4.2
			c0.5,0.4,1.1,1.2,1.4,1c-0.1,0.4,0.6,0.6,0.8,0.9c2.1-1.4,4-2.9,6.3-4c0.1-2,0.2-4.3,0.4-6.2c-2.3-1-4.5-2.1-6.9-2.9
			c-0.4,1.3-2.6,1.8-3.8,1.1c-0.2-0.4-0.6-0.7-0.8-1c0-0.5-0.2-1,0-1.5C225.1,248,220.2,247.1,219.4,249.2z M250.1,241.4
			c-0.3-1.4-0.7-2.6-1.3-3.7c-0.2-0.4-0.7-1-1-1.3c-1.9-1.7-4.2-0.1-5.1,1.3c-0.3,0.4-0.3,0.4-0.5,0.8c-0.1,0.2-0.5,0.8-0.6,1.1
			c-0.3,1-0.5,1.6-0.7,2.5c-0.9,3.4-1.5,7.2-1.7,10.4c2.2,1.1,4.2,2.2,6.3,3.3c1.9-0.9,4.2-1.6,6.2-2.6
			C251.4,249.3,251,244.9,250.1,241.4z M227.7,248.5c-0.1,0.8,0,0.9,0.1,1.6c1.2,1.4,3.6,0.2,3.3-1.5c-0.1-0.7-0.9-1.5-1.9-1.3
			C228.6,247.5,228.1,248,227.7,248.5z M261.3,251.3c-0.1-0.9-0.6-1.7-1.5-1.9c-2.2-0.4-3,3.2-0.4,3.5c0.7,0.1,0.9-0.4,1.4-0.6
			C260.8,252.1,261.2,251.6,261.3,251.3z M267,259c1.5-1,2.5-2.6,4-3.6c0.4-0.6,0.9-1.1,1.3-1.8c0.4-0.7,0.6-1.3,0.5-1.9
			c-0.5-0.7-1.1-1.1-1.9-1.5c0,0,0.1-0.1,0-0.1c-2.6-0.7-6.3,0-8.8,0.8c-0.1,0.9-0.3,1.9-1.2,2.4c-1.4,0.8-3.1-0.2-3.8-1.6
			c-0.8,0-1.3,0.5-2,0.8c-0.9,0.4-1.9,0.5-2.6,1.2c0.4,2.1,0.3,4.7,0.2,6.6c2.5,1.6,4.7,3.4,7.1,5.1
			C262.4,263.5,264.8,261.3,267,259z M238.7,258.7c1.8-1.1,3.9-1.8,5.8-2.7c-1.8-0.9-3.5-2-5.4-2.8C238.8,255,238.8,257,238.7,258.7
			z M246.2,256.3c2.1,1,3.9,2.3,5.8,3.5c-0.1-2.2,0.1-4.1-0.3-5.9C250.1,254.6,247.9,255.4,246.2,256.3z M245.4,256.5
			c-2.4,0.9-4.7,1.8-6.7,3.1c0,2.9-0.3,5.4-0.4,8.1c0.4,0.4,1,0.6,1.5,0.9c0.9,0.6,1.9,1.6,3.1,2.3c0.5,0.3,1.1,0.6,1.7,1
			c1,0.6,1.6,1,2.5,0.6c1.8-0.8,3.3-1.6,4.9-2.2c0-3.1,0.1-6.4,0.1-9.6C249.9,259.1,247.7,257.7,245.4,256.5z M232.4,263.3
			c1.6,1.4,3.4,2.7,5.2,3.9c0.2-2.4,0.3-5.2,0.5-7.4C236,260.8,234.3,262.1,232.4,263.3z M252.6,269.9c2.2-1.3,4.3-2.7,6.4-4.2
			c-2-1.7-4.2-3.2-6.3-4.7C252.8,263.9,252.7,267.1,252.6,269.9z M235.6,266.7c-0.5-0.3-1.1-0.5-1.6-0.9c-0.8-0.6-1.4-1.6-2.2-1.9
			c-2.4,1.7-4.8,3.3-6.6,5.6c-1.2,0.9-2.1,1.9-3.1,3c-1.1,1.2-2.1,2.3-3,3.6c0.1,0.3-0.2,0.7-0.3,1c0.2,0.2,0,0.4,0,0.6
			c0.2,0.8,0.9,0.9,1.5,1.5c3,0.4,5.9-0.1,8.6-0.6c0.3-0.1,0.7-0.1,1-0.2c2.6-0.7,5-1.7,7.6-2.2c0-2.7,0-5.2,0.2-7.8
			C236.8,267.8,236.4,267.1,235.6,266.7z M262.5,280.6c0.5,0.2,1.2,0.4,1.8,0.5c1.5,0.2,3.9,0.6,5.1,0.2c0.4-0.1,1.2-0.6,1.3-0.8
			c0.1-0.2,0.2-0.9,0.1-1.4c-0.1-1-0.8-2.1-1.5-3.1c-0.7-1-1.5-1.8-2.2-2.5c-0.6-0.6-1-1.3-1.6-1.9c-2-1.9-4-4-6.2-5.5
			c-2.2,1.4-4.7,3-7,4.5c0.1,1.4-0.2,3.1-0.3,5.2C255.6,277.3,258.9,279.3,262.5,280.6z M238,275.8c2.8-0.7,5.2-1.6,7.5-2.7
			c-2.6-1.3-5.1-2.8-7.4-4.4C238.2,271,237.9,273.2,238,275.8z M247.1,273.1c1.6,0.8,3,1.7,4.6,2.4c-0.1-1.9,0.3-2.9,0.1-4.6
			C250.2,271.7,248.6,272.4,247.1,273.1z M246.2,273.5c-2.6,1.1-5.2,2.1-8.1,3c0,2.5,0.4,5.4,0.9,8c0.1,0.5,0,0.9,0.1,1.3
			c0.1,0.4,0.5,0.9,0.6,1.4c0.2,0.5,0.2,1.1,0.4,1.5c0.3,0.7,0.7,1.4,1,2c0.3,0.5,1.3,2.4,1.9,2.6c0.5,0.2,1.8-0.2,2.4-0.5
			c0.4-0.2,1-0.9,1.4-1.4c0.6-0.8,0.9-1.6,1.3-2.5c0.4-0.9,1.1-1.8,1-3c-2.2-1.1-0.9-4.6,1.3-4.6c0.3-1.5,1-3.3,1.1-5.2
			C249.7,275.4,248.2,274.2,246.2,273.5z M250,282.2c-0.9,0.4-1.7,1.8-1,2.7c0.9,1.1,3.5,1,3.5-0.8c0-0.4-0.3-0.7-0.3-1.3
			c-0.4-0.4-1-0.6-1.4-0.6C250.5,282.2,250.2,282.3,250,282.2z"/>
	</g>
	<path class="st4" d="M292.8,266c2.5,6.4,1.7,12.7,3.3,19c2.1,8.2,6.8,16.7-2.4,21.8c-4.6,2.6-13.6,2.8-21.8,5.7
		c-2.5,0.9-4.5,2.8-6.6,3.3c-3.1,0.8-6.5,1.4-9,1.9c-10.4,2.2-19.6,4.7-26.6,7.1c-0.4,0.8-1.6,1-1.9,1.9c-8.6,2.8-17.4,4-26.1,6.2
		c-17.2,4.3-30.1,11.6-50.7,10.9c-0.4,1.5-1.4,2.4-2.4,3.3c-3.9-1.9-2.8-2.2-4.3-5.7c-3.4,3.2-9.5,3.7-12.3-1c1.1-10-6.4-9.8-3.3-18
		c-5.3-2.2-2.1-10-5.2-14.2c0.2-1.8,0.5-3.3,1.9-3.8c-1.9-2.2-3.9-6.8-2.4-10.9c-3-5.2-10.5-10.6-4.3-17.1c0.1-1.7-1.5-2.9-2.4-4.7
		c0.3-2.4,1.6-3.8,2.8-5.2c-0.8-1.8-2.4-2.7-3.3-4.3c2.3-4.4-7.9-9-2.4-13.3c-3.6-2.1-4.1-7.9-0.9-10.9c-3.3-1.1-9.6-5.5-4.7-9.5
		c-2.4-2-4.6-5.1-2.4-9c-3-1.4-5.4-6.2-2.4-9.5c-3.9-1.2-5.4-6.1-3.3-9.5c-1.4-2.6-3.9-4-3.3-8.5c-9.1-2.2,1.9-16.4-7.6-17.1
		c-0.4-3.5-2.4-8.2,1.9-9c-1.8-1.9-5.1-4.6-3.3-8.6c-1.7-1.9-5.2-4.9-5.2-10c0-0.7,0.6-2,0.5-2.9c-1.2-6-6.1-10-3.3-15.2
		c1.2-2.2,4.2-2.5,6.2-4.3c-1.2-1.7,0.7-3.1,0.9-5.7c26.8-10.2,56.4-16.2,85.3-26.5c5.4,1.3,9.5-1.3,14.7-3.3c6.2-2.4,14-4,21.3-6.6
		c11-3.9,20.7-10,30.4-10c1.5,1.3,2.8,3.2,5.2,4.8c1.8,9.1,6.1,19.8,8.1,30.3 M154.4,320.1c0.3,1.5-0.5,1.7-0.5,2.9
		c1.2,1.8,3.3,2.7,3.3,5.7c0.1,1.5-0.6,2.3-1.9,2.4c0.1,1.9,2.2,1.9,1.9,4.3c-0.3,4.6-7.5,3.7-10,4.7c2.4-0.5,2.4,1.4,3.8,1.9
		c15.3-4.1,31.9-8.5,46.9-11.8c4.3-0.9,7.7-3.1,10.4-1.9c19.3-4.8,32.3-16,53.1-16.1c1-0.7,1.9-1.5,3.3-1.9c1.1,0,2.2,0,3.3,0
		c7.6-3.7,16.7-5.5,25.1-7.6c2.5-3.2,1.3-3.4,0.5-7.1c-2.3-10.7-2.8-25.1-5.2-34.1c-6.7-24.8-15.1-53.9-22.8-83
		c-1.3-5-1.6-10.1-2.8-15.2c-4.1-16.6-9.5-32.4-13.3-47.4c-1.3-5.4-1.7-11.8-3.3-17.5c-2.4-8.6-4.4-18.6-12.3-20.9
		c-19.8,9.2-43.4,16-64,20.9c-0.4,0.5-0.9,0.9-1.4,1.4c-13.5,3.4-28.2,7.6-41.7,11.9c-13.8,4.3-29,6.5-37.9,13.7
		c4.2,0,12,4.5,7.6,11.4c-2.7,1.3-8.3-0.6-6.6,1.9c0.5-0.1,0.5-0.7,0.5-1.4c4,0.9,15.5,2.9,15.2,9.5c-0.2,2.7-2.8,3.4-5.2,4.7
		c4.6,0.5,7.2,3,6.6,8.5c2.1,0.4,3,2.1,3.8,3.8c-4,4.4,1.7,6.2,4.7,11.4c2.8,4.8,0.5,5.9-0.5,9.5c3.4,1.5,2.9,5.9,1.4,9
		c3.2,0.9,2,4.2,2.8,7.1c0.9,2.9,3.2,5.7,0.5,9c4,1.7,7.5,7,4.3,11.9c2.2,1.5,4.4,2.8,4.7,6.2c-0.4,1.5-2.3,1.5-2.4,3.3
		c4.1,0,5.5,2.7,6.2,6.2c-1.1,0.7-1.3,2.2-1.4,3.8c3.3,2.7,2.2,5.8,2.8,9.5c0.2,1,1.9,2,2.4,3.8c0.3,1.4-0.3,3.2,0,3.8
		c1.4,3.4,6.3,5,2.8,10c1.2,1.6,3.3,2.4,3.8,4.7c-2.5,4.8,3.2,8-0.5,12.3c2.9,2.1,7.5,6.5,4.3,10.4c1.3,2.1,3.2,3.5,3.8,6.2
		c-0.3,1.3-0.9,2.3-1.4,3.3C151.8,309.8,150.4,316.2,154.4,320.1z M134.5,332.4c2.3-0.3,3,1.1,4.7,1.4c2.8-5.6,11.2-2.8,13.7-5.7
		C147.7,326.7,138.9,327.8,134.5,332.4z M145.8,332.4c-2.9,2.1-6.3,3.8-8.5,6.6c4.1-1.3,9.1-2.4,15.6-3.8c0-0.7,0-1.3,0-1.9
		C149.7,333.9,149,331.9,145.8,332.4z M150.1,319.6c-2.5-0.1-2.4-0.3-4.7,0c-2.7-6.4-8.9-0.4-11.8,2.4c0.9,1.3,0.4,4.1,1.9,4.8
		C139.4,321.3,150.1,325.3,150.1,319.6z M141.6,307.7c-5.3,1.7-7.8,4.6-13.7,6.7c-0.1,2.1,1,3.1,1.9,4.3c5.4-1.9,8.2-7.2,15.6-5.7
		c0.5-0.7,1.3-1,1.9-1.4c0-0.8,0-1.6,0-2.4C145.5,308.7,143.1,308.7,141.6,307.7z M145.8,300.6c-0.8-0.1-1.1-0.8-0.9-1.9
		c-8.9-1.6-17.4,5.3-17.5,10.9C133,307.1,141.2,304.7,145.8,300.6z M140.6,289.2c-5.4,0.3-10,2.9-14.7,5.2c0.3,2.2-0.5,5.1,2.4,5.7
		c3.7-4.8,12.4-4.5,15.2-9C141.8,291.3,142.2,289.3,140.6,289.2z M124,287.3c-0.2,1.6,1.4,1.4,1.9,2.4c4.7-2.8,12.5-2.7,13.7-9
		C133.3,278.6,128.2,284.3,124,287.3z M137.3,272.2c-2.8,1.6-5.7,0.3-7.6-1.4c-1.1,3-5.3,2.9-7.6,4.7c0.8,3-1.1,4.4-1.9,7.1
		c6,2,9.5-7.7,15.2-6.2c-0.4-2.6,2.9-0.4,2.8-2.4C137.4,274,138,272.4,137.3,272.2z M122.1,269.8c4.5,0.4,8.9-8.1,13.8-3.3
		c0.1-0.6,0.8-0.5,1.4-0.5C134.2,257.2,124.3,263.8,122.1,269.8z M131.6,253.7c-2.4,0-4.6,0.3-6.6,1.4c-0.7-0.6-1.3-1.2-1.9-1.9
		c-2.4,2.6-6.6,6.6-2.4,9.5c4.3-2,7.7-7.8,11.9-7.1C131.7,255.5,132.3,254,131.6,253.7z M127.8,243.2c-1.7,1.8-3.1,1.6-5.2,0.5
		c-1.4,0.7-2.8,1.3-3.8,2.4c0.7,0.1,1.7-0.2,1.9,0.5c-1.8,2-5.8,1.8-6.1,5.2c0.5,1.1,1.4,1.7,2.8,1.9c2.9-4.1,8.2-3.4,13.7-5.2
		C131.1,245.6,130.1,243.9,127.8,243.2z M125.9,234.2c-3.6,1-7.6,1.6-10.9,2.9c-0.5,2-2.4,4.7-0.9,7.1c4-1.6,10.4-4.7,14.2-8.1
		C126.8,236.2,126.9,234.7,125.9,234.2z M109.8,230.4c1.9,2.8,3.8,1.2,6.2,2.4c1.4-1.8,4.1-2.2,5.2-4.3c1.7,0.8,2.4-0.6,3.8-1.9
		C119.8,220.8,113.6,224.8,109.8,230.4z M114.6,213.4c-4.4,2.4-5,5.6-7.1,10c1.4,0.3,0.8,0.3,2.4,1c3.2-3.2,8.3-4.3,12.3-6.6
		c-0.4-2.6-2.1-3.9-4.2-4.7C116.3,213.8,114.3,215.7,114.6,213.4z M105.1,213.8c5.3-0.1,10.2-4.2,12.3-9
		C112.4,203.2,104.5,208.4,105.1,213.8z M111.7,198.7c-1.3-0.7-1.6-2.2-3.3-2.4c-2.1,2.4-8.5,5.6-4.7,9.5c4.4-2.9,7.8-3.9,11.4-7.6
		C114,197.2,112.4,197.9,111.7,198.7z M112.2,186.4c-1.1-0.9-5.3-0.2-7.6,1.4c-1.8,1.3-1.9,4.3-4.3,4.3c-0.4,2.1,0.3,3.1,1.4,3.8
		C104.5,192,119.3,191.8,112.2,186.4z M112.7,178.8c-0.8-1.4-2.4-2-4.3-2.4c-2,1.5-3.1,1.6-6.2,0.9c-2.2,1.9-4.2,4-6.6,5.7
		c0.4,1.5,0,2.5,0.9,4.3C101.9,184.7,109.4,182.2,112.7,178.8z M101.3,170.2c-0.6,3.5-8.2,2-6.2,7.6c5-0.7,6.4-4.2,8.5-6.7
		c0.9,0,2.7,1.1,3.3-0.5C104.6,170.2,103.5,171.1,101.3,170.2z M98.9,162.6c-3,2.1-7,5.6-6.6,9.5c4.1-3.3,7.3-7.5,13.3-7.6
		c0-0.6,0.6-0.7,0.5-1.4C102.9,162.5,101.6,164,98.9,162.6z M90.4,161.2c4.1-1.8,6.3-5.6,11.4-4.3c0-0.5,0-0.9,0-1.4
		C97.6,152,89.5,155.2,90.4,161.2z M101.3,145.6c-3.9-7-14.4-2.2-15.6,2.4c1.2,1.8,1.2,4.8,4.3,4.7c0.4-5.2,5.3-5.7,10.9-5.7
		C100.8,146.4,101.4,146.4,101.3,145.6z M82.8,131.4c-1.1,2.9-0.3,6,2.4,6.6c-0.3-5.3,6.3-4.8,8.5-6.2
		C91.4,127.9,86.2,131.7,82.8,131.4z"/>
</g>
</svg>
