<?xml version="1.0" encoding="utf-8"?>
<!-- Generator: Adobe Illustrator 21.0.0, SVG Export Plug-In . SVG Version: 6.00 Build 0)  -->
<svg version="1.1" id="Layer_1" xmlns="http://www.w3.org/2000/svg" xmlns:xlink="http://www.w3.org/1999/xlink" x="0px" y="0px"
	 viewBox="0 0 389.9 542.3" style="enable-background:new 0 0 389.9 542.3;" xml:space="preserve">
<style type="text/css">
	.st0{fill:#FBA347;}
	.st1{fill:#1C1B1C;}
	.st2{fill-rule:evenodd;clip-rule:evenodd;fill:#172C2A;}
	.st3{fill-rule:evenodd;clip-rule:evenodd;fill:#FBA347;}
	.st4{fill-rule:evenodd;clip-rule:evenodd;fill:#FFFFFF;}
</style>
<g>
	<path class="st0" d="M353.5,528.7H39c-15.6,0-28.3-12.8-28.3-28.3V28.6C10.6,13,23.4,0.2,39,0.2h314.6c15.6,0,28.3,12.8,28.3,28.3
		v471.8C381.9,516,369.1,528.7,353.5,528.7z"/>
	<path class="st1" d="M83.2,541.6c13.4-1,26.6-3.1,39.9-4.4c27.5-2.6,54.9-6,82.4-8.7c27.4-2.7,55-4.8,82.6-4.8
		c25.2-0.1,50.6,1.9,75.8-0.1c6.2-0.5,12.9-1,15.7-6c1.6-2.9,0.6-7.4,0.8-10.5c0.4-5.9,0.3-11.9,0.2-17.8
		c-0.3-21.7-0.5-43.2,0.6-64.9c1.2-22,1.7-43.9,0.6-66c-1.1-21.7-1.1-43.6-2.5-65.3c-1.4-22.6-7.8-44.8-7-67.5
		c0.4-11.5-2.8-22.8-2.8-34.3c0-12.1,0-24.1,0-36.2c-0.1-24.3-0.7-48.5,1.7-72.8c1.2-12.1,2.8-24.1,3.8-36.2
		c0.5-5.7,0.9-11.5,1.5-17.2c0.6-5,2.4-9.7,1.9-14.7c-0.1-0.7-0.4-1.2-0.8-1.6c3.4,0.5,6.7,1.3,9.4,2.9c1.8,1,4-1.3,2.3-2.4
		c-9.5-5.9-24.6-5.1-35.9-5.1c-17.7,0.1-35.4-1.8-53.1-2.5c-36.5-1.5-73-1.7-109.5-3C155.9,1.6,121,0.7,86.1,0
		C71.5-0.2,57.5,0.9,43.1,2.8c-4.9,0.7-10.7,1-16,2.1C16.8,1.5,11.6,15.2,8.8,21.9C1.6,38.7,0,56.6,0,74.2
		c-0.1,42.6,3.7,85.6,8.3,128.1C13,246.1,18.5,290,24.4,333.8c5.9,43.8,5.2,87.4,5,131.4c0,6.8,0.2,13.6,0.5,20.4
		c0.3,6.8-1.3,12.9-2.7,19.5c-1.5,7.1-2.8,17.1,4.4,22.5c1.6,1.2,4.2,1.3,5.8,0c0.6-0.5,1.2-1,1.8-1.5c2.5-2,0.1-5.5-2.9-5.3
		c-2.6-6-0.4-14.5,1.2-20c2.8-9.9,1-20.3,1-30.4c0-21.8,0.5-43.6,0.3-65.4c-0.3-44.1-7.7-88-13.2-131.8
		c-5.5-43.8-11.3-87.6-14.3-131.6C10,120.8,8.8,99.9,8,79.1c-0.7-18.8,0.6-37.7,7.5-55.7c1-2.6,2.1-5.1,3.4-7.5c0.9,0,1.9-0.3,2.8-1
		c6-4.9,18.5-4.5,26.5-5.7c15.6-2.5,31.3-2.5,47.1-2.1c31.8,0.7,63.7,1,95.5,1.9c33.2,1,66.3,1.1,99.5,1.8
		c16.6,0.4,33.1,1.4,49.7,1.7c7.8,0.2,15.6-0.2,23.4-0.1c3.1,0,6.5,0,9.8,0.2c-0.7,0.4-1.2,1.1-1.2,2c0.1,4.2-1.6,8.1-2.2,12.3
		c-0.8,4.9-1.3,9.8-1.8,14.7c-1.1,11.1-2.6,22.2-4,33.2c-2.8,21.7-3.2,43.3-3.3,65.1c-0.1,21.3-1.7,43.1,0,64.3
		c0.8,10,2.6,19.4,2.2,29.5c-0.4,10.7,2.6,21.3,4.1,31.8c3.1,21.4,3.2,42.6,4,64.1c0.9,22,2.7,44,2.2,66c-0.6,22-2.5,43.9-2.6,65.9
		c0,10.2,0.5,20.3,0.6,30.5c0.1,5.1,0,10.2-0.3,15.2c-0.1,2.3-0.4,4.6-0.3,7c0.1,2-5.3,1.8-6.8,1.9c-25.2,1.8-50.6,0-75.8-0.2
		c-27.6-0.1-55.2,2.1-82.6,4.8c-27.5,2.7-54.9,6-82.4,8.7c-12.3,1.2-24.5,2.9-36.8,4.1c-14,1.4-28,0.8-42.1,0.8c-6.5,0-6.5,8,0,8
		C57.2,542.2,70.2,542.6,83.2,541.6z"/>
	<g>
		<path class="st2" d="M112.2,405.1c37-3.2,66.2-6.8,101.4-11c0,0,0,0,0,0c2.4-0.2,5.1-0.4,7.7-0.9c5.6-0.6,12.6-1.1,15.5-2.6
			c1.6-0.8,3.7-4.3,5.6-6.6c2.1-2.3,4.1-4.6,5.6-6.6c3.3-4.2,9.5-9.4,10.3-14.5c1.2-7.1-0.7-17-1.4-25.3c-0.8-8.6-0.1-17.8,0-26.3
			c0.3-18.6-1.4-35.6-2.3-52c-2.1-35.1-2.1-70-6.1-101.2c-3.3-0.3-7.8,0.6-10.3-0.5c1.7-18.5-11.7-31.3-29.1-29.1
			c-6.2,0.8-10.2,4.8-14.5,7c-9.4-6.1-23.8-2.2-31.4,2.8c-7.4-3.6-20-1.7-25.3,2.3c-8.1-5.3-23.4-3.3-29.5,2.3
			c-0.4-0.2-0.8-0.3-1.2-0.4c-1-0.5-2-0.8-3.1-1c-25.8-7.3-43.2,18.5-32.3,41.3c1.7,3.6,5.9,5.5,7,9.4c2,6.8,0.7,18.3,1.4,27.2
			c4.2,53.9,2.7,110.1,9.4,162.2c1.1,8.4,1,22.6,4.7,24.4"/>
		<path class="st3" d="M165.7,155.3c1.8,2,3.1,4.5,3.3,8c-1.2,0-2.5,0-3.7,0C164.8,160.1,165.8,158.3,165.7,155.3z"/>
		<path class="st3" d="M160,147.8c-1.8,4.8-4.2,9.7-2.8,16.4c-1.4,0-2.8,0-4.2,0c-0.2-7.3-3.8-11.2-6.1-16.4
			C150.6,146,156.4,146,160,147.8z"/>
		<path class="st3" d="M195.7,153.4c1.9,0.9,3.1,5,1.9,7.5c-0.3,0-0.6,0-0.9,0C194.5,160.2,196.2,155.7,195.7,153.4z"/>
		<path class="st3" d="M187.2,161.8c-3.1-0.3-5.1,0.5-8,0.5c-1-5.6-2.6-10.5-5.2-14.5c2.3-3.2,11.2-3.9,15-1.4
			C186.9,150.3,186.6,156.3,187.2,161.8z"/>
		<path class="st3" d="M125.3,166.5c-2-5.8-4.1-11.6-7.5-15.9c2.4-2.2,7.5-3.3,11.7-2.3C126.5,152.7,124.7,158.4,125.3,166.5z"/>
		<path class="st3" d="M134.2,166.1c0.7-4.4,0.2-10.1,2.3-13.1c3.3,2.9,5.5,7,6.6,12.2C140.7,166,136.9,165.5,134.2,166.1z"/>
		<path class="st3" d="M101,151.5c-2.7,5.2-5.4,12.6-3.7,20.6c-3.5,3.7-6.9,7.4-10.8,10.8C73.1,173.9,80.1,145.1,101,151.5z"/>
		<path class="st3" d="M109.4,157.2c3.5,2,4.6,6.4,5.6,10.8c-2.8,0.6-5.4,1.4-8.9,1.4C105.7,163.8,108,161,109.4,157.2z"/>
		<path class="st3" d="M228,159c-6.7-0.3-12.3,0.5-18.7,0.5c0.2-6.8-2.2-10.9-4.7-15C214.2,135.1,230.6,144.5,228,159z"/>
		<path class="st4" d="M222.8,177.3c16.7-9.7,9.5-44.5-13.1-41.2c-4.2,0.6-6,4.6-10.3,3.3c0.6-2.5,3.8-4.9,6.1-5.6
			c17.8-5.6,31,7.9,29.1,27.2C233.9,167.5,230.5,181.1,222.8,177.3z"/>
		<path class="st4" d="M198,180.1c0.6-5.2,4.1-9.8,4.7-15.5c1.4-13.7-8-28.1-25.3-23.9c-2.7,0.6-4.8,3.6-7.5,1.9
			c0.8-4.2,7.6-6.3,11.2-6.6c13.2-1,25.6,11.4,23.9,27.7C204.4,169.9,202.4,177.4,198,180.1z"/>
		<path class="st4" d="M166.6,182.5c0.6-5.6,5.9-7,6.6-12.7c1.6-13-8.8-28-22-27.2c-3.3,0.2-4.9,2.3-8.4,1.4
			c10.8-10,28.4,1.6,31.9,13.1c1.8,5.9,1.7,16.3-0.9,21.1C172.5,180.3,169.7,184,166.6,182.5z"/>
		<path class="st4" d="M140.3,184.3c14.9-12.6,3.5-42.8-17.8-39.8c-3,0.4-5.6,3.2-8.4,1.4c1.6-3.5,7.1-4.3,10.8-4.2
			c13.1,0.4,25.6,13,25.3,28.6C150.1,176.2,146.4,185.8,140.3,184.3z"/>
		<path class="st4" d="M113.2,186.2c-0.4-2.7,2.7-3.5,3.8-6.1c5.3-12.4-2-29.2-12.2-32.3c-12-3.7-27.2,4.9-29.1,15.9
			c-1,5.8,0.7,11.8,2.8,15.9c1.4,2.7,4.1,4.1,4.2,7c-5.4-3.3-9-8.6-9.8-14.5c-3.3-22,20.5-36.6,38.9-24.4c5.5,3.7,11.1,15,10.3,25.8
			C121.6,179.7,119.8,188.2,113.2,186.2z"/>
		<path class="st4" d="M193.3,148.2c1.4,2.8-1.9,9-0.9,13.1c-3.8-0.3-1.6-11.3-0.5-13.1C192.4,148.2,192.8,148.2,193.3,148.2z"/>
		<path class="st4" d="M134.2,150.6c-2.4,4.5-4.2,9.6-4.7,15.9c-2.2-0.4-1.8-6.2-1.4-8.9c0.5-3.5,2.7-6.3,3.8-8
			C133.1,149.6,133.4,150.4,134.2,150.6z"/>
		<path class="st4" d="M162.4,150.1c4.3,2.6-2.2,8.3,0.5,13.6c-0.9,0-1.9,0-2.8,0C159.5,159.3,159.9,152.9,162.4,150.1z"/>
		<path class="st4" d="M107.5,153.9c-2.4,4.5-5.7,8-5.2,15.5c-3.2-4,0.9-12,1.9-16.4C106.2,152.4,106.1,153.9,107.5,153.9z"/>
		<path class="st4" d="M228,163.2c0,1.7-0.7,2.7-0.9,4.2c-6.5,0.1-12,1.1-18.7,0.9c0.6-0.6,0.5-2,0.5-3.3
			C214,163.3,222.4,164.7,228,163.2z"/>
		<path class="st4" d="M197.5,165.6c1.3,1.1-0.7,2.8,0,4.7c-6.6-0.2-12.4,0.4-18.3,0.9c-0.6-0.8,0.4-3.1,0-5.2
			C184.7,167,192.5,166.6,197.5,165.6z"/>
		<path class="st4" d="M169.9,168.9c0.2,6.3-11.3,1.7-16.4,3.8c0-0.6,0-1.3,0-1.9C156.4,167.6,165.4,170.5,169.9,168.9z"/>
		<path class="st4" d="M225.6,169.8c-2.9,1.9-6.3,3.7-5.6,7.5c1.1,6,11.8,4.7,13.6-0.5c-0.4,12.4-18.9,5.7-15.9-3.8
			C218.4,170.7,221.4,169.6,225.6,169.8z"/>
		<path class="st4" d="M196.1,172.6c-10,3.5,1.2,17.2,7.5,7C200.7,193.9,180.9,174.9,196.1,172.6z"/>
		<path class="st4" d="M138,176.4c0.2,1.5-1.6,4.1-0.9,7c1.2,5.1,8.4,5.4,12.2,0.9C147.2,198.4,128.8,184.3,138,176.4z"/>
		<path class="st4" d="M98.6,178.2c0.4-0.1,0.4,0.2,0.5,0.5c1,28.5,2.4,56.9,3.8,87.2c1,22.7,4.5,46.7,5.6,71.2
			c0.4,7.7,0.1,15.5,0.5,23c0.3,6.9,2.4,13.6,0.9,20.2c-5.9-30.9-5.4-66.1-7-100.3c-1.6-34.2-4.3-68.4-5.6-100.3
			C97.9,179.4,98.4,178.9,98.6,178.2z"/>
		<path class="st4" d="M95.3,181.1c0.5-0.1,0.9,0.1,0.9,0.5c0.1,31.8,5.1,66.4,5.6,101.2c0.5,34.6,2.8,69,5.2,100.3
			c-10.2-60.9-9.8-132.4-12.7-200.6C94.6,181.9,95.2,181.7,95.3,181.1z"/>
		<path class="st4" d="M109.9,182c0.3,1.5-0.2,7.9,3.3,8.9c3.6,0,6.8-0.4,7.5-3.3c1,3.8-4.2,5.5-8.9,5.2
			C108.8,191.3,108.2,185.4,109.9,182z"/>
		<path class="st4" d="M92.5,183.9c0.4-0.1,0.4,0.2,0.5,0.5c1.8,51.3,2.2,111.6,8,161.2c0.9,7.5,2,16.3,2.8,24.4
			c0.7,7,3.6,16.5-3.3,20.2c-7.2-63.9-7.1-137.6-9.4-204.8C91.8,185,92.3,184.5,92.5,183.9z"/>
		<path class="st4" d="M95.3,397.1c-0.1-18.7-3.6-37.7-4.7-56.7c-0.7-12.7-0.4-25.5-1.4-38.4c-1.9-24.9-2.3-50.1-4.2-75
			c-0.7-9.4-1.5-18.4-1.4-28.1c0-2.3-1.4-6.6,1.9-8c0.9,16.4,1.7,33,3.3,48.7c1-16.3-2.6-34.5-1.9-50.6c1.1-0.3,1.3-1.6,2.3-1.9
			c0.4-0.1,0.4,0.2,0.5,0.5c1.9,61.8,3.2,127.8,8,188C98.3,383.1,101.2,393.1,95.3,397.1z M90.2,261.2c0.2-2.1,0.3-6.2-0.5-8
			C89,256.6,89.7,267.8,90.2,261.2z"/>
		<path class="st4" d="M159.6,226.5"/>
		<path class="st4" d="M161.4,260.7"/>
		<path class="st4" d="M246.7,368.1c3-0.1-0.4,0.9,0,2.3c-43.5,5.9-87.7,11.1-135,13.1c1-3.3,4.8-2.1,7-2.3
			c29.2-3.4,63.6-5.2,92.8-8.9C223.6,370.8,236.3,369.6,246.7,368.1z"/>
		<path class="st4" d="M243.9,372.8c-2.1,5.3-9.3,4.1-14.1,4.7c-39.2,4.5-79.3,8.7-120.9,10.3c2.7-5.7,10.2-3.5,15-3.8
			c38.5-1.8,82-7.8,119.1-11.3C243.3,372.8,243.6,372.8,243.9,372.8z"/>
		<path class="st4" d="M240.2,378.9c-42.8,4.5-88.1,11.9-133.6,11.2c3-2.6,7.5-1.3,10.8-1.4c39.2-1.7,77.9-7.3,115.3-10.3
			C234.8,378.2,238.3,376.8,240.2,378.9z"/>
		<path class="st4" d="M237.8,381.7c-42.5,7.3-86.5,13.2-135,14.5c1.6-3.8,3.6-3.9,6.6-4.2c10-1.3,21.2-0.5,32.3-1.4
			c29.2-2.4,62.9-7.5,90.9-8.9C233.8,381.6,235.8,380.8,237.8,381.7z"/>
		<path class="st4" d="M236,384.5c-3.4,4.5-10.4,3.1-15.5,3.7c-37.5,4.6-80.7,9.4-120.5,13.1c1-6.3,6.4-4,10.8-4.2
			c38.2-1.6,82.7-7.8,120.5-12.2C232.3,384.8,233.9,384.2,236,384.5z"/>
		<path class="st4" d="M164.7,176.4c-4.8,5.9,5.4,12,8.9,7c0.3,4.7-4.6,4.1-8.9,4.2C162.8,185.4,161.5,178.2,164.7,176.4z"/>
		<path class="st4" d="M243,162.3c5.9,64.6,9.2,134.5,10.8,200.6c-46.2,3.9-91.3,9-136.9,13.6c-6-64.8-10.1-131.4-13.1-199.2
			c2.3-2.5,5.6-4.1,10.8-3.7c0,1.6,0,3.1,0,4.7c-1.9,0.8-5,0.3-6.6,1.4c0-1.6,0.1-3.3-0.9-3.8c-2.4,26.5,2.5,56,3.7,84.8
			c1.3,28.4,4.4,56.6,7,83.4c-1.3-49.4-5-100.3-8.4-149.1c6.9,1.4,13.1-0.7,14.1-5.2c0.4-1.8-1-3.2-0.9-4.7
			c0.2-4.3,3.8-8.3,2.8-13.1c6.1,1,13.3-2,17.8,0.5c-0.4,2.6-4.4,1.2-6.6,1.4c-2.7,0.3-5,0.8-6.6,1.4c0.6,1.3,2.9,0.9,4.7,0.9
			c-7.1,12,10,22.6,16.4,11.7c-1.8-5.7,0.4-9.3,2.3-13.6c4-1.1,10.4,0.1,14.5-0.9c-2.4,2.1-5.4,0.7-7,3.3c-3,4.8-0.5,13.2,4.2,14.1
			c3.9,0.7,9-0.9,10.3-3.8c1.1-2.4-0.9-4-0.5-6.1c0.5-2.9,3.8-4.2,3.7-8c4.1,0.3,7-0.5,10.8-0.5c-3.4,5.3-0.3,13.3,4.2,15
			c5.5,0.2,9.6-1,11.7-4.2c-0.8-5.8,0-9.2,2.3-12.7c3.1,0.3,5.1-0.5,8-0.5c0.7,1.1-0.9,3.9-0.5,7c0.3,2.5,2,4,2.3,5.6
			c5.3,4,15.2,4.8,17.3-1.9c0.8-2.4-0.6-4-0.5-6.6c0.2-4.5,2.5-8.3,4.2-11.2c5,29,2.6,66.4,7,96.6
			C246.9,227.5,243.1,193.4,243,162.3z M161.4,198.4c19.6-0.2,44.1,0.1,61.4-2.8c1,49.1,7.5,92.8,8.4,142c-15.9,2.5-34.9,2.3-49.7,7
			c16.2-2.6,34.9-2.6,51.1-5.2c0.3-24.5-2.4-49.1-4.2-73.6c-1.8-24.5-2.5-49.4-5.6-73.1C207.4,197.8,180.1,195,161.4,198.4z
			 M131.9,202.1c-4.3,0.5-8.4,1.2-11.2,0.9c3,30.8,3.4,64.1,7,94.2c0-33-2.8-63.1-6.1-92.8c8.6-1.9,19.3-1.6,27.2-4.2
			C142.6,200.4,137.6,201.5,131.9,202.1z M192.4,214.8c-0.9,9.2,0,20.5,3.3,27.2c5.6-0.5,11-1.2,15.9-2.3c1.1-2.7,0-6.8-1.4-8.4
			c-2.7-1.2-5.6,0.8-8-0.5c1.2-1.5,4.9-0.4,6.1-1.9c0.1-2.6-0.3-4.7-1.4-6.1c-2.3-0.8-5.7,1.5-6.1-0.5c1.9-2.2,6.6-1.5,9.4-2.8
			c0.7-1.6,0.4-4.3,0.5-6.6C204.2,211.4,197.6,213.5,192.4,214.8z M171.3,216.7c-0.3,1.3-0.2,4.4,0.5,6.1c0.8,1.3,4,0.4,5.2,1.4
			c0.9,5.4,0.3,12.2,1.9,16.9c1.2,0.7,4.9,0.7,6.1,0c0.7-5-0.3-12.1-0.5-17.8c1.8,0,2.9-0.8,4.2-1.4c-0.5-2.4,0.7-4.9,0-6.1
			C183.2,214.5,176.7,216.2,171.3,216.7z M141.3,219.5c-0.7,5.8,1.3,11.5,0.5,15.9c-1.3-0.5-3.1-0.7-3.7-1.9
			c-0.6-5.5-1.4-10.8-2.8-15.5c-2.5,0.4-4.8,1.2-6.6,2.3c0.7,8.8,0.9,18.1,3.3,25.3c7-2.8,11.2,0.6,18.8-1.4
			c-1.3-9.2-0.4-20.5-3.8-27.7C144.2,216.8,143.1,218.5,141.3,219.5z M158.2,240.6c13.8,2.6,12.9-26.7,0-23
			C150.4,219.8,149.6,238.9,158.2,240.6z M205.5,250.4c0-2.1-0.4-3.7-0.9-5.2c-2.9,0-6.4-0.5-7.5,1.4c0.6,8.9,2,17,2.3,26.3
			c2.1,0.5,5.6,0.9,7-0.5c0.6-1.4,0.5-3.6,0.5-5.6c5.5,2.3,13.1,11,16.9,1.9c-3.3-5-8.8-7.8-13.6-11.2c2.6-4.9,6.5-8.5,8.4-14.1
			C211.9,239.9,208.7,247.4,205.5,250.4z M185.3,274.3c13.9-0.6,12.1-29-1.4-27.2C169.4,249,171.9,274.9,185.3,274.3z M132.8,252.8
			c-0.9,8.7,0.9,18.8,1.9,27.2c13.8,4.3,25.9-12.7,11.7-18.8C152.8,252.8,138.8,247.7,132.8,252.8z M161.9,274.3
			c13.9,1.4,11.5-19,3.3-23.4C150.5,249.4,151.8,273.3,161.9,274.3z M249.1,359.6c-5.5-0.1-11.3,0.5-16.9,0.9
			c-5.5,0.5-11.5,0.3-15.5,2.8c12.1,1,25.7-0.6,36.1-2.8c-1.7-1.6-1.8-5.6-1.9-8c-1.2-27.2-0.8-59-4.2-84.8
			C246.1,298.2,248.1,328.6,249.1,359.6z M129.6,350.7c14-1.3,28.2-2.5,40.8-5.2c-14.1-0.2-26,3.2-38.9,2.8
			c-1.4-14-0.4-30.6-4.2-42.2C127.9,319,129.5,337.3,129.6,350.7z M117.4,355c2.5,1.8,2.8-3.1,0.5-1.4
			C117.3,353.6,117.3,354.3,117.4,355z M116.9,361c2,2.2,4.6-1.1,1.9-2.3C117.5,358.8,116.8,359.5,116.9,361z M205,364.8
			c0.6,0,1.2,0,1.9,0c0.4-1.8-0.5-2.3-1.9-2.3C204.4,363.1,204.4,364.2,205,364.8z M211.1,364.3c1.3,0.1,2.6,0.1,2.3-1.4
			c-0.5-0.4-1.3-0.6-2.3-0.5C211.1,363.1,211.1,363.7,211.1,364.3z M120.2,366.7c0.4-0.5,0.6-1.3,0.5-2.3c-1.1,0.2-1-0.9-2.3-0.5
			C117.5,365.4,118.1,366.8,120.2,366.7z M150.2,369.5c-10.4,1.1-20.9,1.4-30,4.7c23.7-2.2,47.6-4.3,69.4-8.4
			C175.6,366.1,163.1,368.1,150.2,369.5z M119.2,368.5c-0.1,1.2,0.6,1.5,1.9,1.4c0.1-1.2-0.2-2-1.4-1.9
			C119.7,368.4,119.6,368.6,119.2,368.5z"/>
		<g>
			<path class="st2" d="M332.6,304.9c-21.2-15.9-39.9-29.7-62-44.6c-4.1-2.8-9.2-7.6-12.7-8.3c-7.4-1.3-22.1,2.4-29.3,1.9
				c-0.4,0.4-0.8,0.8-1,1.2c0.9,3.5,2.2,9.5,3.8,14.2c1.7,5,3.7,10.9,5.7,14.1c1.8,2.9,7.9,6.8,11.7,9.5
				c22.1,15.7,39.1,30.2,60.8,45.5c5.6,4,19.6,14.9,26.6,13.9c11.4-1.7,20.7-15,18.6-24.7C352.5,316.9,339.4,310,332.6,304.9z"/>
			<path class="st4" d="M232.8,256.8c1.5-0.1,2.9,0,4.2,0.1c-1,1.4-1.4,3.1-2.9,4.2C233.7,259.7,233.2,258.2,232.8,256.8z"/>
			<path class="st4" d="M254.4,255.9c0.1,2.6-1.2,4.4-1.2,6.9c-2.6,1.1-7.1,1.2-7.3,3.6c-1.7-1.2-3.2-2.9-5-4.1
				C241.4,256.1,248.6,255.7,254.4,255.9z"/>
			<path class="st4" d="M259.3,256.7c20.9,13.8,41,29,61,44.5c-20.5-13.9-41.5-26.7-60.9-42.6C259,257.7,259.4,257.3,259.3,256.7z"
				/>
			<path class="st4" d="M239.5,263.6c2.6,2.2,6.8,3.8,7.1,8.1c-1.4-0.2-3.1,0.4-4.8,1C241,269.5,237.7,266,239.5,263.6z"/>
			<path class="st4" d="M237.7,267c3.4,3.4,3,9.6,2,12.9C239.1,277,235.3,269.4,237.7,267z"/>
			<path class="st4" d="M258.5,261.6c19.7,15.1,40.5,28.1,60.5,42.8c-0.6,1.9-0.6,4.2-2.6,5.4c-19.5-14.6-38.9-29.3-58.7-43.3
				C257,264.4,258.6,263.5,258.5,261.6z"/>
			<path class="st4" d="M255.2,267.7c19.5,16.4,39.5,31.7,60.4,45.6c-0.3,1.6-1.6,2.7-2,4.3c-21.6-13.1-42-28.5-62.9-43
				C250,270.5,249.7,268,255.2,267.7z"/>
			<path class="st4" d="M310.4,322.3c-1.5,6.1-6.3,1.3-10.8-1.9c-18.6-13-38.7-29.5-56-41.8c-0.2-0.5-0.1-0.8,0.2-1
				c-0.1-2,3.6-0.8,5.1-1.5C269.1,292.1,290.3,306.2,310.4,322.3z"/>
			<path class="st4" d="M243.2,280.3c20.8,15.4,43.4,31.1,62.7,47.2c-3.3,3-6.2-1.4-8.4-3.1c-12.9-9.6-26.1-19.9-39.4-30
				c-5.4-4.1-11.1-7.7-15.4-12.6C243,281.4,243.1,280.8,243.2,280.3z"/>
			<path class="st4" d="M330.3,308c1.3,0.3,2.3,1.1,3,2.3C332.2,309.8,330.7,309.8,330.3,308z"/>
			<path class="st4" d="M328.6,313.1c1.3,0.6,3.6,1.8,3,3.8c-1.7,0-3-0.7-3.9-2.1C328.2,314.4,328.5,313.8,328.6,313.1z"/>
			<path class="st4" d="M326.5,317c1.8-0.1,2.5,2,4,2.5C330.4,321.4,324.9,318.7,326.5,317z"/>
			<path class="st4" d="M337.9,314.5c0.7-0.3,0.9,0.2,1.4,0c2.1,2.5-0.7,5.7-1.8,8c-1.3,2.8-2.8,5.1-4.3,7.4
				c-3,4.5-6.5,11.1-12.5,11.2C328.9,333.6,336.1,325.5,337.9,314.5z"/>
			<path class="st4" d="M325,319.8c1.7,0.5,2.6,2.3,4.1,2.9C328.2,323.6,323.5,321.6,325,319.8z"/>
			<path class="st4" d="M327.2,327.1c-2.2-0.1-3.8-1.4-5.1-3.1C323.9,320.7,329.3,325,327.2,327.1z"/>
			<path class="st4" d="M320.8,325.7c1.7,0.8,3.4,1.7,4.4,3.8C323.5,328.6,319.5,327.9,320.8,325.7z"/>
			<path class="st4" d="M344.1,319.6c9.9,6.1,5.7,21.5-2.6,25.5c-4.9,2.4-12.2,1.2-14.3-2.7c3.4-0.9,7.9,2.3,12.7,0.4
				c3.7-1.5,6.5-4.9,6-9.3c-2,1.6-8.5,11.1-14.7,5.4C337.9,333.7,341.3,326.9,344.1,319.6z M345.3,330c0.6,0,1,0.4,1.8-0.1
				c-0.2-1-0.6-1.6-1.4-1.5C345.9,329.1,345.3,329.4,345.3,330z"/>
			<path class="st4" d="M319,327.7c1.3,1.6,4.5,2.5,4.5,4.2c-2.6,0.2-4.3-1.2-6-2.8C318.3,328.7,318.9,328.3,319,327.7z"/>
			<path class="st4" d="M315.7,330.5c1.9,1.2,3.9,2.1,5.4,4C319.2,333.7,315.7,332.8,315.7,330.5z"/>
			<path class="st4" d="M319.3,336.4c-0.5,0.9-1.2,1.8-2.6,2.2c-1.8-1.6-3.7-2.9-5.8-3.8C313.1,330.5,316.6,335.7,319.3,336.4z"/>
			<path class="st4" d="M325,304.4c1.6-0.1,2.5,1.1,3.5,2.2c-2.7,8.9-7.8,16.6-15.5,22.8C318.2,323.2,323.8,314,325,304.4z"/>
		</g>
		<polygon class="st4" points="127.2,210.4 132.6,309.8 227.6,300.7 223.8,255.8 216.4,200.3 		"/>
	</g>
	<g>
		<g>
			<path class="st2" d="M217.3,253.4c-0.2-1.5,0.4-3.7,0.6-5.7c0.4-4.7,1.1-9.8-1.7-12.1c-2.4-0.9-5.2-0.7-8-0.6
				c-6.2,0.3-13,0.3-18.4,1c-1.9,0.3-4,0.1-5.5,1.1c-0.5,4.2-1.4,12,1,14.7c0.9,1,3.2,1.5,5,1.7c6.4,0.8,12.9,1,19.2,0.8
				c3.3,2,5.9,5.5,11.4,4.9C220.4,257,217.6,255.8,217.3,253.4z"/>
			<path class="st4" d="M214.9,237c3.6,3,0.7,10.3,1.1,15.4c0.2,2.8,2,4.2,3.1,5.7c-4.2-0.4-6.2-3.1-8.6-5.3c-8,0-18,0.8-24.3-2.2
				c-0.8-3.4-1.7-9.3-0.6-12.8C194.8,236.9,205.7,236.8,214.9,237z M215.6,239.7c-1.2-2.1-4.6-2.1-8-2c-3.9,0.2-8.6,0-11.1,1
				c3.9,0.2,11-0.7,15.3-0.1c5.3,0.7,1.7,7.6,3.6,11.5C214.9,246.2,217.1,242.4,215.6,239.7z M188.8,238.8c1.5,0.3,3.7,0.1,5.2,0
				C193,238.2,189.8,237.9,188.8,238.8z M187.1,239.8c0.4-0.3,0.3-1.1-0.4-1C186.4,239.2,186.6,239.9,187.1,239.8z M192.6,251.6
				c3.8,0.5,7.3,0.7,10.1,0c-6-0.7-14.3,0.8-16.3-3.9C185.9,251,189.3,251.2,192.6,251.6z M210.7,251.6c1.5,2.3,3.9,4.6,6.6,5.2
				c-2.6-1.5-4.6-3.5-6.3-5.9c-1.5-0.1-3.7-0.5-4.8,0.3C207.5,251.5,209.4,251.2,210.7,251.6z"/>
		</g>
		<g>
			<path class="st2" d="M177.8,250.7c-2.4-3.1-10.1-6.2-15.6-6.2c-5.5,0.1-10.8,1.9-16,3.5c-5.2,1.6-9.2,3.4-12.6,6.5
				c-1.2,1.1-2.6,2.6-3.2,3.8c-1.7,3.2-2,9.6-1.3,12.9c0.6,2.7,2.5,5.4,4.2,7c2.3,2.2,6.7,3.3,10.5,3.5c6.7,0.5,14.7-0.8,19.9-3.2
				c3,2.2,4.3,6.3,5.5,10.4c2.5-1,2.8-4.1,3.6-6.6c0.9-2.6,1.7-5.5,2.2-8.1c3.7-2.5,5-7.9,5-14.3
				C180.2,255.8,179.3,252.6,177.8,250.7z"/>
			<path class="st4" d="M169.8,286.8c-0.9-4.3-1.9-8.4-5.8-9.7c-3.1,0.7-6.4,2.1-10.2,2.7c-6.7,1-14,0.7-18.1-2.1
				c-3.8-2.6-6.8-9.8-4.8-17c2.1-7.2,9.7-9.6,17.3-11.8c7-2.1,16-4,23.3-0.8c2,0.9,5.2,2.5,6.2,4.1c1.3,2,1.3,5.4,1.3,7.9
				c0,3.1-1,7.4-2.1,9.5c-0.7,1.3-2.8,2.5-3.2,3.8c-0.4,1.1-0.3,2.6-0.6,3.8C172.4,280.7,171.3,284,169.8,286.8z M162.4,247.4
				c-1,0-2.3-0.1-3.1,0.6c5.7-0.1,10.4,1.5,14.4,2.7C171.2,248.8,166.6,247.6,162.4,247.4z M152.7,249.1c1.1,0.1,2.9-0.1,3.9-0.6
				c-0.4,0-0.7,0-0.4-0.3C154.8,248.3,153.5,248.5,152.7,249.1z M175.6,252.2c0,0.1,0,0.3,0,0.4c0.2,0.1,0.4,0.2,0.7,0.1
				c0.1-0.4,0.1-0.3,0-0.7C176,252,175.8,252.1,175.6,252.2z M138.6,254c0.9,0.2,1.9-0.8,2.7-1.3C140.1,252.9,138.9,253,138.6,254z
				 M136.7,254.4c-4.2,1.7-5.6,7.5-5.2,12.8c0.3,3.2,1.9,5.8,3.8,7.6c1,0.9,2.3,1.8,3.5,1.8c-2.5-1.7-5.9-5-6.3-9.3
				c-0.6-5.6,1.5-10.7,4.5-12.9C136.9,254.4,136.8,254.4,136.7,254.4z M177.1,261.2c-0.2,3.2-1.3,7-2.9,8.8c-0.8,0.9-1.8,1-2.1,2
				c-0.2,0.5,0,1.1,0,1.7c-0.2,2.9-0.8,5.7-2.1,8c-0.9-2.3-1.9-5.1-4.6-5c0.3,1,1.3,0.9,2,1.5c1.6,1.5,1.6,3.9,2.9,5.6
				c1.8-3,2.5-7.1,2.7-11.8c3.7-2,5.9-8.8,5.2-14.7c-0.1-0.9-0.4-2.2-1.1-2.8C176.7,256.7,177.3,258.9,177.1,261.2z M146.8,275.9
				c-3.9-0.5-7.3-1.5-9.8-3.4C138.6,275.2,143,276.5,146.8,275.9z M143.3,278.1c4.3,2.2,9.9,0.3,14-0.8c2.9-0.8,5.8-1.6,6.9-3.4
				c-0.1,0-0.2,0-0.3,0C157.9,276.2,152.3,278.8,143.3,278.1z M163.5,275.9c0.2,0.1,0.4,0.2,0.7,0.1
				C164.4,275.3,163.6,275.4,163.5,275.9z M140.1,277.3c0,0.4,0.3,0.6,0.8,0.6c0-0.3,0-0.5-0.1-0.7
				C140.4,277,140.4,277.4,140.1,277.3z"/>
		</g>
		<g>
			<path class="st2" d="M214,266.8c-0.5-9.9-16.5-6.9-20.6-2.2c-4.6-1.3-9.4,1.4-8.3,6.7c-1.7,1-4.8,2.4-5.8,5
				c-2.2,5.9,1.2,12.5,7.7,10.8c1.4,7.4,10,13,17.4,8.6c0.8-0.5,1.5-1.5,2.4-1.7c1.1,3.7-1.5,5.7-1,7.9c3.5-1.1,6.2-4.4,8.4-7.3
				c2.9-0.5,6.1-1.4,7.7-3.5c2-2.6,2.1-7.9,0.1-10.8C227.2,274.4,221.9,264.8,214,266.8z"/>
			<path class="st4" d="M212.8,267.9c6.3-0.8,10.8,3.5,9.1,9.7c-0.3,1.1-1,1.6-1.5,2.7c1.5,2.4,2.7,7.2,0.7,9.8
				c-0.9,1.2-3.4,2.7-5.3,2.9c-0.9,0.1-1.9-0.1-2.9-0.1c-1.1,2.2-2.2,4.6-4.8,5.3c0.3-2.3,0.7-5.7-0.8-6.9c-1.2,0.1-1.5,1.3-2.2,2
				c-1.8,1.5-4.5,2.9-8,2c-1.8-0.5-4.6-2-5.8-3.2c-1.4-1.5-2-3.9-2.1-6c-2.7,0.1-5.7-0.5-7.3-2c-4.2-3.8,0.5-10.6,4.8-11.9
				c-1-4.7,2.4-8,6.9-6.3c1.9-1.7,5.7-3.5,9.5-3.9C208,261.4,212.3,263.6,212.8,267.9z M201.2,263.4c4.8-0.4,8.8,1,10.5,4.1
				C211,263.9,205.4,261.8,201.2,263.4z M198.1,265.1c0-0.2,0-0.4,0-0.6c-0.2,0-0.4,0-0.6,0C197.4,265.1,197.9,264.9,198.1,265.1z
				 M188.6,272.8c-2.3,0.6-4.6,1.2-5.2,3.5c1.6-1.6,3.9-2.4,5.9-3.5c-1.6-1.4-0.6-4.2-0.1-5.6C187.4,268.1,187.6,271.3,188.6,272.8z
				 M214.8,268.9c2.3,0.8,4.3,2,5.6,3.8C220,270.2,217,268.7,214.8,268.9z M217.6,281.2c1.5,1.1,2.5,3.8,2,6.2
				c-0.2,0.9-1.7,2.4-2.7,3.1c-1.2,0.8-2.7,0.9-3.8,1.4c3.3,1.2,6.4-1.3,7.6-3.5c1.4-2.6-0.5-6.1-2.1-7.3c1.7-0.9,2.9-4,2-6.3
				C220,277.4,219.6,280.1,217.6,281.2z M189.6,284.5c-4.7-0.1-8.3-1.2-8-6.3C179.6,283.1,185.1,286,189.6,284.5z M202.3,293.6
				c-6.3,0.5-10.8-1.9-11.6-7.3c-0.1,0-0.3,0-0.4,0C190.5,292.2,196.8,295.6,202.3,293.6z M211.4,293.3
				C213,291.7,209.3,292.2,211.4,293.3L211.4,293.3z"/>
		</g>
	</g>
</g>
</svg>
